solid ascii
  facet normal -2.186286e-15 1.000000e+00 0.000000e+00
    outer loop
      vertex   -8.837508e+01 1.596762e+02 2.000000e+00
      vertex   -8.837508e+01 1.596762e+02 2.775558e-16
      vertex   -1.013751e+02 1.596762e+02 2.000000e+00
    endloop
  endfacet
  facet normal -2.186286e-15 1.000000e+00 0.000000e+00
    outer loop
      vertex   -1.013751e+02 1.596762e+02 2.000000e+00
      vertex   -8.837508e+01 1.596762e+02 2.775558e-16
      vertex   -1.013751e+02 1.596762e+02 2.775558e-16
    endloop
  endfacet
  facet normal -1.000000e+00 -0.000000e+00 -0.000000e+00
    outer loop
      vertex   -8.837508e+01 1.726762e+02 2.000000e+00
      vertex   -8.837508e+01 1.726762e+02 2.775558e-16
      vertex   -8.837508e+01 1.596762e+02 2.000000e+00
    endloop
  endfacet
  facet normal -1.000000e+00 -0.000000e+00 -0.000000e+00
    outer loop
      vertex   -8.837508e+01 1.596762e+02 2.000000e+00
      vertex   -8.837508e+01 1.726762e+02 2.775558e-16
      vertex   -8.837508e+01 1.596762e+02 2.775558e-16
    endloop
  endfacet
  facet normal -0.000000e+00 1.000000e+00 0.000000e+00
    outer loop
      vertex   -1.048751e+02 1.421762e+02 2.000000e+00
      vertex   -1.048751e+02 1.421762e+02 7.000000e+00
      vertex   -5.587508e+01 1.421762e+02 2.000000e+00
    endloop
  endfacet
  facet normal 0.000000e+00 1.000000e+00 -0.000000e+00
    outer loop
      vertex   -5.587508e+01 1.421762e+02 2.000000e+00
      vertex   -1.048751e+02 1.421762e+02 7.000000e+00
      vertex   -5.587508e+01 1.421762e+02 7.000000e+00
    endloop
  endfacet
  facet normal 1.000000e+00 0.000000e+00 -0.000000e+00
    outer loop
      vertex   -1.048751e+02 2.331793e+02 2.000000e+00
      vertex   -1.048751e+02 2.331793e+02 7.000000e+00
      vertex   -1.048751e+02 1.876778e+02 2.000000e+00
    endloop
  endfacet
  facet normal 1.000000e+00 0.000000e+00 -0.000000e+00
    outer loop
      vertex   -1.048751e+02 1.876778e+02 2.000000e+00
      vertex   -1.048751e+02 2.331793e+02 7.000000e+00
      vertex   -1.048751e+02 1.876778e+02 7.000000e+00
    endloop
  endfacet
  facet normal 1.000000e+00 0.000000e+00 -0.000000e+00
    outer loop
      vertex   -1.048751e+02 1.421762e+02 2.000000e+00
      vertex   -1.048751e+02 1.876778e+02 7.000000e+00
      vertex   -1.048751e+02 1.421762e+02 7.000000e+00
    endloop
  endfacet
  facet normal 1.000000e+00 -0.000000e+00 0.000000e+00
    outer loop
      vertex   -1.048751e+02 1.421762e+02 2.000000e+00
      vertex   -1.048751e+02 1.876778e+02 2.000000e+00
      vertex   -1.048751e+02 1.876778e+02 7.000000e+00
    endloop
  endfacet
  facet normal -0.000000e+00 -1.000000e+00 0.000000e+00
    outer loop
      vertex   -5.587508e+01 2.331793e+02 2.000000e+00
      vertex   -5.587508e+01 2.331793e+02 7.000000e+00
      vertex   -1.048751e+02 2.331793e+02 2.000000e+00
    endloop
  endfacet
  facet normal 0.000000e+00 -1.000000e+00 0.000000e+00
    outer loop
      vertex   -1.048751e+02 2.331793e+02 2.000000e+00
      vertex   -5.587508e+01 2.331793e+02 7.000000e+00
      vertex   -1.048751e+02 2.331793e+02 7.000000e+00
    endloop
  endfacet
  facet normal -1.000000e+00 0.000000e+00 0.000000e+00
    outer loop
      vertex   -5.587508e+01 1.421762e+02 2.000000e+00
      vertex   -5.587508e+01 1.421762e+02 7.000000e+00
      vertex   -5.587508e+01 1.876778e+02 2.000000e+00
    endloop
  endfacet
  facet normal -1.000000e+00 -4.684738e-16 -4.263256e-15
    outer loop
      vertex   -5.587508e+01 1.876778e+02 2.000000e+00
      vertex   -5.587508e+01 1.421762e+02 7.000000e+00
      vertex   -5.587508e+01 1.876778e+02 7.000000e+00
    endloop
  endfacet
  facet normal -1.000000e+00 4.684738e-16 0.000000e+00
    outer loop
      vertex   -5.587508e+01 2.331793e+02 2.000000e+00
      vertex   -5.587508e+01 1.876778e+02 7.000000e+00
      vertex   -5.587508e+01 2.331793e+02 7.000000e+00
    endloop
  endfacet
  facet normal -1.000000e+00 -2.080441e-32 -4.263256e-15
    outer loop
      vertex   -5.587508e+01 2.331793e+02 2.000000e+00
      vertex   -5.587508e+01 1.876778e+02 2.000000e+00
      vertex   -5.587508e+01 1.876778e+02 7.000000e+00
    endloop
  endfacet
  facet normal -6.344135e-16 0.000000e+00 1.000000e+00
    outer loop
      vertex   -1.013751e+02 1.596762e+02 2.000000e+00
      vertex   -1.013751e+02 1.726762e+02 2.000000e+00
      vertex   -1.048751e+02 1.876778e+02 2.000000e+00
    endloop
  endfacet
  facet normal -4.001635e-16 2.927961e-17 1.000000e+00
    outer loop
      vertex   -1.048751e+02 1.421762e+02 2.000000e+00
      vertex   -1.013751e+02 1.596762e+02 2.000000e+00
      vertex   -1.048751e+02 1.876778e+02 2.000000e+00
    endloop
  endfacet
  facet normal 1.109607e-31 -5.075305e-17 1.000000e+00
    outer loop
      vertex   -1.048751e+02 1.421762e+02 2.000000e+00
      vertex   -8.837508e+01 1.596762e+02 2.000000e+00
      vertex   -1.013751e+02 1.596762e+02 2.000000e+00
    endloop
  endfacet
  facet normal 1.812609e-17 -6.784337e-17 1.000000e+00
    outer loop
      vertex   -1.048751e+02 1.421762e+02 2.000000e+00
      vertex   -5.587508e+01 1.421762e+02 2.000000e+00
      vertex   -8.837508e+01 1.596762e+02 2.000000e+00
    endloop
  endfacet
  facet normal 5.728479e-17 4.879935e-18 1.000000e+00
    outer loop
      vertex   -8.837508e+01 1.596762e+02 2.000000e+00
      vertex   -5.587508e+01 1.421762e+02 2.000000e+00
      vertex   -5.587508e+01 1.876778e+02 2.000000e+00
    endloop
  endfacet
  facet normal -4.531523e-18 1.430303e-16 1.000000e+00
    outer loop
      vertex   -8.837508e+01 1.726762e+02 2.000000e+00
      vertex   -5.587508e+01 1.876778e+02 2.000000e+00
      vertex   -1.048751e+02 1.876778e+02 2.000000e+00
    endloop
  endfacet
  facet normal -0.000000e+00 1.480144e-16 1.000000e+00
    outer loop
      vertex   -1.013751e+02 1.726762e+02 2.000000e+00
      vertex   -8.837508e+01 1.726762e+02 2.000000e+00
      vertex   -1.048751e+02 1.876778e+02 2.000000e+00
    endloop
  endfacet
  facet normal 6.148928e-17 0.000000e+00 1.000000e+00
    outer loop
      vertex   -8.837508e+01 1.726762e+02 2.000000e+00
      vertex   -8.837508e+01 1.596762e+02 2.000000e+00
      vertex   -5.587508e+01 1.876778e+02 2.000000e+00
    endloop
  endfacet
  facet normal 9.063046e-18 4.879935e-18 1.000000e+00
    outer loop
      vertex   -5.587508e+01 2.331793e+02 2.000000e+00
      vertex   -1.048751e+02 2.331793e+02 2.000000e+00
      vertex   -5.587508e+01 1.876778e+02 2.000000e+00
    endloop
  endfacet
  facet normal -4.531523e-18 -9.759870e-18 1.000000e+00
    outer loop
      vertex   -5.587508e+01 1.876778e+02 2.000000e+00
      vertex   -1.048751e+02 2.331793e+02 2.000000e+00
      vertex   -1.048751e+02 1.876778e+02 2.000000e+00
    endloop
  endfacet
  facet normal 0.000000e+00 8.881781e-16 1.000000e+00
    outer loop
      vertex   -1.048751e+02 1.421762e+02 7.000000e+00
      vertex   -5.387508e+01 1.401762e+02 7.000000e+00
      vertex   -5.587508e+01 1.421762e+02 7.000000e+00
    endloop
  endfacet
  facet normal 1.262726e-23 8.881784e-16 1.000000e+00
    outer loop
      vertex   -1.048751e+02 1.421762e+02 7.000000e+00
      vertex   -1.068751e+02 1.401762e+02 7.000000e+00
      vertex   -5.387508e+01 1.401762e+02 7.000000e+00
    endloop
  endfacet
  facet normal 8.881776e-16 0.000000e+00 1.000000e+00
    outer loop
      vertex   -1.048751e+02 1.421762e+02 7.000000e+00
      vertex   -1.068751e+02 1.876778e+02 7.000000e+00
      vertex   -1.068751e+02 1.401762e+02 7.000000e+00
    endloop
  endfacet
  facet normal -5.547839e-31 -3.903948e-17 1.000000e+00
    outer loop
      vertex   -1.048751e+02 1.421762e+02 7.000000e+00
      vertex   -1.048751e+02 1.876778e+02 7.000000e+00
      vertex   -1.068751e+02 1.876778e+02 7.000000e+00
    endloop
  endfacet
  facet normal 5.547839e-31 3.903948e-17 1.000000e+00
    outer loop
      vertex   -1.068751e+02 1.876778e+02 7.000000e+00
      vertex   -1.048751e+02 1.876778e+02 7.000000e+00
      vertex   -1.048751e+02 2.331793e+02 7.000000e+00
    endloop
  endfacet
  facet normal 0.000000e+00 -8.881784e-16 1.000000e+00
    outer loop
      vertex   -1.068751e+02 2.351793e+02 7.000000e+00
      vertex   -1.048751e+02 2.331793e+02 7.000000e+00
      vertex   -5.387508e+01 2.351793e+02 7.000000e+00
    endloop
  endfacet
  facet normal 8.881776e-16 0.000000e+00 1.000000e+00
    outer loop
      vertex   -1.068751e+02 2.351793e+02 7.000000e+00
      vertex   -1.068751e+02 1.876778e+02 7.000000e+00
      vertex   -1.048751e+02 2.331793e+02 7.000000e+00
    endloop
  endfacet
  facet normal 0.000000e+00 -8.881784e-16 1.000000e+00
    outer loop
      vertex   -1.048751e+02 2.331793e+02 7.000000e+00
      vertex   -5.587508e+01 2.331793e+02 7.000000e+00
      vertex   -5.387508e+01 2.351793e+02 7.000000e+00
    endloop
  endfacet
  facet normal -8.881784e-16 0.000000e+00 1.000000e+00
    outer loop
      vertex   -5.387508e+01 2.351793e+02 7.000000e+00
      vertex   -5.587508e+01 2.331793e+02 7.000000e+00
      vertex   -5.387508e+01 1.876778e+02 7.000000e+00
    endloop
  endfacet
  facet normal 7.354084e-24 3.903948e-17 1.000000e+00
    outer loop
      vertex   -5.387508e+01 1.876778e+02 7.000000e+00
      vertex   -5.587508e+01 2.331793e+02 7.000000e+00
      vertex   -5.587508e+01 1.876778e+02 7.000000e+00
    endloop
  endfacet
  facet normal -7.354084e-24 -3.903948e-17 1.000000e+00
    outer loop
      vertex   -5.587508e+01 1.421762e+02 7.000000e+00
      vertex   -5.387508e+01 1.876778e+02 7.000000e+00
      vertex   -5.587508e+01 1.876778e+02 7.000000e+00
    endloop
  endfacet
  facet normal -8.881784e-16 0.000000e+00 1.000000e+00
    outer loop
      vertex   -5.587508e+01 1.421762e+02 7.000000e+00
      vertex   -5.387508e+01 1.401762e+02 7.000000e+00
      vertex   -5.387508e+01 1.876778e+02 7.000000e+00
    endloop
  endfacet
  facet normal 0.000000e+00 -1.000000e+00 1.076432e-07
    outer loop
      vertex   -1.068751e+02 1.401762e+02 7.077672e-14
      vertex   -5.387508e+01 1.401762e+02 7.077672e-14
      vertex   -1.068751e+02 1.401762e+02 7.000000e+00
    endloop
  endfacet
  facet normal -1.421703e-08 -1.000000e+00 0.000000e+00
    outer loop
      vertex   -1.068751e+02 1.401762e+02 7.000000e+00
      vertex   -5.387508e+01 1.401762e+02 7.077672e-14
      vertex   -5.387508e+01 1.401762e+02 7.000000e+00
    endloop
  endfacet
  facet normal -1.000000e+00 0.000000e+00 1.363567e-07
    outer loop
      vertex   -1.068751e+02 2.351793e+02 7.000000e+00
      vertex   -1.068751e+02 2.351793e+02 7.077672e-14
      vertex   -1.068751e+02 1.876778e+02 7.000000e+00
    endloop
  endfacet
  facet normal -1.000000e+00 0.000000e+00 1.363567e-07
    outer loop
      vertex   -1.068751e+02 1.876778e+02 7.000000e+00
      vertex   -1.068751e+02 2.351793e+02 7.077672e-14
      vertex   -1.068751e+02 1.876778e+02 7.077672e-14
    endloop
  endfacet
  facet normal -1.000000e+00 5.019175e-08 4.769547e-07
    outer loop
      vertex   -1.068751e+02 1.401762e+02 7.000000e+00
      vertex   -1.068751e+02 1.876778e+02 7.077672e-14
      vertex   -1.068751e+02 1.401762e+02 7.077672e-14
    endloop
  endfacet
  facet normal -1.000000e+00 0.000000e+00 1.363567e-07
    outer loop
      vertex   -1.068751e+02 1.401762e+02 7.000000e+00
      vertex   -1.068751e+02 1.876778e+02 7.000000e+00
      vertex   -1.068751e+02 1.876778e+02 7.077672e-14
    endloop
  endfacet
  facet normal 0.000000e+00 1.000000e+00 0.000000e+00
    outer loop
      vertex   -5.387508e+01 2.351793e+02 7.000000e+00
      vertex   -5.387508e+01 2.351793e+02 7.077672e-14
      vertex   -1.068751e+02 2.351793e+02 7.000000e+00
    endloop
  endfacet
  facet normal 0.000000e+00 1.000000e+00 0.000000e+00
    outer loop
      vertex   -1.068751e+02 2.351793e+02 7.000000e+00
      vertex   -5.387508e+01 2.351793e+02 7.077672e-14
      vertex   -1.068751e+02 2.351793e+02 7.077672e-14
    endloop
  endfacet
  facet normal 1.000000e+00 -0.000000e+00 0.000000e+00
    outer loop
      vertex   -5.387508e+01 1.401762e+02 7.000000e+00
      vertex   -5.387508e+01 1.401762e+02 7.077672e-14
      vertex   -5.387508e+01 1.876778e+02 7.000000e+00
    endloop
  endfacet
  facet normal 1.000000e+00 -0.000000e+00 0.000000e+00
    outer loop
      vertex   -5.387508e+01 1.876778e+02 7.000000e+00
      vertex   -5.387508e+01 1.401762e+02 7.077672e-14
      vertex   -5.387508e+01 1.876778e+02 7.077672e-14
    endloop
  endfacet
  facet normal 1.000000e+00 -0.000000e+00 0.000000e+00
    outer loop
      vertex   -5.387508e+01 2.351793e+02 7.000000e+00
      vertex   -5.387508e+01 1.876778e+02 7.077672e-14
      vertex   -5.387508e+01 2.351793e+02 7.077672e-14
    endloop
  endfacet
  facet normal 1.000000e+00 0.000000e+00 0.000000e+00
    outer loop
      vertex   -5.387508e+01 2.351793e+02 7.000000e+00
      vertex   -5.387508e+01 1.876778e+02 7.000000e+00
      vertex   -5.387508e+01 1.876778e+02 7.077672e-14
    endloop
  endfacet
  facet normal 0.000000e+00 -1.000000e+00 0.000000e+00
    outer loop
      vertex   -1.013751e+02 1.726762e+02 2.000000e+00
      vertex   -1.013751e+02 1.726762e+02 2.775558e-16
      vertex   -8.837508e+01 1.726762e+02 2.000000e+00
    endloop
  endfacet
  facet normal 0.000000e+00 -1.000000e+00 -0.000000e+00
    outer loop
      vertex   -8.837508e+01 1.726762e+02 2.000000e+00
      vertex   -1.013751e+02 1.726762e+02 2.775558e-16
      vertex   -8.837508e+01 1.726762e+02 2.775558e-16
    endloop
  endfacet
  facet normal 1.000000e+00 -0.000000e+00 0.000000e+00
    outer loop
      vertex   -1.013751e+02 1.596762e+02 2.000000e+00
      vertex   -1.013751e+02 1.596762e+02 2.775558e-16
      vertex   -1.013751e+02 1.726762e+02 2.000000e+00
    endloop
  endfacet
  facet normal 1.000000e+00 -0.000000e+00 0.000000e+00
    outer loop
      vertex   -1.013751e+02 1.726762e+02 2.000000e+00
      vertex   -1.013751e+02 1.596762e+02 2.775558e-16
      vertex   -1.013751e+02 1.726762e+02 2.775558e-16
    endloop
  endfacet
  facet normal 0.000000e+00 4.699458e-15 -1.000000e+00
    outer loop
      vertex   -1.013751e+02 1.726762e+02 2.775558e-16
      vertex   -1.068751e+02 1.876778e+02 7.077672e-14
      vertex   -8.837508e+01 1.726762e+02 2.775558e-16
    endloop
  endfacet
  facet normal -1.281803e-14 -0.000000e+00 -1.000000e+00
    outer loop
      vertex   -1.013751e+02 1.726762e+02 2.775558e-16
      vertex   -1.013751e+02 1.596762e+02 2.775558e-16
      vertex   -1.068751e+02 1.876778e+02 7.077672e-14
    endloop
  endfacet
  facet normal -1.281802e-14 6.433590e-22 -1.000000e+00
    outer loop
      vertex   -1.068751e+02 1.876778e+02 7.077672e-14
      vertex   -1.013751e+02 1.596762e+02 2.775558e-16
      vertex   -1.068751e+02 1.401762e+02 7.077672e-14
    endloop
  endfacet
  facet normal 7.904169e-30 -3.615342e-15 -1.000000e+00
    outer loop
      vertex   -1.068751e+02 1.401762e+02 7.077672e-14
      vertex   -1.013751e+02 1.596762e+02 2.775558e-16
      vertex   -8.837508e+01 1.596762e+02 2.775558e-16
    endloop
  endfacet
  facet normal 2.043454e-15 0.000000e+00 -1.000000e+00
    outer loop
      vertex   -5.387508e+01 1.401762e+02 7.077672e-14
      vertex   -8.837508e+01 1.596762e+02 2.775558e-16
      vertex   -5.387508e+01 1.876778e+02 7.077672e-14
    endloop
  endfacet
  facet normal -0.000000e+00 -3.615342e-15 -1.000000e+00
    outer loop
      vertex   -5.387508e+01 1.401762e+02 7.077672e-14
      vertex   -1.068751e+02 1.401762e+02 7.077672e-14
      vertex   -8.837508e+01 1.596762e+02 2.775558e-16
    endloop
  endfacet
  facet normal 2.043454e-15 0.000000e+00 -1.000000e+00
    outer loop
      vertex   -8.837508e+01 1.596762e+02 2.775558e-16
      vertex   -8.837508e+01 1.726762e+02 2.775558e-16
      vertex   -5.387508e+01 1.876778e+02 7.077672e-14
    endloop
  endfacet
  facet normal 2.539969e-30 4.699458e-15 -1.000000e+00
    outer loop
      vertex   -5.387508e+01 1.876778e+02 7.077672e-14
      vertex   -8.837508e+01 1.726762e+02 2.775558e-16
      vertex   -1.068751e+02 1.876778e+02 7.077672e-14
    endloop
  endfacet
  facet normal -0.000000e+00 0.000000e+00 -1.000000e+00
    outer loop
      vertex   -5.387508e+01 2.351793e+02 7.077672e-14
      vertex   -1.068751e+02 1.876778e+02 7.077672e-14
      vertex   -1.068751e+02 2.351793e+02 7.077672e-14
    endloop
  endfacet
  facet normal -0.000000e+00 -0.000000e+00 -1.000000e+00
    outer loop
      vertex   -5.387508e+01 2.351793e+02 7.077672e-14
      vertex   -5.387508e+01 1.876778e+02 7.077672e-14
      vertex   -1.068751e+02 1.876778e+02 7.077672e-14
    endloop
  endfacet
endsolid
