solid ascii
  facet normal 0.000000e+00 1.000000e+00 -3.496992e-07
    outer loop
      vertex   -5.761889e+01 1.111956e+02 2.000000e+00
      vertex   -5.761889e+01 1.111956e+02 1.400000e+01
      vertex   -4.361889e+01 1.111956e+02 1.400000e+01
    endloop
  endfacet
  facet normal 2.755119e-07 1.000000e+00 0.000000e+00
    outer loop
      vertex   -2.838764e+01 1.111956e+02 2.000000e+00
      vertex   -4.361889e+01 1.111956e+02 1.400000e+01
      vertex   -2.838764e+01 1.111956e+02 1.400000e+01
    endloop
  endfacet
  facet normal -2.139187e-15 1.000000e+00 -3.496992e-07
    outer loop
      vertex   -2.838764e+01 1.111956e+02 2.000000e+00
      vertex   -5.761889e+01 1.111956e+02 2.000000e+00
      vertex   -4.361889e+01 1.111956e+02 1.400000e+01
    endloop
  endfacet
  facet normal 0.000000e+00 1.000000e+00 0.000000e+00
    outer loop
      vertex   -4.361889e+01 1.111956e+02 2.100000e+01
      vertex   -4.361889e+01 1.111956e+02 1.400000e+01
      vertex   -5.761889e+01 1.111956e+02 2.100000e+01
    endloop
  endfacet
  facet normal 0.000000e+00 1.000000e+00 0.000000e+00
    outer loop
      vertex   -5.761889e+01 1.111956e+02 2.100000e+01
      vertex   -4.361889e+01 1.111956e+02 1.400000e+01
      vertex   -5.761889e+01 1.111956e+02 1.400000e+01
    endloop
  endfacet
  facet normal 1.000000e+00 -9.461327e-07 0.000000e+00
    outer loop
      vertex   -4.361889e+01 1.111956e+02 1.400000e+01
      vertex   -4.361889e+01 1.111956e+02 2.100000e+01
      vertex   -4.361889e+01 1.091796e+02 1.400000e+01
    endloop
  endfacet
  facet normal 1.000000e+00 0.000000e+00 -2.724784e-07
    outer loop
      vertex   -4.361889e+01 1.091796e+02 1.400000e+01
      vertex   -4.361889e+01 1.111956e+02 2.100000e+01
      vertex   -4.361889e+01 1.081992e+02 2.100000e+01
    endloop
  endfacet
  facet normal 1.000000e+00 -1.120682e-07 0.000000e+00
    outer loop
      vertex   -4.361889e+01 9.117964e+01 2.000000e+00
      vertex   -4.361889e+01 1.081992e+02 2.100000e+01
      vertex   -4.361889e+01 9.117964e+01 3.700000e+01
    endloop
  endfacet
  facet normal 1.000000e+00 1.661386e-07 -2.492079e-07
    outer loop
      vertex   -4.361889e+01 9.117964e+01 2.000000e+00
      vertex   -4.361889e+01 1.091796e+02 1.400000e+01
      vertex   -4.361889e+01 1.081992e+02 2.100000e+01
    endloop
  endfacet
  facet normal 1.000000e+00 0.000000e+00 0.000000e+00
    outer loop
      vertex   -4.361889e+01 9.117964e+01 2.000000e+00
      vertex   -4.361889e+01 1.091796e+02 2.000000e+00
      vertex   -4.361889e+01 1.091796e+02 1.400000e+01
    endloop
  endfacet
  facet normal 1.000000e+00 0.000000e+00 1.192093e-07
    outer loop
      vertex   -4.361889e+01 1.081992e+02 2.100000e+01
      vertex   -4.361889e+01 1.081992e+02 3.700000e+01
      vertex   -4.361889e+01 9.117964e+01 3.700000e+01
    endloop
  endfacet
  facet normal -0.000000e+00 -1.000000e+00 0.000000e+00
    outer loop
      vertex   -4.361889e+01 9.117964e+01 2.000000e+00
      vertex   -4.361889e+01 9.117964e+01 3.700000e+01
      vertex   -4.561889e+01 9.117964e+01 2.000000e+00
    endloop
  endfacet
  facet normal 0.000000e+00 -1.000000e+00 0.000000e+00
    outer loop
      vertex   -4.561889e+01 9.117964e+01 2.000000e+00
      vertex   -4.361889e+01 9.117964e+01 3.700000e+01
      vertex   -4.561889e+01 9.117964e+01 3.700000e+01
    endloop
  endfacet
  facet normal -1.000000e+00 0.000000e+00 0.000000e+00
    outer loop
      vertex   -4.561889e+01 9.117964e+01 2.000000e+00
      vertex   -4.561889e+01 9.117964e+01 3.700000e+01
      vertex   -4.561889e+01 1.061992e+02 2.000000e+00
    endloop
  endfacet
  facet normal -1.000000e+00 0.000000e+00 0.000000e+00
    outer loop
      vertex   -4.561889e+01 1.061992e+02 2.000000e+00
      vertex   -4.561889e+01 9.117964e+01 3.700000e+01
      vertex   -4.561889e+01 1.061992e+02 3.700000e+01
    endloop
  endfacet
  facet normal 0.000000e+00 -1.000000e+00 -4.535918e-08
    outer loop
      vertex   -1.361889e+01 1.141796e+02 2.000000e+00
      vertex   -1.361889e+01 1.141796e+02 3.700000e+01
      vertex   -5.761889e+01 1.141796e+02 2.000000e+00
    endloop
  endfacet
  facet normal 1.029535e-07 -1.000000e+00 -1.747864e-07
    outer loop
      vertex   -5.761889e+01 1.141796e+02 2.000000e+00
      vertex   -1.361889e+01 1.141796e+02 3.700000e+01
      vertex   -5.761889e+01 1.141796e+02 3.700000e+01
    endloop
  endfacet
  facet normal -0.000000e+00 1.000000e+00 0.000000e+00
    outer loop
      vertex   -5.761889e+01 1.181796e+02 3.700000e+01
      vertex   -9.618890e+00 1.181796e+02 3.700000e+01
      vertex   -5.761889e+01 1.181796e+02 -2.000000e+00
    endloop
  endfacet
  facet normal -0.000000e+00 1.000000e+00 0.000000e+00
    outer loop
      vertex   -5.761889e+01 1.181796e+02 -2.000000e+00
      vertex   -9.618890e+00 1.181796e+02 3.700000e+01
      vertex   -9.618890e+00 1.181796e+02 -2.000000e+00
    endloop
  endfacet
  facet normal 1.000000e+00 -0.000000e+00 0.000000e+00
    outer loop
      vertex   -2.838764e+01 1.091796e+02 1.400000e+01
      vertex   -2.838764e+01 1.091796e+02 2.000000e+00
      vertex   -2.838764e+01 1.111956e+02 1.400000e+01
    endloop
  endfacet
  facet normal 1.000000e+00 -0.000000e+00 0.000000e+00
    outer loop
      vertex   -2.838764e+01 1.111956e+02 1.400000e+01
      vertex   -2.838764e+01 1.091796e+02 2.000000e+00
      vertex   -2.838764e+01 1.111956e+02 2.000000e+00
    endloop
  endfacet
  facet normal -0.000000e+00 -1.000000e+00 0.000000e+00
    outer loop
      vertex   -2.838764e+01 1.091796e+02 2.000000e+00
      vertex   -2.838764e+01 1.091796e+02 1.400000e+01
      vertex   -4.361889e+01 1.091796e+02 2.000000e+00
    endloop
  endfacet
  facet normal 0.000000e+00 -1.000000e+00 0.000000e+00
    outer loop
      vertex   -4.361889e+01 1.091796e+02 2.000000e+00
      vertex   -2.838764e+01 1.091796e+02 1.400000e+01
      vertex   -4.361889e+01 1.091796e+02 1.400000e+01
    endloop
  endfacet
  facet normal -2.739314e-08 2.069666e-07 1.000000e+00
    outer loop
      vertex   -4.361889e+01 1.111956e+02 1.400000e+01
      vertex   -4.361889e+01 1.091796e+02 1.400000e+01
      vertex   -2.838764e+01 1.111956e+02 1.400000e+01
    endloop
  endfacet
  facet normal -0.000000e+00 0.000000e+00 1.000000e+00
    outer loop
      vertex   -2.838764e+01 1.111956e+02 1.400000e+01
      vertex   -4.361889e+01 1.091796e+02 1.400000e+01
      vertex   -2.838764e+01 1.091796e+02 1.400000e+01
    endloop
  endfacet
  facet normal 0.000000e+00 -0.000000e+00 1.000000e+00
    outer loop
      vertex   -4.361889e+01 1.081992e+02 2.100000e+01
      vertex   -4.361889e+01 1.111956e+02 2.100000e+01
      vertex   -5.761889e+01 1.081992e+02 2.100000e+01
    endloop
  endfacet
  facet normal 0.000000e+00 -0.000000e+00 1.000000e+00
    outer loop
      vertex   -5.761889e+01 1.081992e+02 2.100000e+01
      vertex   -4.361889e+01 1.111956e+02 2.100000e+01
      vertex   -5.761889e+01 1.111956e+02 2.100000e+01
    endloop
  endfacet
  facet normal 0.000000e+00 1.000000e+00 -0.000000e+00
    outer loop
      vertex   -4.361889e+01 1.081992e+02 2.100000e+01
      vertex   -5.761889e+01 1.081992e+02 2.100000e+01
      vertex   -4.361889e+01 1.081992e+02 3.700000e+01
    endloop
  endfacet
  facet normal 0.000000e+00 1.000000e+00 -0.000000e+00
    outer loop
      vertex   -4.361889e+01 1.081992e+02 3.700000e+01
      vertex   -5.761889e+01 1.081992e+02 2.100000e+01
      vertex   -5.761889e+01 1.081992e+02 3.700000e+01
    endloop
  endfacet
  facet normal -0.000000e+00 -1.000000e+00 0.000000e+00
    outer loop
      vertex   -4.561889e+01 1.061992e+02 2.000000e+00
      vertex   -4.561889e+01 1.061992e+02 3.700000e+01
      vertex   -5.461889e+01 1.061992e+02 2.000000e+00
    endloop
  endfacet
  facet normal 0.000000e+00 -1.000000e+00 0.000000e+00
    outer loop
      vertex   -5.461889e+01 1.061992e+02 2.000000e+00
      vertex   -4.561889e+01 1.061992e+02 3.700000e+01
      vertex   -5.461889e+01 1.061992e+02 3.700000e+01
    endloop
  endfacet
  facet normal -1.000000e+00 -2.537427e-16 4.105152e-23
    outer loop
      vertex   -1.361889e+01 7.917653e+01 2.000000e+00
      vertex   -1.361889e+01 7.917653e+01 3.000000e+01
      vertex   -1.361889e+01 1.141796e+02 2.000000e+00
    endloop
  endfacet
  facet normal -1.000000e+00 -1.725451e-16 1.015061e-16
    outer loop
      vertex   -1.361889e+01 1.141796e+02 2.000000e+00
      vertex   -1.361889e+01 7.917653e+01 3.000000e+01
      vertex   -1.361889e+01 1.141796e+02 3.700000e+01
    endloop
  endfacet
  facet normal -1.000000e+00 -1.522456e-16 -9.852365e-23
    outer loop
      vertex   -1.361889e+01 1.141796e+02 3.700000e+01
      vertex   -1.361889e+01 7.917653e+01 3.000000e+01
      vertex   -1.361889e+01 7.917653e+01 3.700000e+01
    endloop
  endfacet
  facet normal -1.973730e-16 -1.182698e-16 1.000000e+00
    outer loop
      vertex   -4.561889e+01 1.061992e+02 2.000000e+00
      vertex   -5.461889e+01 1.061992e+02 2.000000e+00
      vertex   -4.561889e+01 9.117964e+01 2.000000e+00
    endloop
  endfacet
  facet normal 8.227687e-17 4.930192e-17 1.000000e+00
    outer loop
      vertex   -4.561889e+01 9.117964e+01 2.000000e+00
      vertex   -5.461889e+01 1.061992e+02 2.000000e+00
      vertex   -5.461889e+01 7.917654e+01 2.000000e+00
    endloop
  endfacet
  facet normal 0.000000e+00 1.109936e-16 1.000000e+00
    outer loop
      vertex   -4.994481e+01 7.917654e+01 2.000000e+00
      vertex   -4.561889e+01 9.117964e+01 2.000000e+00
      vertex   -5.461889e+01 7.917654e+01 2.000000e+00
    endloop
  endfacet
  facet normal 2.537653e-16 1.953657e-17 1.000000e+00
    outer loop
      vertex   -4.994481e+01 7.917654e+01 2.000000e+00
      vertex   -4.644481e+01 7.917653e+01 2.000000e+00
      vertex   -4.561889e+01 9.117964e+01 2.000000e+00
    endloop
  endfacet
  facet normal -1.662826e-12 -1.525882e-06 1.000000e+00
    outer loop
      vertex   -4.994481e+01 7.917654e+01 2.000000e+00
      vertex   -4.769481e+01 7.792654e+01 1.999998e+00
      vertex   -4.644481e+01 7.917653e+01 2.000000e+00
    endloop
  endfacet
  facet normal 0.000000e+00 -1.525879e-06 1.000000e+00
    outer loop
      vertex   -4.994481e+01 7.917654e+01 2.000000e+00
      vertex   -4.869481e+01 7.792654e+01 1.999998e+00
      vertex   -4.769481e+01 7.792654e+01 1.999998e+00
    endloop
  endfacet
  facet normal 0.000000e+00 0.000000e+00 1.000000e+00
    outer loop
      vertex   -4.769481e+01 7.792654e+01 1.999998e+00
      vertex   -4.869481e+01 7.792654e+01 1.999998e+00
      vertex   -4.794481e+01 7.742654e+01 1.999998e+00
    endloop
  endfacet
  facet normal 0.000000e+00 0.000000e+00 1.000000e+00
    outer loop
      vertex   -4.292057e+01 7.742654e+01 1.999998e+00
      vertex   -4.769481e+01 7.792654e+01 1.999998e+00
      vertex   -4.794481e+01 7.742654e+01 1.999998e+00
    endloop
  endfacet
  facet normal 0.000000e+00 -0.000000e+00 1.000000e+00
    outer loop
      vertex   -4.292057e+01 7.742654e+01 1.999998e+00
      vertex   -4.292057e+01 7.792654e+01 1.999998e+00
      vertex   -4.769481e+01 7.792654e+01 1.999998e+00
    endloop
  endfacet
  facet normal -0.000000e+00 0.000000e+00 1.000000e+00
    outer loop
      vertex   -5.292057e+01 7.792654e+01 1.999998e+00
      vertex   -5.292057e+01 7.742654e+01 1.999998e+00
      vertex   -4.869481e+01 7.792654e+01 1.999998e+00
    endloop
  endfacet
  facet normal -0.000000e+00 0.000000e+00 1.000000e+00
    outer loop
      vertex   -4.869481e+01 7.792654e+01 1.999998e+00
      vertex   -5.292057e+01 7.742654e+01 1.999998e+00
      vertex   -4.844481e+01 7.742654e+01 1.999998e+00
    endloop
  endfacet
  facet normal 0.000000e+00 1.525879e-06 1.000000e+00
    outer loop
      vertex   -4.794481e+01 7.742654e+01 1.999998e+00
      vertex   -4.844481e+01 7.742654e+01 1.999998e+00
      vertex   -4.794481e+01 7.617654e+01 2.000000e+00
    endloop
  endfacet
  facet normal 0.000000e+00 0.000000e+00 1.000000e+00
    outer loop
      vertex   -4.794481e+01 7.742654e+01 1.999998e+00
      vertex   -4.869481e+01 7.792654e+01 1.999998e+00
      vertex   -4.844481e+01 7.742654e+01 1.999998e+00
    endloop
  endfacet
  facet normal -0.000000e+00 1.525879e-06 1.000000e+00
    outer loop
      vertex   -4.844481e+01 7.742654e+01 1.999998e+00
      vertex   -4.844481e+01 7.617654e+01 2.000000e+00
      vertex   -4.794481e+01 7.617654e+01 2.000000e+00
    endloop
  endfacet
  facet normal 0.000000e+00 0.000000e+00 1.000000e+00
    outer loop
      vertex   -4.794481e+01 7.617654e+01 2.000000e+00
      vertex   -4.844481e+01 7.617654e+01 2.000000e+00
      vertex   -4.794481e+01 6.617654e+01 2.000000e+00
    endloop
  endfacet
  facet normal 0.000000e+00 0.000000e+00 1.000000e+00
    outer loop
      vertex   -4.161890e+01 6.617654e+01 2.000000e+00
      vertex   -4.794481e+01 7.617654e+01 2.000000e+00
      vertex   -4.794481e+01 6.617654e+01 2.000000e+00
    endloop
  endfacet
  facet normal 0.000000e+00 -0.000000e+00 1.000000e+00
    outer loop
      vertex   -4.161890e+01 6.617654e+01 2.000000e+00
      vertex   -4.161890e+01 7.617654e+01 2.000000e+00
      vertex   -4.794481e+01 7.617654e+01 2.000000e+00
    endloop
  endfacet
  facet normal -8.881784e-16 -4.440892e-17 1.000000e+00
    outer loop
      vertex   -4.794481e+01 6.617654e+01 2.000000e+00
      vertex   -4.844481e+01 7.617654e+01 2.000000e+00
      vertex   -4.844481e+01 6.617654e+01 2.000000e+00
    endloop
  endfacet
  facet normal -8.881784e-16 0.000000e+00 1.000000e+00
    outer loop
      vertex   -4.794481e+01 6.417654e+01 2.000000e+00
      vertex   -4.844481e+01 6.617654e+01 2.000000e+00
      vertex   -4.844481e+01 6.417654e+01 2.000000e+00
    endloop
  endfacet
  facet normal 0.000000e+00 3.416071e-17 1.000000e+00
    outer loop
      vertex   -4.669481e+01 5.117654e+01 2.000000e+00
      vertex   -4.844481e+01 6.417654e+01 2.000000e+00
      vertex   -4.969481e+01 5.117654e+01 2.000000e+00
    endloop
  endfacet
  facet normal 0.000000e+00 0.000000e+00 1.000000e+00
    outer loop
      vertex   -4.669481e+01 4.417654e+01 2.000000e+00
      vertex   -4.969481e+01 5.117654e+01 2.000000e+00
      vertex   -4.969481e+01 4.417654e+01 2.000000e+00
    endloop
  endfacet
  facet normal -4.509363e-16 -1.068008e-30 1.000000e+00
    outer loop
      vertex   -5.461889e+01 3.817640e+01 2.000000e+00
      vertex   -4.969481e+01 4.417654e+01 2.000000e+00
      vertex   -5.461889e+01 4.417654e+01 2.000000e+00
    endloop
  endfacet
  facet normal 0.000000e+00 -3.700660e-16 1.000000e+00
    outer loop
      vertex   -5.461889e+01 3.817640e+01 2.000000e+00
      vertex   -4.669481e+01 4.417654e+01 2.000000e+00
      vertex   -4.969481e+01 4.417654e+01 2.000000e+00
    endloop
  endfacet
  facet normal 0.000000e+00 -3.700660e-16 1.000000e+00
    outer loop
      vertex   -5.461889e+01 3.817640e+01 2.000000e+00
      vertex   -3.911889e+01 4.417654e+01 2.000000e+00
      vertex   -4.669481e+01 4.417654e+01 2.000000e+00
    endloop
  endfacet
  facet normal -5.415722e-17 -2.301630e-16 1.000000e+00
    outer loop
      vertex   -5.461889e+01 3.817640e+01 2.000000e+00
      vertex   -1.361889e+01 3.817640e+01 2.000000e+00
      vertex   -3.911889e+01 4.417654e+01 2.000000e+00
    endloop
  endfacet
  facet normal 4.286574e-16 1.821753e-15 1.000000e+00
    outer loop
      vertex   -3.911889e+01 4.417654e+01 2.000000e+00
      vertex   -1.361889e+01 3.817640e+01 2.000000e+00
      vertex   -1.361889e+01 7.717964e+01 2.000000e+00
    endloop
  endfacet
  facet normal 7.012314e-09 -5.418095e-09 1.000000e+00
    outer loop
      vertex   -3.911889e+01 7.717964e+01 2.000000e+00
      vertex   -3.911889e+01 4.417654e+01 2.000000e+00
      vertex   -1.361889e+01 7.717964e+01 2.000000e+00
    endloop
  endfacet
  facet normal -7.192801e-17 1.332268e-16 1.000000e+00
    outer loop
      vertex   -5.461889e+01 6.617654e+01 2.000000e+00
      vertex   -4.844481e+01 6.617654e+01 2.000000e+00
      vertex   -5.461889e+01 7.617654e+01 2.000000e+00
    endloop
  endfacet
  facet normal -3.596400e-16 -4.440892e-17 1.000000e+00
    outer loop
      vertex   -5.461889e+01 7.617654e+01 2.000000e+00
      vertex   -4.844481e+01 6.617654e+01 2.000000e+00
      vertex   -4.844481e+01 7.617654e+01 2.000000e+00
    endloop
  endfacet
  facet normal -8.881784e-16 0.000000e+00 1.000000e+00
    outer loop
      vertex   -4.794481e+01 6.617654e+01 2.000000e+00
      vertex   -4.844481e+01 6.617654e+01 2.000000e+00
      vertex   -4.794481e+01 6.417654e+01 2.000000e+00
    endloop
  endfacet
  facet normal 7.192800e-17 2.724455e-17 1.000000e+00
    outer loop
      vertex   -4.844481e+01 6.417654e+01 2.000000e+00
      vertex   -5.461889e+01 6.417654e+01 2.000000e+00
      vertex   -4.969481e+01 5.117654e+01 2.000000e+00
    endloop
  endfacet
  facet normal 0.000000e+00 0.000000e+00 1.000000e+00
    outer loop
      vertex   -4.969481e+01 5.117654e+01 2.000000e+00
      vertex   -5.461889e+01 6.417654e+01 2.000000e+00
      vertex   -5.461889e+01 5.117654e+01 2.000000e+00
    endloop
  endfacet
  facet normal 0.000000e+00 0.000000e+00 1.000000e+00
    outer loop
      vertex   -4.669481e+01 5.117654e+01 2.000000e+00
      vertex   -4.969481e+01 5.117654e+01 2.000000e+00
      vertex   -4.669481e+01 4.417654e+01 2.000000e+00
    endloop
  endfacet
  facet normal 0.000000e+00 -0.000000e+00 1.000000e+00
    outer loop
      vertex   -4.161889e+01 5.117654e+01 2.000000e+00
      vertex   -4.161889e+01 6.417654e+01 2.000000e+00
      vertex   -4.669481e+01 5.117654e+01 2.000000e+00
    endloop
  endfacet
  facet normal 0.000000e+00 -0.000000e+00 1.000000e+00
    outer loop
      vertex   -4.669481e+01 5.117654e+01 2.000000e+00
      vertex   -4.161889e+01 6.417654e+01 2.000000e+00
      vertex   -4.794481e+01 6.417654e+01 2.000000e+00
    endloop
  endfacet
  facet normal -8.881784e-16 -8.540177e-17 1.000000e+00
    outer loop
      vertex   -4.844481e+01 6.417654e+01 2.000000e+00
      vertex   -4.669481e+01 5.117654e+01 2.000000e+00
      vertex   -4.794481e+01 6.417654e+01 2.000000e+00
    endloop
  endfacet
  facet normal 0.000000e+00 3.699786e-17 1.000000e+00
    outer loop
      vertex   -4.561889e+01 9.117964e+01 2.000000e+00
      vertex   -4.644481e+01 7.917653e+01 2.000000e+00
      vertex   -4.361889e+01 9.117964e+01 2.000000e+00
    endloop
  endfacet
  facet normal 6.061889e-17 2.272621e-17 1.000000e+00
    outer loop
      vertex   -4.361889e+01 9.117964e+01 2.000000e+00
      vertex   -4.644481e+01 7.917653e+01 2.000000e+00
      vertex   -3.911889e+01 7.917654e+01 2.000000e+00
    endloop
  endfacet
  facet normal -7.012312e-09 -2.628938e-09 1.000000e+00
    outer loop
      vertex   -1.361889e+01 7.917653e+01 2.000000e+00
      vertex   -4.361889e+01 9.117964e+01 2.000000e+00
      vertex   -3.911889e+01 7.917654e+01 2.000000e+00
    endloop
  endfacet
  facet normal -4.452892e-09 3.767954e-09 1.000000e+00
    outer loop
      vertex   -1.361889e+01 7.917653e+01 2.000000e+00
      vertex   -2.838764e+01 1.091796e+02 2.000000e+00
      vertex   -4.361889e+01 9.117964e+01 2.000000e+00
    endloop
  endfacet
  facet normal -1.210759e-08 -3.072213e-24 1.000000e+00
    outer loop
      vertex   -1.361889e+01 7.917653e+01 2.000000e+00
      vertex   -1.361889e+01 1.141796e+02 2.000000e+00
      vertex   -2.838764e+01 1.091796e+02 2.000000e+00
    endloop
  endfacet
  facet normal -1.210759e-08 0.000000e+00 1.000000e+00
    outer loop
      vertex   -2.838764e+01 1.091796e+02 2.000000e+00
      vertex   -1.361889e+01 1.141796e+02 2.000000e+00
      vertex   -2.838764e+01 1.111956e+02 2.000000e+00
    endloop
  endfacet
  facet normal 0.000000e+00 -5.992302e-08 1.000000e+00
    outer loop
      vertex   -2.838764e+01 1.111956e+02 2.000000e+00
      vertex   -1.361889e+01 1.141796e+02 2.000000e+00
      vertex   -5.761889e+01 1.141796e+02 2.000000e+00
    endloop
  endfacet
  facet normal 6.117220e-09 0.000000e+00 1.000000e+00
    outer loop
      vertex   -5.761889e+01 1.111956e+02 2.000000e+00
      vertex   -2.838764e+01 1.111956e+02 2.000000e+00
      vertex   -5.761889e+01 1.141796e+02 2.000000e+00
    endloop
  endfacet
  facet normal 4.694189e-15 -2.467162e-17 1.000000e+00
    outer loop
      vertex   -2.838764e+01 1.091796e+02 2.000000e+00
      vertex   -4.361889e+01 1.091796e+02 2.000000e+00
      vertex   -4.361889e+01 9.117964e+01 2.000000e+00
    endloop
  endfacet
  facet normal 1.000000e+00 0.000000e+00 0.000000e+00
    outer loop
      vertex   -5.461889e+01 1.061992e+02 3.700000e+01
      vertex   -5.461889e+01 7.917654e+01 3.700000e+01
      vertex   -5.461889e+01 1.061992e+02 2.000000e+00
    endloop
  endfacet
  facet normal 1.000000e+00 0.000000e+00 0.000000e+00
    outer loop
      vertex   -5.461889e+01 1.061992e+02 2.000000e+00
      vertex   -5.461889e+01 7.917654e+01 3.700000e+01
      vertex   -5.461889e+01 7.917654e+01 2.000000e+00
    endloop
  endfacet
  facet normal 0.000000e+00 0.000000e+00 1.000000e+00
    outer loop
      vertex   -1.361889e+01 3.817640e+01 3.700000e+01
      vertex   -5.461889e+01 3.817640e+01 3.700000e+01
      vertex   -5.761889e+01 3.417654e+01 3.700000e+01
    endloop
  endfacet
  facet normal 0.000000e+00 0.000000e+00 1.000000e+00
    outer loop
      vertex   -9.618890e+00 3.417654e+01 3.700000e+01
      vertex   -1.361889e+01 3.817640e+01 3.700000e+01
      vertex   -5.761889e+01 3.417654e+01 3.700000e+01
    endloop
  endfacet
  facet normal -1.691649e-15 -1.691706e-15 1.000000e+00
    outer loop
      vertex   -9.618890e+00 3.417654e+01 3.700000e+01
      vertex   -9.618890e+00 7.617809e+01 3.700000e+01
      vertex   -1.361889e+01 3.817640e+01 3.700000e+01
    endloop
  endfacet
  facet normal -1.776357e-14 0.000000e+00 1.000000e+00
    outer loop
      vertex   -1.361889e+01 3.817640e+01 3.700000e+01
      vertex   -9.618890e+00 7.617809e+01 3.700000e+01
      vertex   -1.361889e+01 7.717964e+01 3.700000e+01
    endloop
  endfacet
  facet normal -2.242128e-08 -8.954622e-08 1.000000e+00
    outer loop
      vertex   -1.361889e+01 7.717964e+01 3.700000e+01
      vertex   -9.618890e+00 7.617809e+01 3.700000e+01
      vertex   -1.361889e+01 7.917653e+01 3.700000e+01
    endloop
  endfacet
  facet normal -1.563902e-07 1.997080e-06 1.000000e+00
    outer loop
      vertex   -3.911889e+01 7.717964e+01 3.700000e+01
      vertex   -1.361889e+01 7.917653e+01 3.700000e+01
      vertex   -4.292057e+01 7.792654e+01 3.700000e+01
    endloop
  endfacet
  facet normal -1.465300e-06 0.000000e+00 1.000000e+00
    outer loop
      vertex   -4.161890e+01 7.617654e+01 3.700000e+01
      vertex   -4.292057e+01 7.792654e+01 3.700000e+01
      vertex   -4.292057e+01 7.742654e+01 3.700000e+01
    endloop
  endfacet
  facet normal 0.000000e+00 1.525879e-06 1.000000e+00
    outer loop
      vertex   -5.292057e+01 7.742654e+01 3.700000e+01
      vertex   -4.161890e+01 7.617654e+01 3.700000e+01
      vertex   -4.292057e+01 7.742654e+01 3.700000e+01
    endloop
  endfacet
  facet normal -0.000000e+00 1.525879e-06 1.000000e+00
    outer loop
      vertex   -5.292057e+01 7.742654e+01 3.700000e+01
      vertex   -5.461889e+01 7.617654e+01 3.700000e+01
      vertex   -4.161890e+01 7.617654e+01 3.700000e+01
    endloop
  endfacet
  facet normal 1.123083e-06 -0.000000e+00 1.000000e+00
    outer loop
      vertex   -5.292057e+01 7.742654e+01 3.700000e+01
      vertex   -5.292057e+01 7.792654e+01 3.700000e+01
      vertex   -5.461889e+01 7.617654e+01 3.700000e+01
    endloop
  endfacet
  facet normal 1.123083e-06 0.000000e+00 1.000000e+00
    outer loop
      vertex   -5.461889e+01 7.617654e+01 3.700000e+01
      vertex   -5.292057e+01 7.792654e+01 3.700000e+01
      vertex   -5.461889e+01 7.917654e+01 3.700000e+01
    endloop
  endfacet
  facet normal -1.725648e-08 -6.617191e-09 1.000000e+00
    outer loop
      vertex   -5.761889e+01 8.700000e+01 3.700000e+01
      vertex   -5.461889e+01 7.917654e+01 3.700000e+01
      vertex   -5.461889e+01 1.061992e+02 3.700000e+01
    endloop
  endfacet
  facet normal -5.960470e-08 0.000000e+00 1.000000e+00
    outer loop
      vertex   -5.761889e+01 1.071992e+02 3.700000e+01
      vertex   -5.461889e+01 1.061992e+02 3.700000e+01
      vertex   -5.761889e+01 1.081992e+02 3.700000e+01
    endloop
  endfacet
  facet normal -5.960470e-08 5.196762e-15 1.000000e+00
    outer loop
      vertex   -5.761889e+01 1.071992e+02 3.700000e+01
      vertex   -5.761889e+01 8.700000e+01 3.700000e+01
      vertex   -5.461889e+01 1.061992e+02 3.700000e+01
    endloop
  endfacet
  facet normal 0.000000e+00 -0.000000e+00 1.000000e+00
    outer loop
      vertex   -4.969481e+01 4.417654e+01 3.700000e+01
      vertex   -4.969481e+01 5.117654e+01 3.700000e+01
      vertex   -5.461889e+01 4.417654e+01 3.700000e+01
    endloop
  endfacet
  facet normal 0.000000e+00 -0.000000e+00 1.000000e+00
    outer loop
      vertex   -5.461889e+01 4.417654e+01 3.700000e+01
      vertex   -4.969481e+01 5.117654e+01 3.700000e+01
      vertex   -5.461889e+01 5.117654e+01 3.700000e+01
    endloop
  endfacet
  facet normal -2.368474e-14 0.000000e+00 1.000000e+00
    outer loop
      vertex   -5.761889e+01 3.417654e+01 3.700000e+01
      vertex   -5.461889e+01 5.117654e+01 3.700000e+01
      vertex   -5.461889e+01 6.417654e+01 3.700000e+01
    endloop
  endfacet
  facet normal -2.368468e-14 1.130348e-20 1.000000e+00
    outer loop
      vertex   -5.761889e+01 8.700000e+01 3.700000e+01
      vertex   -5.461889e+01 6.417654e+01 3.700000e+01
      vertex   -5.461889e+01 6.617654e+01 3.700000e+01
    endloop
  endfacet
  facet normal -2.368476e-14 0.000000e+00 1.000000e+00
    outer loop
      vertex   -5.461889e+01 7.617654e+01 3.700000e+01
      vertex   -5.761889e+01 8.700000e+01 3.700000e+01
      vertex   -5.461889e+01 6.617654e+01 3.700000e+01
    endloop
  endfacet
  facet normal -2.368476e-14 0.000000e+00 1.000000e+00
    outer loop
      vertex   -5.461889e+01 7.617654e+01 3.700000e+01
      vertex   -5.461889e+01 7.917654e+01 3.700000e+01
      vertex   -5.761889e+01 8.700000e+01 3.700000e+01
    endloop
  endfacet
  facet normal -2.368472e-14 -3.229571e-21 1.000000e+00
    outer loop
      vertex   -5.461889e+01 4.417654e+01 3.700000e+01
      vertex   -5.461889e+01 5.117654e+01 3.700000e+01
      vertex   -5.761889e+01 3.417654e+01 3.700000e+01
    endloop
  endfacet
  facet normal 1.578893e-14 -1.184211e-14 1.000000e+00
    outer loop
      vertex   -5.461889e+01 3.817640e+01 3.700000e+01
      vertex   -5.461889e+01 4.417654e+01 3.700000e+01
      vertex   -5.761889e+01 3.417654e+01 3.700000e+01
    endloop
  endfacet
  facet normal -0.000000e+00 0.000000e+00 1.000000e+00
    outer loop
      vertex   -5.461889e+01 6.617654e+01 3.700000e+01
      vertex   -5.461889e+01 6.417654e+01 3.700000e+01
      vertex   -4.161890e+01 6.617654e+01 3.700000e+01
    endloop
  endfacet
  facet normal -0.000000e+00 0.000000e+00 1.000000e+00
    outer loop
      vertex   -4.161890e+01 6.617654e+01 3.700000e+01
      vertex   -5.461889e+01 6.417654e+01 3.700000e+01
      vertex   -4.161889e+01 6.417654e+01 3.700000e+01
    endloop
  endfacet
  facet normal -4.334476e-08 -5.418095e-09 1.000000e+00
    outer loop
      vertex   -3.911889e+01 7.717964e+01 3.700000e+01
      vertex   -4.161889e+01 6.417654e+01 3.700000e+01
      vertex   -3.911889e+01 4.417654e+01 3.700000e+01
    endloop
  endfacet
  facet normal -7.152448e-08 -2.098925e-13 1.000000e+00
    outer loop
      vertex   -3.911889e+01 7.717964e+01 3.700000e+01
      vertex   -4.161890e+01 6.617654e+01 3.700000e+01
      vertex   -4.161889e+01 6.417654e+01 3.700000e+01
    endloop
  endfacet
  facet normal -7.152541e-08 0.000000e+00 1.000000e+00
    outer loop
      vertex   -3.911889e+01 7.717964e+01 3.700000e+01
      vertex   -4.161890e+01 7.617654e+01 3.700000e+01
      vertex   -4.161890e+01 6.617654e+01 3.700000e+01
    endloop
  endfacet
  facet normal -3.918846e-07 7.984236e-07 1.000000e+00
    outer loop
      vertex   -3.911889e+01 7.717964e+01 3.700000e+01
      vertex   -4.292057e+01 7.792654e+01 3.700000e+01
      vertex   -4.161890e+01 7.617654e+01 3.700000e+01
    endloop
  endfacet
  facet normal 0.000000e+00 0.000000e+00 1.000000e+00
    outer loop
      vertex   -4.161889e+01 6.417654e+01 3.700000e+01
      vertex   -4.161889e+01 5.117654e+01 3.700000e+01
      vertex   -3.911889e+01 4.417654e+01 3.700000e+01
    endloop
  endfacet
  facet normal 0.000000e+00 0.000000e+00 1.000000e+00
    outer loop
      vertex   -3.911889e+01 4.417654e+01 3.700000e+01
      vertex   -4.161889e+01 5.117654e+01 3.700000e+01
      vertex   -4.669481e+01 4.417654e+01 3.700000e+01
    endloop
  endfacet
  facet normal 0.000000e+00 -0.000000e+00 1.000000e+00
    outer loop
      vertex   -4.669481e+01 4.417654e+01 3.700000e+01
      vertex   -4.161889e+01 5.117654e+01 3.700000e+01
      vertex   -4.669481e+01 5.117654e+01 3.700000e+01
    endloop
  endfacet
  facet normal 7.012314e-09 -8.954624e-08 1.000000e+00
    outer loop
      vertex   -3.911889e+01 7.717964e+01 3.700000e+01
      vertex   -1.361889e+01 7.717964e+01 3.700000e+01
      vertex   -1.361889e+01 7.917653e+01 3.700000e+01
    endloop
  endfacet
  facet normal 0.000000e+00 -1.525879e-06 1.000000e+00
    outer loop
      vertex   -5.292057e+01 7.792654e+01 3.700000e+01
      vertex   -4.292057e+01 7.792654e+01 3.700000e+01
      vertex   -5.461889e+01 7.917654e+01 3.700000e+01
    endloop
  endfacet
  facet normal -4.361634e-09 -1.566698e-06 1.000000e+00
    outer loop
      vertex   -5.461889e+01 7.917654e+01 3.700000e+01
      vertex   -4.292057e+01 7.792654e+01 3.700000e+01
      vertex   -1.361889e+01 7.917653e+01 3.700000e+01
    endloop
  endfacet
  facet normal 4.470350e-08 6.805912e-24 1.000000e+00
    outer loop
      vertex   -1.361889e+01 7.917653e+01 3.700000e+01
      vertex   -9.618890e+00 7.617809e+01 3.700000e+01
      vertex   -1.361889e+01 1.141796e+02 3.700000e+01
    endloop
  endfacet
  facet normal 4.257320e-09 -4.257317e-09 1.000000e+00
    outer loop
      vertex   -1.361889e+01 1.141796e+02 3.700000e+01
      vertex   -9.618890e+00 7.617809e+01 3.700000e+01
      vertex   -9.618890e+00 1.181796e+02 3.700000e+01
    endloop
  endfacet
  facet normal -0.000000e+00 0.000000e+00 1.000000e+00
    outer loop
      vertex   -5.761889e+01 1.181796e+02 3.700000e+01
      vertex   -1.361889e+01 1.141796e+02 3.700000e+01
      vertex   -9.618890e+00 1.181796e+02 3.700000e+01
    endloop
  endfacet
  facet normal -0.000000e+00 0.000000e+00 1.000000e+00
    outer loop
      vertex   -5.761889e+01 1.181796e+02 3.700000e+01
      vertex   -5.761889e+01 1.141796e+02 3.700000e+01
      vertex   -1.361889e+01 1.141796e+02 3.700000e+01
    endloop
  endfacet
  facet normal 0.000000e+00 8.940700e-08 1.000000e+00
    outer loop
      vertex   -5.761889e+01 1.081992e+02 3.700000e+01
      vertex   -5.461889e+01 1.061992e+02 3.700000e+01
      vertex   -4.361889e+01 1.081992e+02 3.700000e+01
    endloop
  endfacet
  facet normal 1.986823e-08 -1.986823e-08 1.000000e+00
    outer loop
      vertex   -4.361889e+01 1.081992e+02 3.700000e+01
      vertex   -5.461889e+01 1.061992e+02 3.700000e+01
      vertex   -4.561889e+01 1.061992e+02 3.700000e+01
    endloop
  endfacet
  facet normal 0.000000e+00 0.000000e+00 1.000000e+00
    outer loop
      vertex   -4.361889e+01 9.117964e+01 3.700000e+01
      vertex   -4.561889e+01 1.061992e+02 3.700000e+01
      vertex   -4.561889e+01 9.117964e+01 3.700000e+01
    endloop
  endfacet
  facet normal 0.000000e+00 -0.000000e+00 1.000000e+00
    outer loop
      vertex   -4.361889e+01 9.117964e+01 3.700000e+01
      vertex   -4.361889e+01 1.081992e+02 3.700000e+01
      vertex   -4.561889e+01 1.061992e+02 3.700000e+01
    endloop
  endfacet
  facet normal -2.368475e-14 1.496984e-21 1.000000e+00
    outer loop
      vertex   -5.761889e+01 8.700000e+01 3.700000e+01
      vertex   -5.761889e+01 3.417654e+01 3.700000e+01
      vertex   -5.461889e+01 6.417654e+01 3.700000e+01
    endloop
  endfacet
  facet normal 7.071068e-01 0.000000e+00 7.071068e-01
    outer loop
      vertex   -3.196412e+01 7.717964e+01 1.500000e+01
      vertex   -2.135752e+01 7.717964e+01 4.393398e+00
      vertex   -3.196412e+01 7.917653e+01 1.500000e+01
    endloop
  endfacet
  facet normal 7.071068e-01 6.290124e-16 7.071068e-01
    outer loop
      vertex   -3.196412e+01 7.917653e+01 1.500000e+01
      vertex   -2.135752e+01 7.717964e+01 4.393398e+00
      vertex   -2.135752e+01 7.917654e+01 4.393398e+00
    endloop
  endfacet
  facet normal -7.071068e-01 6.290136e-16 7.071068e-01
    outer loop
      vertex   -1.428645e+01 7.717964e+01 1.146447e+01
      vertex   -1.428645e+01 7.917653e+01 1.146447e+01
      vertex   -2.135752e+01 7.717964e+01 4.393398e+00
    endloop
  endfacet
  facet normal -7.071068e-01 7.116463e-16 7.071068e-01
    outer loop
      vertex   -2.135752e+01 7.717964e+01 4.393398e+00
      vertex   -1.428645e+01 7.917653e+01 1.146447e+01
      vertex   -2.135752e+01 7.917654e+01 4.393398e+00
    endloop
  endfacet
  facet normal 7.071068e-01 0.000000e+00 -7.071068e-01
    outer loop
      vertex   -3.196412e+01 7.717964e+01 1.500000e+01
      vertex   -3.196412e+01 7.917653e+01 1.500000e+01
      vertex   -2.489305e+01 7.717964e+01 2.207107e+01
    endloop
  endfacet
  facet normal 7.071068e-01 0.000000e+00 -7.071068e-01
    outer loop
      vertex   -2.489305e+01 7.717964e+01 2.207107e+01
      vertex   -3.196412e+01 7.917653e+01 1.500000e+01
      vertex   -2.489305e+01 7.917653e+01 2.207107e+01
    endloop
  endfacet
  facet normal -7.071068e-01 0.000000e+00 -7.071068e-01
    outer loop
      vertex   -2.489305e+01 7.717964e+01 2.207107e+01
      vertex   -2.489305e+01 7.917653e+01 2.207107e+01
      vertex   -1.428645e+01 7.717964e+01 1.146447e+01
    endloop
  endfacet
  facet normal -7.071068e-01 -4.744318e-16 -7.071068e-01
    outer loop
      vertex   -1.428645e+01 7.717964e+01 1.146447e+01
      vertex   -2.489305e+01 7.917653e+01 2.207107e+01
      vertex   -1.428645e+01 7.917653e+01 1.146447e+01
    endloop
  endfacet
  facet normal 0.000000e+00 1.681133e-15 -1.000000e+00
    outer loop
      vertex   -5.761889e+01 1.181796e+02 -2.000000e+00
      vertex   -9.618890e+00 1.181796e+02 -2.000000e+00
      vertex   -5.761889e+01 7.617809e+01 -2.000000e+00
    endloop
  endfacet
  facet normal 1.471046e-15 0.000000e+00 -1.000000e+00
    outer loop
      vertex   -5.761889e+01 7.617809e+01 -2.000000e+00
      vertex   -9.618890e+00 1.181796e+02 -2.000000e+00
      vertex   -9.618890e+00 7.617809e+01 -2.000000e+00
    endloop
  endfacet
  facet normal 1.471046e-15 0.000000e+00 -1.000000e+00
    outer loop
      vertex   -9.618890e+00 3.417654e+01 -2.000000e+00
      vertex   -5.761889e+01 7.617809e+01 -2.000000e+00
      vertex   -9.618890e+00 7.617809e+01 -2.000000e+00
    endloop
  endfacet
  facet normal 2.488576e-31 -1.681133e-15 -1.000000e+00
    outer loop
      vertex   -9.618890e+00 3.417654e+01 -2.000000e+00
      vertex   -5.761889e+01 3.417654e+01 -2.000000e+00
      vertex   -5.761889e+01 7.617809e+01 -2.000000e+00
    endloop
  endfacet
  facet normal 1.000000e+00 0.000000e+00 0.000000e+00
    outer loop
      vertex   -9.618890e+00 1.181796e+02 3.700000e+01
      vertex   -9.618890e+00 7.617809e+01 3.700000e+01
      vertex   -9.618890e+00 1.181796e+02 -2.000000e+00
    endloop
  endfacet
  facet normal 1.000000e+00 0.000000e+00 0.000000e+00
    outer loop
      vertex   -9.618890e+00 1.181796e+02 -2.000000e+00
      vertex   -9.618890e+00 7.617809e+01 3.700000e+01
      vertex   -9.618890e+00 7.617809e+01 -2.000000e+00
    endloop
  endfacet
  facet normal 1.000000e+00 -4.567683e-09 4.412512e-17
    outer loop
      vertex   -9.618890e+00 7.617809e+01 -2.000000e+00
      vertex   -9.618890e+00 7.617809e+01 3.700000e+01
      vertex   -9.618890e+00 3.417654e+01 3.700000e+01
    endloop
  endfacet
  facet normal 1.000000e+00 -0.000000e+00 4.919225e-09
    outer loop
      vertex   -9.618890e+00 3.417654e+01 -2.000000e+00
      vertex   -9.618890e+00 7.617809e+01 -2.000000e+00
      vertex   -9.618890e+00 3.417654e+01 3.700000e+01
    endloop
  endfacet
  facet normal 1.480297e-16 -1.000000e+00 1.932057e-08
    outer loop
      vertex   -9.618890e+00 3.417654e+01 -2.000000e+00
      vertex   -9.618890e+00 3.417654e+01 3.700000e+01
      vertex   -5.761889e+01 3.417654e+01 -2.000000e+00
    endloop
  endfacet
  facet normal -1.480297e-16 -1.000000e+00 1.932057e-08
    outer loop
      vertex   -5.761889e+01 3.417654e+01 -2.000000e+00
      vertex   -9.618890e+00 3.417654e+01 3.700000e+01
      vertex   -5.761889e+01 3.417654e+01 3.700000e+01
    endloop
  endfacet
  facet normal -7.071057e-01 7.071079e-01 0.000000e+00
    outer loop
      vertex   -4.769481e+01 7.792654e+01 1.999998e+00
      vertex   -4.769481e+01 7.792654e+01 3.500000e+01
      vertex   -4.644481e+01 7.917653e+01 2.000000e+00
    endloop
  endfacet
  facet normal -7.071068e-01 7.071068e-01 -8.173934e-08
    outer loop
      vertex   -4.644481e+01 7.917653e+01 2.000000e+00
      vertex   -4.769481e+01 7.792654e+01 3.500000e+01
      vertex   -4.644481e+01 7.917654e+01 3.500000e+01
    endloop
  endfacet
  facet normal 1.106329e-07 1.000000e+00 -1.106329e-07
    outer loop
      vertex   -3.196412e+01 7.917653e+01 1.500000e+01
      vertex   -4.644481e+01 7.917654e+01 3.500000e+01
      vertex   -2.489305e+01 7.917653e+01 2.207107e+01
    endloop
  endfacet
  facet normal 1.037768e-07 1.000000e+00 -1.155969e-07
    outer loop
      vertex   -3.196412e+01 7.917653e+01 1.500000e+01
      vertex   -4.644481e+01 7.917653e+01 2.000000e+00
      vertex   -4.644481e+01 7.917654e+01 3.500000e+01
    endloop
  endfacet
  facet normal -5.207124e-07 1.000000e+00 5.800211e-07
    outer loop
      vertex   -3.196412e+01 7.917653e+01 1.500000e+01
      vertex   -3.911889e+01 7.917654e+01 2.000000e+00
      vertex   -4.644481e+01 7.917653e+01 2.000000e+00
    endloop
  endfacet
  facet normal -4.270915e-08 1.000000e+00 3.169440e-07
    outer loop
      vertex   -3.196412e+01 7.917653e+01 1.500000e+01
      vertex   -2.135752e+01 7.917654e+01 4.393398e+00
      vertex   -3.911889e+01 7.917654e+01 2.000000e+00
    endloop
  endfacet
  facet normal 3.272412e-07 1.000000e+00 -2.428452e-06
    outer loop
      vertex   -3.911889e+01 7.917654e+01 2.000000e+00
      vertex   -2.135752e+01 7.917654e+01 4.393398e+00
      vertex   -1.361889e+01 7.917653e+01 2.000000e+00
    endloop
  endfacet
  facet normal 9.510277e-07 1.000000e+00 -4.115481e-07
    outer loop
      vertex   -1.361889e+01 7.917653e+01 2.000000e+00
      vertex   -2.135752e+01 7.917654e+01 4.393398e+00
      vertex   -1.428645e+01 7.917653e+01 1.146447e+01
    endloop
  endfacet
  facet normal 1.480059e-15 1.000000e+00 1.480059e-15
    outer loop
      vertex   -1.361889e+01 7.917653e+01 3.000000e+01
      vertex   -1.428645e+01 7.917653e+01 1.146447e+01
      vertex   -2.489305e+01 7.917653e+01 2.207107e+01
    endloop
  endfacet
  facet normal 2.470908e-07 1.000000e+00 1.168343e-07
    outer loop
      vertex   -1.361889e+01 7.917653e+01 3.700000e+01
      vertex   -2.489305e+01 7.917653e+01 2.207107e+01
      vertex   -4.644481e+01 7.917654e+01 3.500000e+01
    endloop
  endfacet
  facet normal 0.000000e+00 1.000000e+00 0.000000e+00
    outer loop
      vertex   -5.461889e+01 7.917654e+01 3.700000e+01
      vertex   -4.644481e+01 7.917654e+01 3.500000e+01
      vertex   -4.994481e+01 7.917654e+01 3.500000e+01
    endloop
  endfacet
  facet normal -0.000000e+00 1.000000e+00 0.000000e+00
    outer loop
      vertex   -5.461889e+01 7.917654e+01 2.000000e+00
      vertex   -4.994481e+01 7.917654e+01 3.500000e+01
      vertex   -4.994481e+01 7.917654e+01 2.000000e+00
    endloop
  endfacet
  facet normal -0.000000e+00 1.000000e+00 0.000000e+00
    outer loop
      vertex   -5.461889e+01 7.917654e+01 2.000000e+00
      vertex   -5.461889e+01 7.917654e+01 3.700000e+01
      vertex   -4.994481e+01 7.917654e+01 3.500000e+01
    endloop
  endfacet
  facet normal 4.492094e-06 1.000000e+00 -1.617840e-07
    outer loop
      vertex   -1.361889e+01 7.917653e+01 2.000000e+00
      vertex   -1.428645e+01 7.917653e+01 1.146447e+01
      vertex   -1.361889e+01 7.917653e+01 3.000000e+01
    endloop
  endfacet
  facet normal 2.035280e-07 1.000000e+00 8.318272e-07
    outer loop
      vertex   -1.361889e+01 7.917653e+01 3.700000e+01
      vertex   -4.644481e+01 7.917654e+01 3.500000e+01
      vertex   -5.461889e+01 7.917654e+01 3.700000e+01
    endloop
  endfacet
  facet normal -4.551201e-07 1.000000e+00 6.471361e-07
    outer loop
      vertex   -1.361889e+01 7.917653e+01 3.700000e+01
      vertex   -1.361889e+01 7.917653e+01 3.000000e+01
      vertex   -2.489305e+01 7.917653e+01 2.207107e+01
    endloop
  endfacet
  facet normal -1.000000e+00 0.000000e+00 0.000000e+00
    outer loop
      vertex   -4.292057e+01 7.742654e+01 1.999998e+00
      vertex   -4.292057e+01 7.742654e+01 3.700000e+01
      vertex   -4.292057e+01 7.792654e+01 1.999998e+00
    endloop
  endfacet
  facet normal -1.000000e+00 0.000000e+00 0.000000e+00
    outer loop
      vertex   -4.292057e+01 7.792654e+01 1.999998e+00
      vertex   -4.292057e+01 7.742654e+01 3.700000e+01
      vertex   -4.292057e+01 7.792654e+01 3.700000e+01
    endloop
  endfacet
  facet normal 0.000000e+00 -1.000000e+00 0.000000e+00
    outer loop
      vertex   -4.769481e+01 7.792654e+01 1.999998e+00
      vertex   -4.292057e+01 7.792654e+01 1.999998e+00
      vertex   -4.769481e+01 7.792654e+01 3.500000e+01
    endloop
  endfacet
  facet normal 0.000000e+00 -1.000000e+00 0.000000e+00
    outer loop
      vertex   -4.769481e+01 7.792654e+01 3.500000e+01
      vertex   -4.292057e+01 7.792654e+01 1.999998e+00
      vertex   -4.292057e+01 7.792654e+01 3.700000e+01
    endloop
  endfacet
  facet normal 0.000000e+00 -1.000000e+00 0.000000e+00
    outer loop
      vertex   -5.292057e+01 7.792654e+01 3.700000e+01
      vertex   -4.769481e+01 7.792654e+01 3.500000e+01
      vertex   -4.292057e+01 7.792654e+01 3.700000e+01
    endloop
  endfacet
  facet normal 0.000000e+00 -1.000000e+00 0.000000e+00
    outer loop
      vertex   -5.292057e+01 7.792654e+01 3.700000e+01
      vertex   -4.869481e+01 7.792654e+01 3.500000e+01
      vertex   -4.769481e+01 7.792654e+01 3.500000e+01
    endloop
  endfacet
  facet normal 0.000000e+00 -1.000000e+00 0.000000e+00
    outer loop
      vertex   -5.292057e+01 7.792654e+01 3.700000e+01
      vertex   -5.292057e+01 7.792654e+01 1.999998e+00
      vertex   -4.869481e+01 7.792654e+01 3.500000e+01
    endloop
  endfacet
  facet normal 0.000000e+00 -1.000000e+00 -0.000000e+00
    outer loop
      vertex   -4.869481e+01 7.792654e+01 3.500000e+01
      vertex   -5.292057e+01 7.792654e+01 1.999998e+00
      vertex   -4.869481e+01 7.792654e+01 1.999998e+00
    endloop
  endfacet
  facet normal -1.000000e+00 0.000000e+00 -0.000000e+00
    outer loop
      vertex   -4.794481e+01 7.617654e+01 3.500000e+01
      vertex   -4.794481e+01 7.742654e+01 3.500000e+01
      vertex   -4.794481e+01 7.617654e+01 2.000000e+00
    endloop
  endfacet
  facet normal -1.000000e+00 0.000000e+00 0.000000e+00
    outer loop
      vertex   -4.794481e+01 7.617654e+01 2.000000e+00
      vertex   -4.794481e+01 7.742654e+01 3.500000e+01
      vertex   -4.794481e+01 7.742654e+01 1.999998e+00
    endloop
  endfacet
  facet normal -0.000000e+00 1.000000e+00 0.000000e+00
    outer loop
      vertex   -4.794481e+01 7.742654e+01 1.999998e+00
      vertex   -4.794481e+01 7.742654e+01 3.500000e+01
      vertex   -4.292057e+01 7.742654e+01 1.999998e+00
    endloop
  endfacet
  facet normal 0.000000e+00 1.000000e+00 -0.000000e+00
    outer loop
      vertex   -4.292057e+01 7.742654e+01 1.999998e+00
      vertex   -4.794481e+01 7.742654e+01 3.500000e+01
      vertex   -4.292057e+01 7.742654e+01 3.700000e+01
    endloop
  endfacet
  facet normal 0.000000e+00 1.000000e+00 0.000000e+00
    outer loop
      vertex   -4.292057e+01 7.742654e+01 3.700000e+01
      vertex   -4.794481e+01 7.742654e+01 3.500000e+01
      vertex   -5.292057e+01 7.742654e+01 3.700000e+01
    endloop
  endfacet
  facet normal 0.000000e+00 1.000000e+00 0.000000e+00
    outer loop
      vertex   -5.292057e+01 7.742654e+01 3.700000e+01
      vertex   -4.794481e+01 7.742654e+01 3.500000e+01
      vertex   -4.844481e+01 7.742654e+01 3.500000e+01
    endloop
  endfacet
  facet normal -0.000000e+00 1.000000e+00 0.000000e+00
    outer loop
      vertex   -5.292057e+01 7.742654e+01 1.999998e+00
      vertex   -4.844481e+01 7.742654e+01 3.500000e+01
      vertex   -4.844481e+01 7.742654e+01 1.999998e+00
    endloop
  endfacet
  facet normal -0.000000e+00 1.000000e+00 0.000000e+00
    outer loop
      vertex   -5.292057e+01 7.742654e+01 1.999998e+00
      vertex   -5.292057e+01 7.742654e+01 3.700000e+01
      vertex   -4.844481e+01 7.742654e+01 3.500000e+01
    endloop
  endfacet
  facet normal -1.000000e+00 0.000000e+00 0.000000e+00
    outer loop
      vertex   -4.161890e+01 6.617654e+01 2.000000e+00
      vertex   -4.161890e+01 6.617654e+01 3.700000e+01
      vertex   -4.161890e+01 7.617654e+01 2.000000e+00
    endloop
  endfacet
  facet normal -1.000000e+00 0.000000e+00 0.000000e+00
    outer loop
      vertex   -4.161890e+01 7.617654e+01 2.000000e+00
      vertex   -4.161890e+01 6.617654e+01 3.700000e+01
      vertex   -4.161890e+01 7.617654e+01 3.700000e+01
    endloop
  endfacet
  facet normal 0.000000e+00 -1.000000e+00 0.000000e+00
    outer loop
      vertex   -4.794481e+01 7.617654e+01 2.000000e+00
      vertex   -4.161890e+01 7.617654e+01 2.000000e+00
      vertex   -4.794481e+01 7.617654e+01 3.500000e+01
    endloop
  endfacet
  facet normal 0.000000e+00 -1.000000e+00 0.000000e+00
    outer loop
      vertex   -4.794481e+01 7.617654e+01 3.500000e+01
      vertex   -4.161890e+01 7.617654e+01 2.000000e+00
      vertex   -4.161890e+01 7.617654e+01 3.700000e+01
    endloop
  endfacet
  facet normal 0.000000e+00 -1.000000e+00 0.000000e+00
    outer loop
      vertex   -5.461889e+01 7.617654e+01 3.700000e+01
      vertex   -4.794481e+01 7.617654e+01 3.500000e+01
      vertex   -4.161890e+01 7.617654e+01 3.700000e+01
    endloop
  endfacet
  facet normal 0.000000e+00 -1.000000e+00 0.000000e+00
    outer loop
      vertex   -5.461889e+01 7.617654e+01 3.700000e+01
      vertex   -4.844481e+01 7.617654e+01 3.500000e+01
      vertex   -4.794481e+01 7.617654e+01 3.500000e+01
    endloop
  endfacet
  facet normal 0.000000e+00 -1.000000e+00 0.000000e+00
    outer loop
      vertex   -5.461889e+01 7.617654e+01 3.700000e+01
      vertex   -5.461889e+01 7.617654e+01 2.000000e+00
      vertex   -4.844481e+01 7.617654e+01 3.500000e+01
    endloop
  endfacet
  facet normal 0.000000e+00 -1.000000e+00 -0.000000e+00
    outer loop
      vertex   -4.844481e+01 7.617654e+01 3.500000e+01
      vertex   -5.461889e+01 7.617654e+01 2.000000e+00
      vertex   -4.844481e+01 7.617654e+01 2.000000e+00
    endloop
  endfacet
  facet normal -1.000000e+00 0.000000e+00 -0.000000e+00
    outer loop
      vertex   -4.794481e+01 6.417654e+01 3.500000e+01
      vertex   -4.794481e+01 6.617654e+01 3.500000e+01
      vertex   -4.794481e+01 6.417654e+01 2.000000e+00
    endloop
  endfacet
  facet normal -1.000000e+00 0.000000e+00 0.000000e+00
    outer loop
      vertex   -4.794481e+01 6.417654e+01 2.000000e+00
      vertex   -4.794481e+01 6.617654e+01 3.500000e+01
      vertex   -4.794481e+01 6.617654e+01 2.000000e+00
    endloop
  endfacet
  facet normal -0.000000e+00 1.000000e+00 0.000000e+00
    outer loop
      vertex   -4.794481e+01 6.617654e+01 2.000000e+00
      vertex   -4.794481e+01 6.617654e+01 3.500000e+01
      vertex   -4.161890e+01 6.617654e+01 2.000000e+00
    endloop
  endfacet
  facet normal 0.000000e+00 1.000000e+00 -0.000000e+00
    outer loop
      vertex   -4.161890e+01 6.617654e+01 2.000000e+00
      vertex   -4.794481e+01 6.617654e+01 3.500000e+01
      vertex   -4.161890e+01 6.617654e+01 3.700000e+01
    endloop
  endfacet
  facet normal 0.000000e+00 1.000000e+00 0.000000e+00
    outer loop
      vertex   -4.161890e+01 6.617654e+01 3.700000e+01
      vertex   -4.794481e+01 6.617654e+01 3.500000e+01
      vertex   -5.461889e+01 6.617654e+01 3.700000e+01
    endloop
  endfacet
  facet normal 0.000000e+00 1.000000e+00 0.000000e+00
    outer loop
      vertex   -5.461889e+01 6.617654e+01 3.700000e+01
      vertex   -4.794481e+01 6.617654e+01 3.500000e+01
      vertex   -4.844481e+01 6.617654e+01 3.500000e+01
    endloop
  endfacet
  facet normal -0.000000e+00 1.000000e+00 0.000000e+00
    outer loop
      vertex   -5.461889e+01 6.617654e+01 2.000000e+00
      vertex   -4.844481e+01 6.617654e+01 3.500000e+01
      vertex   -4.844481e+01 6.617654e+01 2.000000e+00
    endloop
  endfacet
  facet normal -0.000000e+00 1.000000e+00 0.000000e+00
    outer loop
      vertex   -5.461889e+01 6.617654e+01 2.000000e+00
      vertex   -5.461889e+01 6.617654e+01 3.700000e+01
      vertex   -4.844481e+01 6.617654e+01 3.500000e+01
    endloop
  endfacet
  facet normal -1.000000e+00 0.000000e+00 0.000000e+00
    outer loop
      vertex   -4.161889e+01 5.117654e+01 2.000000e+00
      vertex   -4.161889e+01 5.117654e+01 3.700000e+01
      vertex   -4.161889e+01 6.417654e+01 2.000000e+00
    endloop
  endfacet
  facet normal -1.000000e+00 0.000000e+00 0.000000e+00
    outer loop
      vertex   -4.161889e+01 6.417654e+01 2.000000e+00
      vertex   -4.161889e+01 5.117654e+01 3.700000e+01
      vertex   -4.161889e+01 6.417654e+01 3.700000e+01
    endloop
  endfacet
  facet normal -0.000000e+00 1.000000e+00 0.000000e+00
    outer loop
      vertex   -4.669481e+01 5.117654e+01 2.000000e+00
      vertex   -4.669481e+01 5.117654e+01 3.700000e+01
      vertex   -4.161889e+01 5.117654e+01 2.000000e+00
    endloop
  endfacet
  facet normal 0.000000e+00 1.000000e+00 -0.000000e+00
    outer loop
      vertex   -4.161889e+01 5.117654e+01 2.000000e+00
      vertex   -4.669481e+01 5.117654e+01 3.700000e+01
      vertex   -4.161889e+01 5.117654e+01 3.700000e+01
    endloop
  endfacet
  facet normal 0.000000e+00 -1.000000e+00 0.000000e+00
    outer loop
      vertex   -4.794481e+01 6.417654e+01 2.000000e+00
      vertex   -4.161889e+01 6.417654e+01 2.000000e+00
      vertex   -4.794481e+01 6.417654e+01 3.500000e+01
    endloop
  endfacet
  facet normal 0.000000e+00 -1.000000e+00 0.000000e+00
    outer loop
      vertex   -4.794481e+01 6.417654e+01 3.500000e+01
      vertex   -4.161889e+01 6.417654e+01 2.000000e+00
      vertex   -4.161889e+01 6.417654e+01 3.700000e+01
    endloop
  endfacet
  facet normal 0.000000e+00 -1.000000e+00 0.000000e+00
    outer loop
      vertex   -5.461889e+01 6.417654e+01 3.700000e+01
      vertex   -4.794481e+01 6.417654e+01 3.500000e+01
      vertex   -4.161889e+01 6.417654e+01 3.700000e+01
    endloop
  endfacet
  facet normal 0.000000e+00 -1.000000e+00 0.000000e+00
    outer loop
      vertex   -5.461889e+01 6.417654e+01 3.700000e+01
      vertex   -4.844481e+01 6.417654e+01 3.500000e+01
      vertex   -4.794481e+01 6.417654e+01 3.500000e+01
    endloop
  endfacet
  facet normal 0.000000e+00 -1.000000e+00 0.000000e+00
    outer loop
      vertex   -5.461889e+01 6.417654e+01 3.700000e+01
      vertex   -5.461889e+01 6.417654e+01 2.000000e+00
      vertex   -4.844481e+01 6.417654e+01 3.500000e+01
    endloop
  endfacet
  facet normal 0.000000e+00 -1.000000e+00 -0.000000e+00
    outer loop
      vertex   -4.844481e+01 6.417654e+01 3.500000e+01
      vertex   -5.461889e+01 6.417654e+01 2.000000e+00
      vertex   -4.844481e+01 6.417654e+01 2.000000e+00
    endloop
  endfacet
  facet normal -1.000000e+00 0.000000e+00 2.030122e-16
    outer loop
      vertex   -4.669481e+01 4.417654e+01 3.700000e+01
      vertex   -4.669481e+01 5.117654e+01 3.700000e+01
      vertex   -4.669481e+01 4.417654e+01 2.000000e+00
    endloop
  endfacet
  facet normal -1.000000e+00 0.000000e+00 2.030122e-16
    outer loop
      vertex   -4.669481e+01 4.417654e+01 2.000000e+00
      vertex   -4.669481e+01 5.117654e+01 3.700000e+01
      vertex   -4.669481e+01 5.117654e+01 2.000000e+00
    endloop
  endfacet
  facet normal -0.000000e+00 -1.000000e+00 0.000000e+00
    outer loop
      vertex   -3.911889e+01 4.417654e+01 2.000000e+00
      vertex   -3.911889e+01 4.417654e+01 3.700000e+01
      vertex   -4.669481e+01 4.417654e+01 2.000000e+00
    endloop
  endfacet
  facet normal 0.000000e+00 -1.000000e+00 0.000000e+00
    outer loop
      vertex   -4.669481e+01 4.417654e+01 2.000000e+00
      vertex   -3.911889e+01 4.417654e+01 3.700000e+01
      vertex   -4.669481e+01 4.417654e+01 3.700000e+01
    endloop
  endfacet
  facet normal 1.000000e+00 0.000000e+00 0.000000e+00
    outer loop
      vertex   -3.911889e+01 7.717964e+01 3.700000e+01
      vertex   -3.911889e+01 4.417654e+01 3.700000e+01
      vertex   -3.911889e+01 7.717964e+01 2.000000e+00
    endloop
  endfacet
  facet normal 1.000000e+00 0.000000e+00 0.000000e+00
    outer loop
      vertex   -3.911889e+01 7.717964e+01 2.000000e+00
      vertex   -3.911889e+01 4.417654e+01 3.700000e+01
      vertex   -3.911889e+01 4.417654e+01 2.000000e+00
    endloop
  endfacet
  facet normal -0.000000e+00 -1.000000e+00 -0.000000e+00
    outer loop
      vertex   -2.489305e+01 7.717964e+01 2.207107e+01
      vertex   -3.911889e+01 7.717964e+01 3.700000e+01
      vertex   -3.196412e+01 7.717964e+01 1.500000e+01
    endloop
  endfacet
  facet normal 0.000000e+00 -1.000000e+00 0.000000e+00
    outer loop
      vertex   -2.489305e+01 7.717964e+01 2.207107e+01
      vertex   -1.361889e+01 7.717964e+01 3.700000e+01
      vertex   -3.911889e+01 7.717964e+01 3.700000e+01
    endloop
  endfacet
  facet normal 0.000000e+00 -1.000000e+00 0.000000e+00
    outer loop
      vertex   -2.489305e+01 7.717964e+01 2.207107e+01
      vertex   -1.428645e+01 7.717964e+01 1.146447e+01
      vertex   -1.361889e+01 7.717964e+01 3.700000e+01
    endloop
  endfacet
  facet normal 0.000000e+00 -1.000000e+00 -0.000000e+00
    outer loop
      vertex   -1.361889e+01 7.717964e+01 3.700000e+01
      vertex   -1.428645e+01 7.717964e+01 1.146447e+01
      vertex   -1.361889e+01 7.717964e+01 2.000000e+00
    endloop
  endfacet
  facet normal -0.000000e+00 -1.000000e+00 0.000000e+00
    outer loop
      vertex   -1.361889e+01 7.717964e+01 2.000000e+00
      vertex   -1.428645e+01 7.717964e+01 1.146447e+01
      vertex   -2.135752e+01 7.717964e+01 4.393398e+00
    endloop
  endfacet
  facet normal 0.000000e+00 -1.000000e+00 0.000000e+00
    outer loop
      vertex   -3.911889e+01 7.717964e+01 2.000000e+00
      vertex   -2.135752e+01 7.717964e+01 4.393398e+00
      vertex   -3.196412e+01 7.717964e+01 1.500000e+01
    endloop
  endfacet
  facet normal 0.000000e+00 -1.000000e+00 0.000000e+00
    outer loop
      vertex   -3.911889e+01 7.717964e+01 3.700000e+01
      vertex   -3.911889e+01 7.717964e+01 2.000000e+00
      vertex   -3.196412e+01 7.717964e+01 1.500000e+01
    endloop
  endfacet
  facet normal -0.000000e+00 -1.000000e+00 0.000000e+00
    outer loop
      vertex   -1.361889e+01 7.717964e+01 2.000000e+00
      vertex   -2.135752e+01 7.717964e+01 4.393398e+00
      vertex   -3.911889e+01 7.717964e+01 2.000000e+00
    endloop
  endfacet
  facet normal -1.000000e+00 0.000000e+00 0.000000e+00
    outer loop
      vertex   -1.361889e+01 3.817640e+01 2.000000e+00
      vertex   -1.361889e+01 3.817640e+01 3.700000e+01
      vertex   -1.361889e+01 7.717964e+01 2.000000e+00
    endloop
  endfacet
  facet normal -1.000000e+00 0.000000e+00 0.000000e+00
    outer loop
      vertex   -1.361889e+01 7.717964e+01 2.000000e+00
      vertex   -1.361889e+01 3.817640e+01 3.700000e+01
      vertex   -1.361889e+01 7.717964e+01 3.700000e+01
    endloop
  endfacet
  facet normal -0.000000e+00 -0.000000e+00 -1.000000e+00
    outer loop
      vertex   -4.794481e+01 6.617654e+01 3.500000e+01
      vertex   -4.794481e+01 6.417654e+01 3.500000e+01
      vertex   -4.844481e+01 6.617654e+01 3.500000e+01
    endloop
  endfacet
  facet normal -0.000000e+00 -0.000000e+00 -1.000000e+00
    outer loop
      vertex   -4.844481e+01 6.617654e+01 3.500000e+01
      vertex   -4.794481e+01 6.417654e+01 3.500000e+01
      vertex   -4.844481e+01 6.417654e+01 3.500000e+01
    endloop
  endfacet
  facet normal -0.000000e+00 -0.000000e+00 -1.000000e+00
    outer loop
      vertex   -4.794481e+01 7.742654e+01 3.500000e+01
      vertex   -4.794481e+01 7.617654e+01 3.500000e+01
      vertex   -4.844481e+01 7.742654e+01 3.500000e+01
    endloop
  endfacet
  facet normal -0.000000e+00 -0.000000e+00 -1.000000e+00
    outer loop
      vertex   -4.844481e+01 7.742654e+01 3.500000e+01
      vertex   -4.794481e+01 7.617654e+01 3.500000e+01
      vertex   -4.844481e+01 7.617654e+01 3.500000e+01
    endloop
  endfacet
  facet normal 1.000000e+00 0.000000e+00 0.000000e+00
    outer loop
      vertex   -4.844481e+01 6.617654e+01 3.500000e+01
      vertex   -4.844481e+01 6.417654e+01 3.500000e+01
      vertex   -4.844481e+01 6.617654e+01 2.000000e+00
    endloop
  endfacet
  facet normal 1.000000e+00 0.000000e+00 0.000000e+00
    outer loop
      vertex   -4.844481e+01 6.617654e+01 2.000000e+00
      vertex   -4.844481e+01 6.417654e+01 3.500000e+01
      vertex   -4.844481e+01 6.417654e+01 2.000000e+00
    endloop
  endfacet
  facet normal 1.000000e+00 0.000000e+00 -0.000000e+00
    outer loop
      vertex   -4.844481e+01 7.742654e+01 1.999998e+00
      vertex   -4.844481e+01 7.742654e+01 3.500000e+01
      vertex   -4.844481e+01 7.617654e+01 2.000000e+00
    endloop
  endfacet
  facet normal 1.000000e+00 0.000000e+00 -0.000000e+00
    outer loop
      vertex   -4.844481e+01 7.617654e+01 2.000000e+00
      vertex   -4.844481e+01 7.742654e+01 3.500000e+01
      vertex   -4.844481e+01 7.617654e+01 3.500000e+01
    endloop
  endfacet
  facet normal -0.000000e+00 1.000000e+00 0.000000e+00
    outer loop
      vertex   -5.461889e+01 5.117654e+01 2.000000e+00
      vertex   -5.461889e+01 5.117654e+01 3.700000e+01
      vertex   -4.969481e+01 5.117654e+01 2.000000e+00
    endloop
  endfacet
  facet normal 0.000000e+00 1.000000e+00 -0.000000e+00
    outer loop
      vertex   -4.969481e+01 5.117654e+01 2.000000e+00
      vertex   -5.461889e+01 5.117654e+01 3.700000e+01
      vertex   -4.969481e+01 5.117654e+01 3.700000e+01
    endloop
  endfacet
  facet normal 3.466062e-16 1.000000e+00 1.407306e-31
    outer loop
      vertex   -5.461889e+01 3.817640e+01 2.000000e+00
      vertex   -5.461889e+01 3.817640e+01 3.700000e+01
      vertex   -1.361889e+01 3.817640e+01 2.000000e+00
    endloop
  endfacet
  facet normal 3.466062e-16 1.000000e+00 0.000000e+00
    outer loop
      vertex   -1.361889e+01 3.817640e+01 2.000000e+00
      vertex   -5.461889e+01 3.817640e+01 3.700000e+01
      vertex   -1.361889e+01 3.817640e+01 3.700000e+01
    endloop
  endfacet
  facet normal 7.071068e-01 7.071068e-01 0.000000e+00
    outer loop
      vertex   -4.994481e+01 7.917654e+01 3.500000e+01
      vertex   -4.869481e+01 7.792654e+01 3.500000e+01
      vertex   -4.994481e+01 7.917654e+01 2.000000e+00
    endloop
  endfacet
  facet normal 7.071068e-01 7.071068e-01 0.000000e+00
    outer loop
      vertex   -4.994481e+01 7.917654e+01 2.000000e+00
      vertex   -4.869481e+01 7.792654e+01 3.500000e+01
      vertex   -4.869481e+01 7.792654e+01 1.999998e+00
    endloop
  endfacet
  facet normal 1.000000e+00 0.000000e+00 -0.000000e+00
    outer loop
      vertex   -5.292057e+01 7.792654e+01 1.999998e+00
      vertex   -5.292057e+01 7.792654e+01 3.700000e+01
      vertex   -5.292057e+01 7.742654e+01 1.999998e+00
    endloop
  endfacet
  facet normal 1.000000e+00 0.000000e+00 -0.000000e+00
    outer loop
      vertex   -5.292057e+01 7.742654e+01 1.999998e+00
      vertex   -5.292057e+01 7.792654e+01 3.700000e+01
      vertex   -5.292057e+01 7.742654e+01 3.700000e+01
    endloop
  endfacet
  facet normal 0.000000e+00 0.000000e+00 -1.000000e+00
    outer loop
      vertex   -4.869481e+01 7.792654e+01 3.500000e+01
      vertex   -4.994481e+01 7.917654e+01 3.500000e+01
      vertex   -4.769481e+01 7.792654e+01 3.500000e+01
    endloop
  endfacet
  facet normal 0.000000e+00 0.000000e+00 -1.000000e+00
    outer loop
      vertex   -4.769481e+01 7.792654e+01 3.500000e+01
      vertex   -4.994481e+01 7.917654e+01 3.500000e+01
      vertex   -4.644481e+01 7.917654e+01 3.500000e+01
    endloop
  endfacet
  facet normal 1.000000e+00 0.000000e+00 2.030122e-16
    outer loop
      vertex   -4.969481e+01 5.117654e+01 3.700000e+01
      vertex   -4.969481e+01 4.417654e+01 3.700000e+01
      vertex   -4.969481e+01 5.117654e+01 2.000000e+00
    endloop
  endfacet
  facet normal 1.000000e+00 0.000000e+00 2.030122e-16
    outer loop
      vertex   -4.969481e+01 5.117654e+01 2.000000e+00
      vertex   -4.969481e+01 4.417654e+01 3.700000e+01
      vertex   -4.969481e+01 4.417654e+01 2.000000e+00
    endloop
  endfacet
  facet normal -2.885992e-15 -1.000000e+00 -5.858917e-31
    outer loop
      vertex   -4.969481e+01 4.417654e+01 2.000000e+00
      vertex   -4.969481e+01 4.417654e+01 3.700000e+01
      vertex   -5.461889e+01 4.417654e+01 2.000000e+00
    endloop
  endfacet
  facet normal -0.000000e+00 -1.000000e+00 -4.060244e-16
    outer loop
      vertex   -5.461889e+01 4.417654e+01 2.000000e+00
      vertex   -4.969481e+01 4.417654e+01 3.700000e+01
      vertex   -5.461889e+01 4.417654e+01 3.700000e+01
    endloop
  endfacet
  facet normal 1.000000e+00 0.000000e+00 -0.000000e+00
    outer loop
      vertex   -5.461889e+01 6.417654e+01 2.000000e+00
      vertex   -5.461889e+01 6.417654e+01 3.700000e+01
      vertex   -5.461889e+01 5.117654e+01 2.000000e+00
    endloop
  endfacet
  facet normal 1.000000e+00 0.000000e+00 -0.000000e+00
    outer loop
      vertex   -5.461889e+01 5.117654e+01 2.000000e+00
      vertex   -5.461889e+01 6.417654e+01 3.700000e+01
      vertex   -5.461889e+01 5.117654e+01 3.700000e+01
    endloop
  endfacet
  facet normal 1.000000e+00 0.000000e+00 -0.000000e+00
    outer loop
      vertex   -5.461889e+01 7.617654e+01 2.000000e+00
      vertex   -5.461889e+01 7.617654e+01 3.700000e+01
      vertex   -5.461889e+01 6.617654e+01 2.000000e+00
    endloop
  endfacet
  facet normal 1.000000e+00 0.000000e+00 -0.000000e+00
    outer loop
      vertex   -5.461889e+01 6.617654e+01 2.000000e+00
      vertex   -5.461889e+01 7.617654e+01 3.700000e+01
      vertex   -5.461889e+01 6.617654e+01 3.700000e+01
    endloop
  endfacet
  facet normal 1.000000e+00 2.368423e-15 9.616374e-31
    outer loop
      vertex   -5.461889e+01 4.417654e+01 2.000000e+00
      vertex   -5.461889e+01 4.417654e+01 3.700000e+01
      vertex   -5.461889e+01 3.817640e+01 2.000000e+00
    endloop
  endfacet
  facet normal 1.000000e+00 -4.808187e-30 4.060244e-16
    outer loop
      vertex   -5.461889e+01 3.817640e+01 2.000000e+00
      vertex   -5.461889e+01 4.417654e+01 3.700000e+01
      vertex   -5.461889e+01 3.817640e+01 3.700000e+01
    endloop
  endfacet
  facet normal -1.000000e+00 -2.272528e-08 -6.357251e-07
    outer loop
      vertex   -5.761889e+01 7.617809e+01 -2.000000e+00
      vertex   -5.761889e+01 1.111956e+02 2.000000e+00
      vertex   -5.761889e+01 1.181796e+02 -2.000000e+00
    endloop
  endfacet
  facet normal -1.000000e+00 -8.034194e-08 -1.313275e-07
    outer loop
      vertex   -5.761889e+01 7.617809e+01 -2.000000e+00
      vertex   -5.761889e+01 1.111956e+02 1.400000e+01
      vertex   -5.761889e+01 1.111956e+02 2.000000e+00
    endloop
  endfacet
  facet normal -1.000000e+00 -4.818515e-07 7.474137e-07
    outer loop
      vertex   -5.761889e+01 7.617809e+01 -2.000000e+00
      vertex   -5.761889e+01 1.081992e+02 2.100000e+01
      vertex   -5.761889e+01 1.111956e+02 1.400000e+01
    endloop
  endfacet
  facet normal -1.000000e+00 6.868881e-08 -1.906011e-08
    outer loop
      vertex   -5.761889e+01 7.617809e+01 -2.000000e+00
      vertex   -5.761889e+01 8.700000e+01 3.700000e+01
      vertex   -5.761889e+01 1.081992e+02 2.100000e+01
    endloop
  endfacet
  facet normal -1.000000e+00 6.320454e-08 -1.753831e-08
    outer loop
      vertex   -5.761889e+01 7.617809e+01 -2.000000e+00
      vertex   -5.761889e+01 3.417654e+01 3.700000e+01
      vertex   -5.761889e+01 8.700000e+01 3.700000e+01
    endloop
  endfacet
  facet normal -1.000000e+00 7.948951e-08 -1.717973e-15
    outer loop
      vertex   -5.761889e+01 7.617809e+01 -2.000000e+00
      vertex   -5.761889e+01 3.417654e+01 -2.000000e+00
      vertex   -5.761889e+01 3.417654e+01 3.700000e+01
    endloop
  endfacet
  facet normal -1.000000e+00 8.718712e-08 5.449195e-09
    outer loop
      vertex   -5.761889e+01 8.700000e+01 3.700000e+01
      vertex   -5.761889e+01 1.071992e+02 3.700000e+01
      vertex   -5.761889e+01 1.081992e+02 2.100000e+01
    endloop
  endfacet
  facet normal -1.000000e+00 0.000000e+00 0.000000e+00
    outer loop
      vertex   -5.761889e+01 1.081992e+02 2.100000e+01
      vertex   -5.761889e+01 1.071992e+02 3.700000e+01
      vertex   -5.761889e+01 1.081992e+02 3.700000e+01
    endloop
  endfacet
  facet normal -1.000000e+00 -2.227907e-06 -0.000000e+00
    outer loop
      vertex   -5.761889e+01 1.081992e+02 2.100000e+01
      vertex   -5.761889e+01 1.111956e+02 2.100000e+01
      vertex   -5.761889e+01 1.111956e+02 1.400000e+01
    endloop
  endfacet
  facet normal -1.000000e+00 0.000000e+00 -5.960464e-07
    outer loop
      vertex   -5.761889e+01 1.111956e+02 2.000000e+00
      vertex   -5.761889e+01 1.141796e+02 2.000000e+00
      vertex   -5.761889e+01 1.181796e+02 -2.000000e+00
    endloop
  endfacet
  facet normal -1.000000e+00 5.349135e-07 -6.113297e-08
    outer loop
      vertex   -5.761889e+01 1.181796e+02 -2.000000e+00
      vertex   -5.761889e+01 1.141796e+02 2.000000e+00
      vertex   -5.761889e+01 1.181796e+02 3.700000e+01
    endloop
  endfacet
  facet normal -1.000000e+00 1.776354e-15 -2.030119e-16
    outer loop
      vertex   -5.761889e+01 1.181796e+02 3.700000e+01
      vertex   -5.761889e+01 1.141796e+02 2.000000e+00
      vertex   -5.761889e+01 1.141796e+02 3.700000e+01
    endloop
  endfacet
endsolid
