solid ascii
  facet normal 0.000000e+00 -0.000000e+00 1.000000e+00
    outer loop
      vertex   -6.161889e+01 1.151992e+02 4.000000e+00
      vertex   -4.424865e+01 1.151992e+02 4.000000e+00
      vertex   -6.161889e+01 1.171796e+02 4.000000e+00
    endloop
  endfacet
  facet normal -0.000000e+00 0.000000e+00 1.000000e+00
    outer loop
      vertex   -6.161889e+01 1.171796e+02 4.000000e+00
      vertex   -4.424865e+01 1.151992e+02 4.000000e+00
      vertex   -2.838764e+01 1.171796e+02 4.000000e+00
    endloop
  endfacet
  facet normal 0.000000e+00 0.000000e+00 1.000000e+00
    outer loop
      vertex   -2.838764e+01 1.171796e+02 4.000000e+00
      vertex   -4.424865e+01 1.151992e+02 4.000000e+00
      vertex   -2.838764e+01 1.151796e+02 4.000000e+00
    endloop
  endfacet
  facet normal 0.000000e+00 0.000000e+00 1.000000e+00
    outer loop
      vertex   -2.838764e+01 1.151796e+02 4.000000e+00
      vertex   -4.424865e+01 1.151992e+02 4.000000e+00
      vertex   -4.361889e+01 1.151796e+02 4.000000e+00
    endloop
  endfacet
  facet normal 0.000000e+00 0.000000e+00 1.000000e+00
    outer loop
      vertex   -4.361889e+01 1.151796e+02 4.000000e+00
      vertex   -4.424865e+01 1.151992e+02 4.000000e+00
      vertex   -4.424865e+01 1.151796e+02 4.000000e+00
    endloop
  endfacet
  facet normal 0.000000e+00 1.000000e+00 0.000000e+00
    outer loop
      vertex   -4.424865e+01 1.151796e+02 4.200000e+01
      vertex   -4.361889e+01 1.151796e+02 4.200000e+01
      vertex   -4.424865e+01 1.151796e+02 4.000000e+00
    endloop
  endfacet
  facet normal -0.000000e+00 1.000000e+00 0.000000e+00
    outer loop
      vertex   -4.424865e+01 1.151796e+02 4.000000e+00
      vertex   -4.361889e+01 1.151796e+02 4.200000e+01
      vertex   -4.361889e+01 1.151796e+02 4.000000e+00
    endloop
  endfacet
  facet normal -0.000000e+00 1.000000e+00 0.000000e+00
    outer loop
      vertex   -5.461889e+01 5.117654e+01 2.000000e+00
      vertex   -5.461889e+01 5.117654e+01 4.200000e+01
      vertex   -4.969481e+01 5.117654e+01 2.000000e+00
    endloop
  endfacet
  facet normal 0.000000e+00 1.000000e+00 -0.000000e+00
    outer loop
      vertex   -4.969481e+01 5.117654e+01 2.000000e+00
      vertex   -5.461889e+01 5.117654e+01 4.200000e+01
      vertex   -4.969481e+01 5.117654e+01 4.200000e+01
    endloop
  endfacet
  facet normal 0.000000e+00 1.000000e+00 0.000000e+00
    outer loop
      vertex   -4.161889e+01 5.117654e+01 4.200000e+01
      vertex   -4.161889e+01 5.117654e+01 2.000000e+00
      vertex   -4.669481e+01 5.117654e+01 4.200000e+01
    endloop
  endfacet
  facet normal 0.000000e+00 1.000000e+00 0.000000e+00
    outer loop
      vertex   -4.669481e+01 5.117654e+01 4.200000e+01
      vertex   -4.161889e+01 5.117654e+01 2.000000e+00
      vertex   -4.669481e+01 5.117654e+01 2.000000e+00
    endloop
  endfacet
  facet normal 1.277243e-08 -7.004734e-17 1.000000e+00
    outer loop
      vertex   -4.761889e+01 1.111992e+02 2.000000e+00
      vertex   -6.161889e+01 1.111992e+02 2.000000e+00
      vertex   -4.761889e+01 9.217964e+01 2.000000e+00
    endloop
  endfacet
  facet normal 6.410119e-09 -4.683200e-09 1.000000e+00
    outer loop
      vertex   -4.761889e+01 9.217964e+01 2.000000e+00
      vertex   -6.161889e+01 1.111992e+02 2.000000e+00
      vertex   -5.711889e+01 7.917654e+01 2.000000e+00
    endloop
  endfacet
  facet normal -1.857057e-16 1.356756e-16 1.000000e+00
    outer loop
      vertex   -4.994481e+01 7.917654e+01 2.000000e+00
      vertex   -4.761889e+01 9.217964e+01 2.000000e+00
      vertex   -5.711889e+01 7.917654e+01 2.000000e+00
    endloop
  endfacet
  facet normal 2.537653e-16 5.706561e-17 1.000000e+00
    outer loop
      vertex   -4.994481e+01 7.917654e+01 2.000000e+00
      vertex   -4.644481e+01 7.917653e+01 2.000000e+00
      vertex   -4.761889e+01 9.217964e+01 2.000000e+00
    endloop
  endfacet
  facet normal -1.662826e-12 -1.525882e-06 1.000000e+00
    outer loop
      vertex   -4.994481e+01 7.917654e+01 2.000000e+00
      vertex   -4.769481e+01 7.792654e+01 1.999998e+00
      vertex   -4.644481e+01 7.917653e+01 2.000000e+00
    endloop
  endfacet
  facet normal 0.000000e+00 -1.525879e-06 1.000000e+00
    outer loop
      vertex   -4.994481e+01 7.917654e+01 2.000000e+00
      vertex   -4.869481e+01 7.792654e+01 1.999998e+00
      vertex   -4.769481e+01 7.792654e+01 1.999998e+00
    endloop
  endfacet
  facet normal 0.000000e+00 0.000000e+00 1.000000e+00
    outer loop
      vertex   -4.769481e+01 7.792654e+01 1.999998e+00
      vertex   -4.869481e+01 7.792654e+01 1.999998e+00
      vertex   -4.769481e+01 7.742654e+01 1.999998e+00
    endloop
  endfacet
  facet normal 0.000000e+00 0.000000e+00 1.000000e+00
    outer loop
      vertex   -4.292057e+01 7.742654e+01 1.999998e+00
      vertex   -4.769481e+01 7.792654e+01 1.999998e+00
      vertex   -4.769481e+01 7.742654e+01 1.999998e+00
    endloop
  endfacet
  facet normal 0.000000e+00 -0.000000e+00 1.000000e+00
    outer loop
      vertex   -4.292057e+01 7.742654e+01 1.999998e+00
      vertex   -4.292057e+01 7.792654e+01 1.999998e+00
      vertex   -4.769481e+01 7.792654e+01 1.999998e+00
    endloop
  endfacet
  facet normal 4.885241e-09 -4.897484e-09 1.000000e+00
    outer loop
      vertex   -6.161889e+01 1.111992e+02 2.000000e+00
      vertex   -6.161889e+01 7.468779e+01 2.000000e+00
      vertex   -5.711889e+01 7.917654e+01 2.000000e+00
    endloop
  endfacet
  facet normal 9.868649e-17 2.003456e-32 1.000000e+00
    outer loop
      vertex   -5.711889e+01 7.917654e+01 2.000000e+00
      vertex   -6.161889e+01 7.468779e+01 2.000000e+00
      vertex   -5.711889e+01 4.417654e+01 2.000000e+00
    endloop
  endfacet
  facet normal -1.276643e-14 -1.897432e-15 1.000000e+00
    outer loop
      vertex   -5.711889e+01 4.417654e+01 2.000000e+00
      vertex   -6.161889e+01 7.468779e+01 2.000000e+00
      vertex   -6.161889e+01 3.817640e+01 2.000000e+00
    endloop
  endfacet
  facet normal 0.000000e+00 -1.184211e-14 1.000000e+00
    outer loop
      vertex   -4.969481e+01 4.417654e+01 2.000000e+00
      vertex   -6.161889e+01 3.817640e+01 2.000000e+00
      vertex   -4.669481e+01 4.417654e+01 2.000000e+00
    endloop
  endfacet
  facet normal -0.000000e+00 0.000000e+00 1.000000e+00
    outer loop
      vertex   -4.969481e+01 5.117654e+01 2.000000e+00
      vertex   -4.669481e+01 4.417654e+01 2.000000e+00
      vertex   -4.669481e+01 5.117654e+01 2.000000e+00
    endloop
  endfacet
  facet normal 0.000000e+00 3.416071e-17 1.000000e+00
    outer loop
      vertex   -4.869481e+01 6.417654e+01 2.000000e+00
      vertex   -4.669481e+01 5.117654e+01 2.000000e+00
      vertex   -4.769481e+01 6.417654e+01 2.000000e+00
    endloop
  endfacet
  facet normal -0.000000e+00 0.000000e+00 1.000000e+00
    outer loop
      vertex   -4.869481e+01 6.617654e+01 2.000000e+00
      vertex   -4.769481e+01 6.417654e+01 2.000000e+00
      vertex   -4.769481e+01 6.617654e+01 2.000000e+00
    endloop
  endfacet
  facet normal 0.000000e+00 -4.440892e-17 1.000000e+00
    outer loop
      vertex   -4.869481e+01 7.617654e+01 2.000000e+00
      vertex   -4.769481e+01 6.617654e+01 2.000000e+00
      vertex   -4.769481e+01 7.617654e+01 2.000000e+00
    endloop
  endfacet
  facet normal 0.000000e+00 1.525879e-06 1.000000e+00
    outer loop
      vertex   -4.869481e+01 7.742654e+01 1.999998e+00
      vertex   -4.769481e+01 7.617654e+01 2.000000e+00
      vertex   -4.769481e+01 7.742654e+01 1.999998e+00
    endloop
  endfacet
  facet normal -0.000000e+00 0.000000e+00 1.000000e+00
    outer loop
      vertex   -4.869481e+01 7.792654e+01 1.999998e+00
      vertex   -4.869481e+01 7.742654e+01 1.999998e+00
      vertex   -4.769481e+01 7.742654e+01 1.999998e+00
    endloop
  endfacet
  facet normal 0.000000e+00 0.000000e+00 1.000000e+00
    outer loop
      vertex   -4.869481e+01 7.792654e+01 1.999998e+00
      vertex   -5.292057e+01 7.792654e+01 1.999998e+00
      vertex   -4.869481e+01 7.742654e+01 1.999998e+00
    endloop
  endfacet
  facet normal 0.000000e+00 0.000000e+00 1.000000e+00
    outer loop
      vertex   -4.869481e+01 7.742654e+01 1.999998e+00
      vertex   -5.292057e+01 7.792654e+01 1.999998e+00
      vertex   -5.292057e+01 7.742654e+01 1.999998e+00
    endloop
  endfacet
  facet normal 0.000000e+00 -1.184211e-14 1.000000e+00
    outer loop
      vertex   -4.669481e+01 4.417654e+01 2.000000e+00
      vertex   -6.161889e+01 3.817640e+01 2.000000e+00
      vertex   -3.911889e+01 4.417654e+01 2.000000e+00
    endloop
  endfacet
  facet normal -1.480297e-15 -6.291122e-15 1.000000e+00
    outer loop
      vertex   -3.911889e+01 4.417654e+01 2.000000e+00
      vertex   -6.161889e+01 3.817640e+01 2.000000e+00
      vertex   -1.361889e+01 3.817640e+01 2.000000e+00
    endloop
  endfacet
  facet normal 4.286574e-16 1.821753e-15 1.000000e+00
    outer loop
      vertex   -1.361889e+01 7.717964e+01 2.000000e+00
      vertex   -3.911889e+01 4.417654e+01 2.000000e+00
      vertex   -1.361889e+01 3.817640e+01 2.000000e+00
    endloop
  endfacet
  facet normal 7.012314e-09 -5.418095e-09 1.000000e+00
    outer loop
      vertex   -1.361889e+01 7.717964e+01 2.000000e+00
      vertex   -3.911889e+01 7.717964e+01 2.000000e+00
      vertex   -3.911889e+01 4.417654e+01 2.000000e+00
    endloop
  endfacet
  facet normal 0.000000e+00 -0.000000e+00 1.000000e+00
    outer loop
      vertex   -4.969481e+01 4.417654e+01 2.000000e+00
      vertex   -4.669481e+01 4.417654e+01 2.000000e+00
      vertex   -4.969481e+01 5.117654e+01 2.000000e+00
    endloop
  endfacet
  facet normal 0.000000e+00 -0.000000e+00 1.000000e+00
    outer loop
      vertex   -4.161889e+01 5.117654e+01 2.000000e+00
      vertex   -4.161889e+01 6.417654e+01 2.000000e+00
      vertex   -4.669481e+01 5.117654e+01 2.000000e+00
    endloop
  endfacet
  facet normal -7.309003e-17 2.853840e-17 1.000000e+00
    outer loop
      vertex   -4.669481e+01 5.117654e+01 2.000000e+00
      vertex   -4.161889e+01 6.417654e+01 2.000000e+00
      vertex   -4.769481e+01 6.417654e+01 2.000000e+00
    endloop
  endfacet
  facet normal 0.000000e+00 -0.000000e+00 1.000000e+00
    outer loop
      vertex   -4.869481e+01 6.417654e+01 2.000000e+00
      vertex   -4.769481e+01 6.417654e+01 2.000000e+00
      vertex   -4.869481e+01 6.617654e+01 2.000000e+00
    endloop
  endfacet
  facet normal 2.701305e-16 -4.440892e-17 1.000000e+00
    outer loop
      vertex   -4.769481e+01 6.617654e+01 2.000000e+00
      vertex   -4.111889e+01 6.617654e+01 2.000000e+00
      vertex   -4.769481e+01 7.617654e+01 2.000000e+00
    endloop
  endfacet
  facet normal 0.000000e+00 -2.220446e-16 1.000000e+00
    outer loop
      vertex   -4.769481e+01 7.617654e+01 2.000000e+00
      vertex   -4.111889e+01 6.617654e+01 2.000000e+00
      vertex   -4.111889e+01 7.617654e+01 2.000000e+00
    endloop
  endfacet
  facet normal -0.000000e+00 1.525879e-06 1.000000e+00
    outer loop
      vertex   -4.869481e+01 7.617654e+01 2.000000e+00
      vertex   -4.769481e+01 7.617654e+01 2.000000e+00
      vertex   -4.869481e+01 7.742654e+01 1.999998e+00
    endloop
  endfacet
  facet normal 0.000000e+00 3.415255e-17 1.000000e+00
    outer loop
      vertex   -4.761889e+01 9.217964e+01 2.000000e+00
      vertex   -4.644481e+01 7.917653e+01 2.000000e+00
      vertex   -4.361889e+01 9.217964e+01 2.000000e+00
    endloop
  endfacet
  facet normal 6.061889e-17 2.097846e-17 1.000000e+00
    outer loop
      vertex   -4.361889e+01 9.217964e+01 2.000000e+00
      vertex   -4.644481e+01 7.917653e+01 2.000000e+00
      vertex   -3.911889e+01 7.917654e+01 2.000000e+00
    endloop
  endfacet
  facet normal -7.012312e-09 -2.426760e-09 1.000000e+00
    outer loop
      vertex   -1.361889e+01 7.917653e+01 2.000000e+00
      vertex   -4.361889e+01 9.217964e+01 2.000000e+00
      vertex   -3.911889e+01 7.917654e+01 2.000000e+00
    endloop
  endfacet
  facet normal -4.631161e-09 3.066889e-09 1.000000e+00
    outer loop
      vertex   -1.361889e+01 7.917653e+01 2.000000e+00
      vertex   -2.838764e+01 1.151796e+02 2.000000e+00
      vertex   -4.361889e+01 9.217964e+01 2.000000e+00
    endloop
  endfacet
  facet normal -1.210759e-08 -2.622655e-24 1.000000e+00
    outer loop
      vertex   -1.361889e+01 7.917653e+01 2.000000e+00
      vertex   -1.361889e+01 1.201796e+02 2.000000e+00
      vertex   -2.838764e+01 1.151796e+02 2.000000e+00
    endloop
  endfacet
  facet normal -1.210759e-08 0.000000e+00 1.000000e+00
    outer loop
      vertex   -2.838764e+01 1.151796e+02 2.000000e+00
      vertex   -1.361889e+01 1.201796e+02 2.000000e+00
      vertex   -2.838764e+01 1.171796e+02 2.000000e+00
    endloop
  endfacet
  facet normal 0.000000e+00 -5.960467e-08 1.000000e+00
    outer loop
      vertex   -2.838764e+01 1.171796e+02 2.000000e+00
      vertex   -1.361889e+01 1.201796e+02 2.000000e+00
      vertex   -6.161889e+01 1.201796e+02 2.000000e+00
    endloop
  endfacet
  facet normal 5.380899e-09 0.000000e+00 1.000000e+00
    outer loop
      vertex   -6.161889e+01 1.171796e+02 2.000000e+00
      vertex   -2.838764e+01 1.171796e+02 2.000000e+00
      vertex   -6.161889e+01 1.201796e+02 2.000000e+00
    endloop
  endfacet
  facet normal 4.694189e-15 -1.930823e-17 1.000000e+00
    outer loop
      vertex   -2.838764e+01 1.151796e+02 2.000000e+00
      vertex   -4.361889e+01 1.151796e+02 2.000000e+00
      vertex   -4.361889e+01 9.217964e+01 2.000000e+00
    endloop
  endfacet
  facet normal -2.990870e-16 -1.124774e-14 1.000000e+00
    outer loop
      vertex   -4.969481e+01 4.417654e+01 2.000000e+00
      vertex   -5.711889e+01 4.417654e+01 2.000000e+00
      vertex   -6.161889e+01 3.817640e+01 2.000000e+00
    endloop
  endfacet
  facet normal 0.000000e+00 -4.440892e-17 1.000000e+00
    outer loop
      vertex   -4.769481e+01 6.617654e+01 2.000000e+00
      vertex   -4.869481e+01 7.617654e+01 2.000000e+00
      vertex   -4.869481e+01 6.617654e+01 2.000000e+00
    endloop
  endfacet
  facet normal 0.000000e+00 -4.440892e-17 1.000000e+00
    outer loop
      vertex   -4.869481e+01 6.617654e+01 2.000000e+00
      vertex   -4.869481e+01 7.617654e+01 2.000000e+00
      vertex   -5.511889e+01 7.617654e+01 2.000000e+00
    endloop
  endfacet
  facet normal -2.765154e-16 -2.220446e-16 1.000000e+00
    outer loop
      vertex   -5.511889e+01 6.617654e+01 2.000000e+00
      vertex   -4.869481e+01 6.617654e+01 2.000000e+00
      vertex   -5.511889e+01 7.617654e+01 2.000000e+00
    endloop
  endfacet
  facet normal 0.000000e+00 3.416071e-17 1.000000e+00
    outer loop
      vertex   -4.669481e+01 5.117654e+01 2.000000e+00
      vertex   -4.869481e+01 6.417654e+01 2.000000e+00
      vertex   -4.969481e+01 5.117654e+01 2.000000e+00
    endloop
  endfacet
  facet normal 7.496341e-17 2.839429e-17 1.000000e+00
    outer loop
      vertex   -4.969481e+01 5.117654e+01 2.000000e+00
      vertex   -4.869481e+01 6.417654e+01 2.000000e+00
      vertex   -5.461889e+01 6.417654e+01 2.000000e+00
    endloop
  endfacet
  facet normal 0.000000e+00 -0.000000e+00 1.000000e+00
    outer loop
      vertex   -5.461889e+01 5.117654e+01 2.000000e+00
      vertex   -4.969481e+01 5.117654e+01 2.000000e+00
      vertex   -5.461889e+01 6.417654e+01 2.000000e+00
    endloop
  endfacet
  facet normal 1.000000e+00 -0.000000e+00 0.000000e+00
    outer loop
      vertex   -5.461889e+01 5.117654e+01 4.200000e+01
      vertex   -5.461889e+01 5.117654e+01 2.000000e+00
      vertex   -5.461889e+01 6.417654e+01 4.200000e+01
    endloop
  endfacet
  facet normal 1.000000e+00 -0.000000e+00 0.000000e+00
    outer loop
      vertex   -5.461889e+01 6.417654e+01 4.200000e+01
      vertex   -5.461889e+01 5.117654e+01 2.000000e+00
      vertex   -5.461889e+01 6.417654e+01 2.000000e+00
    endloop
  endfacet
  facet normal -1.000000e+00 0.000000e+00 0.000000e+00
    outer loop
      vertex   -4.161889e+01 5.117654e+01 2.000000e+00
      vertex   -4.161889e+01 5.117654e+01 4.200000e+01
      vertex   -4.161889e+01 6.417654e+01 2.000000e+00
    endloop
  endfacet
  facet normal -1.000000e+00 0.000000e+00 0.000000e+00
    outer loop
      vertex   -4.161889e+01 6.417654e+01 2.000000e+00
      vertex   -4.161889e+01 5.117654e+01 4.200000e+01
      vertex   -4.161889e+01 6.417654e+01 4.200000e+01
    endloop
  endfacet
  facet normal 0.000000e+00 -1.000000e+00 0.000000e+00
    outer loop
      vertex   -5.461889e+01 6.417654e+01 2.000000e+00
      vertex   -4.869481e+01 6.417654e+01 4.000000e+01
      vertex   -5.461889e+01 6.417654e+01 4.200000e+01
    endloop
  endfacet
  facet normal 0.000000e+00 -1.000000e+00 0.000000e+00
    outer loop
      vertex   -5.461889e+01 6.417654e+01 2.000000e+00
      vertex   -4.869481e+01 6.417654e+01 2.000000e+00
      vertex   -4.869481e+01 6.417654e+01 4.000000e+01
    endloop
  endfacet
  facet normal 0.000000e+00 -1.000000e+00 0.000000e+00
    outer loop
      vertex   -4.869481e+01 6.417654e+01 4.000000e+01
      vertex   -4.769481e+01 6.417654e+01 4.000000e+01
      vertex   -5.461889e+01 6.417654e+01 4.200000e+01
    endloop
  endfacet
  facet normal 0.000000e+00 -1.000000e+00 0.000000e+00
    outer loop
      vertex   -5.461889e+01 6.417654e+01 4.200000e+01
      vertex   -4.769481e+01 6.417654e+01 4.000000e+01
      vertex   -4.161889e+01 6.417654e+01 4.200000e+01
    endloop
  endfacet
  facet normal 0.000000e+00 -1.000000e+00 -0.000000e+00
    outer loop
      vertex   -4.161889e+01 6.417654e+01 4.200000e+01
      vertex   -4.769481e+01 6.417654e+01 4.000000e+01
      vertex   -4.161889e+01 6.417654e+01 2.000000e+00
    endloop
  endfacet
  facet normal -0.000000e+00 -1.000000e+00 -0.000000e+00
    outer loop
      vertex   -4.161889e+01 6.417654e+01 2.000000e+00
      vertex   -4.769481e+01 6.417654e+01 4.000000e+01
      vertex   -4.769481e+01 6.417654e+01 2.000000e+00
    endloop
  endfacet
  facet normal 2.960595e-16 1.000000e+00 0.000000e+00
    outer loop
      vertex   -1.361889e+01 3.817640e+01 4.200000e+01
      vertex   -1.361889e+01 3.817640e+01 2.000000e+00
      vertex   -6.161889e+01 3.817640e+01 4.200000e+01
    endloop
  endfacet
  facet normal 2.960595e-16 1.000000e+00 0.000000e+00
    outer loop
      vertex   -6.161889e+01 3.817640e+01 4.200000e+01
      vertex   -1.361889e+01 3.817640e+01 2.000000e+00
      vertex   -6.161889e+01 3.817640e+01 2.000000e+00
    endloop
  endfacet
  facet normal -8.940697e-08 0.000000e+00 1.000000e+00
    outer loop
      vertex   -4.111889e+01 6.617654e+01 4.200000e+01
      vertex   -3.911889e+01 7.717964e+01 4.200000e+01
      vertex   -4.111889e+01 7.617654e+01 4.200000e+01
    endloop
  endfacet
  facet normal -5.959904e-08 -5.418095e-09 1.000000e+00
    outer loop
      vertex   -4.111889e+01 6.617654e+01 4.200000e+01
      vertex   -3.911889e+01 4.417654e+01 4.200000e+01
      vertex   -3.911889e+01 7.717964e+01 4.200000e+01
    endloop
  endfacet
  facet normal 0.000000e+00 0.000000e+00 1.000000e+00
    outer loop
      vertex   -4.111889e+01 6.617654e+01 4.200000e+01
      vertex   -4.161889e+01 6.417654e+01 4.200000e+01
      vertex   -3.911889e+01 4.417654e+01 4.200000e+01
    endloop
  endfacet
  facet normal -0.000000e+00 0.000000e+00 1.000000e+00
    outer loop
      vertex   -4.111889e+01 6.617654e+01 4.200000e+01
      vertex   -5.461889e+01 6.417654e+01 4.200000e+01
      vertex   -4.161889e+01 6.417654e+01 4.200000e+01
    endloop
  endfacet
  facet normal 0.000000e+00 0.000000e+00 1.000000e+00
    outer loop
      vertex   -4.111889e+01 6.617654e+01 4.200000e+01
      vertex   -5.511889e+01 6.617654e+01 4.200000e+01
      vertex   -5.461889e+01 6.417654e+01 4.200000e+01
    endloop
  endfacet
  facet normal 0.000000e+00 0.000000e+00 1.000000e+00
    outer loop
      vertex   -5.461889e+01 6.417654e+01 4.200000e+01
      vertex   -5.511889e+01 6.617654e+01 4.200000e+01
      vertex   -5.711889e+01 4.417654e+01 4.200000e+01
    endloop
  endfacet
  facet normal -0.000000e+00 0.000000e+00 1.000000e+00
    outer loop
      vertex   -5.461889e+01 5.117654e+01 4.200000e+01
      vertex   -5.711889e+01 4.417654e+01 4.200000e+01
      vertex   -4.969481e+01 4.417654e+01 4.200000e+01
    endloop
  endfacet
  facet normal 0.000000e+00 0.000000e+00 1.000000e+00
    outer loop
      vertex   -4.969481e+01 5.117654e+01 4.200000e+01
      vertex   -5.461889e+01 5.117654e+01 4.200000e+01
      vertex   -4.969481e+01 4.417654e+01 4.200000e+01
    endloop
  endfacet
  facet normal 0.000000e+00 -0.000000e+00 1.000000e+00
    outer loop
      vertex   -5.711889e+01 4.417654e+01 4.200000e+01
      vertex   -5.511889e+01 6.617654e+01 4.200000e+01
      vertex   -5.711889e+01 7.917654e+01 4.200000e+01
    endloop
  endfacet
  facet normal -0.000000e+00 0.000000e+00 1.000000e+00
    outer loop
      vertex   -5.711889e+01 7.917654e+01 4.200000e+01
      vertex   -5.511889e+01 6.617654e+01 4.200000e+01
      vertex   -5.511889e+01 7.617654e+01 4.200000e+01
    endloop
  endfacet
  facet normal 8.676407e-07 0.000000e+00 1.000000e+00
    outer loop
      vertex   -5.292057e+01 7.792654e+01 4.200000e+01
      vertex   -5.511889e+01 7.617654e+01 4.200000e+01
      vertex   -5.292057e+01 7.742654e+01 4.200000e+01
    endloop
  endfacet
  facet normal 5.668227e-07 3.778818e-07 1.000000e+00
    outer loop
      vertex   -5.292057e+01 7.792654e+01 4.200000e+01
      vertex   -5.711889e+01 7.917654e+01 4.200000e+01
      vertex   -5.511889e+01 7.617654e+01 4.200000e+01
    endloop
  endfacet
  facet normal 0.000000e+00 -1.525879e-06 1.000000e+00
    outer loop
      vertex   -5.292057e+01 7.792654e+01 4.200000e+01
      vertex   -4.292057e+01 7.792654e+01 4.200000e+01
      vertex   -5.711889e+01 7.917654e+01 4.200000e+01
    endloop
  endfacet
  facet normal -4.110967e-09 -1.572574e-06 1.000000e+00
    outer loop
      vertex   -5.711889e+01 7.917654e+01 4.200000e+01
      vertex   -4.292057e+01 7.792654e+01 4.200000e+01
      vertex   -1.361889e+01 7.917653e+01 4.200000e+01
    endloop
  endfacet
  facet normal -1.563902e-07 1.997080e-06 1.000000e+00
    outer loop
      vertex   -1.361889e+01 7.917653e+01 4.200000e+01
      vertex   -4.292057e+01 7.792654e+01 4.200000e+01
      vertex   -3.911889e+01 7.717964e+01 4.200000e+01
    endloop
  endfacet
  facet normal 7.012314e-09 -8.954624e-08 1.000000e+00
    outer loop
      vertex   -1.361889e+01 7.717964e+01 4.200000e+01
      vertex   -1.361889e+01 7.917653e+01 4.200000e+01
      vertex   -3.911889e+01 7.717964e+01 4.200000e+01
    endloop
  endfacet
  facet normal 5.397244e-08 -8.954627e-08 1.000000e+00
    outer loop
      vertex   -1.361889e+01 7.717964e+01 4.200000e+01
      vertex   -9.618890e+00 7.959057e+01 4.200000e+01
      vertex   -1.361889e+01 7.917653e+01 4.200000e+01
    endloop
  endfacet
  facet normal -1.776357e-14 0.000000e+00 1.000000e+00
    outer loop
      vertex   -1.361889e+01 7.717964e+01 4.200000e+01
      vertex   -1.361889e+01 3.817640e+01 4.200000e+01
      vertex   -9.618890e+00 7.959057e+01 4.200000e+01
    endloop
  endfacet
  facet normal -1.264830e-15 -1.593536e-15 1.000000e+00
    outer loop
      vertex   -9.618890e+00 7.959057e+01 4.200000e+01
      vertex   -1.361889e+01 3.817640e+01 4.200000e+01
      vertex   -9.618890e+00 3.500150e+01 4.200000e+01
    endloop
  endfacet
  facet normal 0.000000e+00 0.000000e+00 1.000000e+00
    outer loop
      vertex   -9.618890e+00 3.500150e+01 4.200000e+01
      vertex   -1.361889e+01 3.817640e+01 4.200000e+01
      vertex   -9.990846e+00 3.500150e+01 4.200000e+01
    endloop
  endfacet
  facet normal 0.000000e+00 0.000000e+00 1.000000e+00
    outer loop
      vertex   -9.990846e+00 3.500150e+01 4.200000e+01
      vertex   -1.361889e+01 3.817640e+01 4.200000e+01
      vertex   -9.990846e+00 3.417654e+01 4.200000e+01
    endloop
  endfacet
  facet normal 0.000000e+00 0.000000e+00 1.000000e+00
    outer loop
      vertex   -9.990846e+00 3.417654e+01 4.200000e+01
      vertex   -1.361889e+01 3.817640e+01 4.200000e+01
      vertex   -6.161889e+01 3.417654e+01 4.200000e+01
    endloop
  endfacet
  facet normal 0.000000e+00 -0.000000e+00 1.000000e+00
    outer loop
      vertex   -6.161889e+01 3.417654e+01 4.200000e+01
      vertex   -1.361889e+01 3.817640e+01 4.200000e+01
      vertex   -6.161889e+01 3.817640e+01 4.200000e+01
    endloop
  endfacet
  facet normal -0.000000e+00 1.525879e-06 1.000000e+00
    outer loop
      vertex   -5.511889e+01 7.617654e+01 4.200000e+01
      vertex   -4.111889e+01 7.617654e+01 4.200000e+01
      vertex   -5.292057e+01 7.742654e+01 4.200000e+01
    endloop
  endfacet
  facet normal 0.000000e+00 1.525879e-06 1.000000e+00
    outer loop
      vertex   -5.292057e+01 7.742654e+01 4.200000e+01
      vertex   -4.111889e+01 7.617654e+01 4.200000e+01
      vertex   -4.292057e+01 7.742654e+01 4.200000e+01
    endloop
  endfacet
  facet normal -1.058648e-06 0.000000e+00 1.000000e+00
    outer loop
      vertex   -4.292057e+01 7.742654e+01 4.200000e+01
      vertex   -4.111889e+01 7.617654e+01 4.200000e+01
      vertex   -4.292057e+01 7.792654e+01 4.200000e+01
    endloop
  endfacet
  facet normal -4.194601e-07 6.580653e-07 1.000000e+00
    outer loop
      vertex   -4.292057e+01 7.792654e+01 4.200000e+01
      vertex   -4.111889e+01 7.617654e+01 4.200000e+01
      vertex   -3.911889e+01 7.717964e+01 4.200000e+01
    endloop
  endfacet
  facet normal 4.470350e-08 5.810001e-24 1.000000e+00
    outer loop
      vertex   -1.361889e+01 7.917653e+01 4.200000e+01
      vertex   -9.618890e+00 7.959057e+01 4.200000e+01
      vertex   -1.361889e+01 1.201796e+02 4.200000e+01
    endloop
  endfacet
  facet normal 4.010267e-09 -4.010264e-09 1.000000e+00
    outer loop
      vertex   -1.361889e+01 1.201796e+02 4.200000e+01
      vertex   -9.618890e+00 7.959057e+01 4.200000e+01
      vertex   -9.618890e+00 1.241796e+02 4.200000e+01
    endloop
  endfacet
  facet normal -0.000000e+00 0.000000e+00 1.000000e+00
    outer loop
      vertex   -6.161889e+01 1.241796e+02 4.200000e+01
      vertex   -1.361889e+01 1.201796e+02 4.200000e+01
      vertex   -9.618890e+00 1.241796e+02 4.200000e+01
    endloop
  endfacet
  facet normal -0.000000e+00 0.000000e+00 1.000000e+00
    outer loop
      vertex   -6.161889e+01 1.241796e+02 4.200000e+01
      vertex   -6.161889e+01 1.201796e+02 4.200000e+01
      vertex   -1.361889e+01 1.201796e+02 4.200000e+01
    endloop
  endfacet
  facet normal -0.000000e+00 0.000000e+00 1.000000e+00
    outer loop
      vertex   -5.461889e+01 6.417654e+01 4.200000e+01
      vertex   -5.711889e+01 4.417654e+01 4.200000e+01
      vertex   -5.461889e+01 5.117654e+01 4.200000e+01
    endloop
  endfacet
  facet normal 0.000000e+00 0.000000e+00 1.000000e+00
    outer loop
      vertex   -4.161889e+01 6.417654e+01 4.200000e+01
      vertex   -4.161889e+01 5.117654e+01 4.200000e+01
      vertex   -3.911889e+01 4.417654e+01 4.200000e+01
    endloop
  endfacet
  facet normal 0.000000e+00 0.000000e+00 1.000000e+00
    outer loop
      vertex   -3.911889e+01 4.417654e+01 4.200000e+01
      vertex   -4.161889e+01 5.117654e+01 4.200000e+01
      vertex   -4.669481e+01 4.417654e+01 4.200000e+01
    endloop
  endfacet
  facet normal 0.000000e+00 -0.000000e+00 1.000000e+00
    outer loop
      vertex   -4.669481e+01 4.417654e+01 4.200000e+01
      vertex   -4.161889e+01 5.117654e+01 4.200000e+01
      vertex   -4.669481e+01 5.117654e+01 4.200000e+01
    endloop
  endfacet
  facet normal -0.000000e+00 0.000000e+00 1.000000e+00
    outer loop
      vertex   -9.990846e+00 3.500150e+01 2.000000e+00
      vertex   -9.990846e+00 3.417654e+01 2.000000e+00
      vertex   -9.618890e+00 3.500150e+01 2.000000e+00
    endloop
  endfacet
  facet normal -1.910285e-13 8.613026e-14 1.000000e+00
    outer loop
      vertex   -9.618890e+00 3.500150e+01 2.000000e+00
      vertex   -9.990846e+00 3.417654e+01 2.000000e+00
      vertex   -9.618890e+00 3.417654e+01 2.000000e+00
    endloop
  endfacet
  facet normal 1.000000e+00 0.000000e+00 -0.000000e+00
    outer loop
      vertex   -9.990846e+00 3.500150e+01 2.000000e+00
      vertex   -9.990846e+00 3.500150e+01 4.200000e+01
      vertex   -9.990846e+00 3.417654e+01 2.000000e+00
    endloop
  endfacet
  facet normal 1.000000e+00 0.000000e+00 -0.000000e+00
    outer loop
      vertex   -9.990846e+00 3.417654e+01 2.000000e+00
      vertex   -9.990846e+00 3.500150e+01 4.200000e+01
      vertex   -9.990846e+00 3.417654e+01 4.200000e+01
    endloop
  endfacet
  facet normal -1.376273e-16 -1.000000e+00 0.000000e+00
    outer loop
      vertex   -9.990846e+00 3.417654e+01 4.200000e+01
      vertex   -6.161889e+01 3.417654e+01 4.200000e+01
      vertex   -9.990846e+00 3.417654e+01 2.000000e+00
    endloop
  endfacet
  facet normal 1.389983e-08 -1.000000e+00 1.794053e-08
    outer loop
      vertex   -9.990846e+00 3.417654e+01 2.000000e+00
      vertex   -6.161889e+01 3.417654e+01 4.200000e+01
      vertex   -6.161889e+01 3.417654e+01 7.105427e-14
    endloop
  endfacet
  facet normal 0.000000e+00 -1.000000e+00 3.767512e-07
    outer loop
      vertex   -9.618890e+00 3.417654e+01 7.105427e-14
      vertex   -9.990846e+00 3.417654e+01 2.000000e+00
      vertex   -6.161889e+01 3.417654e+01 7.105427e-14
    endloop
  endfacet
  facet normal -2.025783e-06 -1.000000e+00 3.552714e-15
    outer loop
      vertex   -9.618890e+00 3.417654e+01 7.105427e-14
      vertex   -9.618890e+00 3.417654e+01 2.000000e+00
      vertex   -9.990846e+00 3.417654e+01 2.000000e+00
    endloop
  endfacet
  facet normal 7.071068e-01 7.071068e-01 0.000000e+00
    outer loop
      vertex   -4.994481e+01 7.917654e+01 4.000000e+01
      vertex   -4.869481e+01 7.792654e+01 4.000000e+01
      vertex   -4.994481e+01 7.917654e+01 2.000000e+00
    endloop
  endfacet
  facet normal 7.071068e-01 7.071068e-01 0.000000e+00
    outer loop
      vertex   -4.994481e+01 7.917654e+01 2.000000e+00
      vertex   -4.869481e+01 7.792654e+01 4.000000e+01
      vertex   -4.869481e+01 7.792654e+01 1.999998e+00
    endloop
  endfacet
  facet normal -7.071068e-01 7.071068e-01 -7.098417e-08
    outer loop
      vertex   -4.644481e+01 7.917654e+01 4.000000e+01
      vertex   -4.644481e+01 7.917653e+01 2.000000e+00
      vertex   -4.769481e+01 7.792654e+01 4.000000e+01
    endloop
  endfacet
  facet normal -7.071057e-01 7.071079e-01 0.000000e+00
    outer loop
      vertex   -4.769481e+01 7.792654e+01 4.000000e+01
      vertex   -4.644481e+01 7.917653e+01 2.000000e+00
      vertex   -4.769481e+01 7.792654e+01 1.999998e+00
    endloop
  endfacet
  facet normal 0.000000e+00 1.000000e+00 -0.000000e+00
    outer loop
      vertex   -4.994481e+01 7.917654e+01 2.000000e+00
      vertex   -5.711889e+01 7.917654e+01 2.000000e+00
      vertex   -4.994481e+01 7.917654e+01 4.000000e+01
    endloop
  endfacet
  facet normal 0.000000e+00 1.000000e+00 -0.000000e+00
    outer loop
      vertex   -4.994481e+01 7.917654e+01 4.000000e+01
      vertex   -5.711889e+01 7.917654e+01 2.000000e+00
      vertex   -5.711889e+01 7.917654e+01 4.200000e+01
    endloop
  endfacet
  facet normal 1.918310e-07 1.000000e+00 1.023810e-06
    outer loop
      vertex   -4.644481e+01 7.917654e+01 4.000000e+01
      vertex   -5.711889e+01 7.917654e+01 4.200000e+01
      vertex   -1.361889e+01 7.917653e+01 4.200000e+01
    endloop
  endfacet
  facet normal 1.451764e-07 1.000000e+00 1.451764e-07
    outer loop
      vertex   -2.489305e+01 7.917653e+01 2.207107e+01
      vertex   -1.361889e+01 7.917653e+01 4.200000e+01
      vertex   -1.428645e+01 7.917653e+01 1.146447e+01
    endloop
  endfacet
  facet normal 2.489405e-07 1.000000e+00 8.647515e-08
    outer loop
      vertex   -2.489305e+01 7.917653e+01 2.207107e+01
      vertex   -4.644481e+01 7.917654e+01 4.000000e+01
      vertex   -1.361889e+01 7.917653e+01 4.200000e+01
    endloop
  endfacet
  facet normal 9.662185e-08 1.000000e+00 -9.662185e-08
    outer loop
      vertex   -2.489305e+01 7.917653e+01 2.207107e+01
      vertex   -3.196412e+01 7.917653e+01 1.500000e+01
      vertex   -4.644481e+01 7.917654e+01 4.000000e+01
    endloop
  endfacet
  facet normal 9.012195e-08 1.000000e+00 -1.003868e-07
    outer loop
      vertex   -4.644481e+01 7.917654e+01 4.000000e+01
      vertex   -3.196412e+01 7.917653e+01 1.500000e+01
      vertex   -4.644481e+01 7.917653e+01 2.000000e+00
    endloop
  endfacet
  facet normal -5.207124e-07 1.000000e+00 5.800211e-07
    outer loop
      vertex   -4.644481e+01 7.917653e+01 2.000000e+00
      vertex   -3.196412e+01 7.917653e+01 1.500000e+01
      vertex   -3.911889e+01 7.917654e+01 2.000000e+00
    endloop
  endfacet
  facet normal -4.270915e-08 1.000000e+00 3.169440e-07
    outer loop
      vertex   -3.911889e+01 7.917654e+01 2.000000e+00
      vertex   -3.196412e+01 7.917653e+01 1.500000e+01
      vertex   -2.135752e+01 7.917654e+01 4.393398e+00
    endloop
  endfacet
  facet normal 9.510277e-07 1.000000e+00 -4.115481e-07
    outer loop
      vertex   -1.361889e+01 7.917653e+01 2.000000e+00
      vertex   -2.135752e+01 7.917654e+01 4.393398e+00
      vertex   -1.428645e+01 7.917653e+01 1.146447e+01
    endloop
  endfacet
  facet normal 6.785811e-06 1.000000e+00 0.000000e+00
    outer loop
      vertex   -1.361889e+01 7.917653e+01 4.200000e+01
      vertex   -1.361889e+01 7.917653e+01 2.000000e+00
      vertex   -1.428645e+01 7.917653e+01 1.146447e+01
    endloop
  endfacet
  facet normal -0.000000e+00 1.000000e+00 -0.000000e+00
    outer loop
      vertex   -4.994481e+01 7.917654e+01 4.000000e+01
      vertex   -5.711889e+01 7.917654e+01 4.200000e+01
      vertex   -4.644481e+01 7.917654e+01 4.000000e+01
    endloop
  endfacet
  facet normal 3.272412e-07 1.000000e+00 -2.428452e-06
    outer loop
      vertex   -1.361889e+01 7.917653e+01 2.000000e+00
      vertex   -3.911889e+01 7.917654e+01 2.000000e+00
      vertex   -2.135752e+01 7.917654e+01 4.393398e+00
    endloop
  endfacet
  facet normal 0.000000e+00 -1.000000e+00 0.000000e+00
    outer loop
      vertex   -4.769481e+01 7.792654e+01 1.999998e+00
      vertex   -4.292057e+01 7.792654e+01 1.999998e+00
      vertex   -4.769481e+01 7.792654e+01 4.000000e+01
    endloop
  endfacet
  facet normal 0.000000e+00 -1.000000e+00 0.000000e+00
    outer loop
      vertex   -4.769481e+01 7.792654e+01 4.000000e+01
      vertex   -4.292057e+01 7.792654e+01 1.999998e+00
      vertex   -4.292057e+01 7.792654e+01 4.200000e+01
    endloop
  endfacet
  facet normal 0.000000e+00 -1.000000e+00 0.000000e+00
    outer loop
      vertex   -5.292057e+01 7.792654e+01 4.200000e+01
      vertex   -4.769481e+01 7.792654e+01 4.000000e+01
      vertex   -4.292057e+01 7.792654e+01 4.200000e+01
    endloop
  endfacet
  facet normal 0.000000e+00 -1.000000e+00 0.000000e+00
    outer loop
      vertex   -5.292057e+01 7.792654e+01 4.200000e+01
      vertex   -4.869481e+01 7.792654e+01 4.000000e+01
      vertex   -4.769481e+01 7.792654e+01 4.000000e+01
    endloop
  endfacet
  facet normal 0.000000e+00 -1.000000e+00 0.000000e+00
    outer loop
      vertex   -5.292057e+01 7.792654e+01 4.200000e+01
      vertex   -5.292057e+01 7.792654e+01 1.999998e+00
      vertex   -4.869481e+01 7.792654e+01 4.000000e+01
    endloop
  endfacet
  facet normal 0.000000e+00 -1.000000e+00 -0.000000e+00
    outer loop
      vertex   -4.869481e+01 7.792654e+01 4.000000e+01
      vertex   -5.292057e+01 7.792654e+01 1.999998e+00
      vertex   -4.869481e+01 7.792654e+01 1.999998e+00
    endloop
  endfacet
  facet normal -0.000000e+00 1.000000e+00 0.000000e+00
    outer loop
      vertex   -4.769481e+01 7.742654e+01 1.999998e+00
      vertex   -4.769481e+01 7.742654e+01 4.000000e+01
      vertex   -4.292057e+01 7.742654e+01 1.999998e+00
    endloop
  endfacet
  facet normal 0.000000e+00 1.000000e+00 -0.000000e+00
    outer loop
      vertex   -4.292057e+01 7.742654e+01 1.999998e+00
      vertex   -4.769481e+01 7.742654e+01 4.000000e+01
      vertex   -4.292057e+01 7.742654e+01 4.200000e+01
    endloop
  endfacet
  facet normal 0.000000e+00 1.000000e+00 0.000000e+00
    outer loop
      vertex   -4.292057e+01 7.742654e+01 4.200000e+01
      vertex   -4.769481e+01 7.742654e+01 4.000000e+01
      vertex   -5.292057e+01 7.742654e+01 4.200000e+01
    endloop
  endfacet
  facet normal 0.000000e+00 1.000000e+00 0.000000e+00
    outer loop
      vertex   -5.292057e+01 7.742654e+01 4.200000e+01
      vertex   -4.769481e+01 7.742654e+01 4.000000e+01
      vertex   -4.869481e+01 7.742654e+01 4.000000e+01
    endloop
  endfacet
  facet normal -0.000000e+00 1.000000e+00 0.000000e+00
    outer loop
      vertex   -5.292057e+01 7.742654e+01 1.999998e+00
      vertex   -4.869481e+01 7.742654e+01 4.000000e+01
      vertex   -4.869481e+01 7.742654e+01 1.999998e+00
    endloop
  endfacet
  facet normal -0.000000e+00 1.000000e+00 0.000000e+00
    outer loop
      vertex   -5.292057e+01 7.742654e+01 1.999998e+00
      vertex   -5.292057e+01 7.742654e+01 4.200000e+01
      vertex   -4.869481e+01 7.742654e+01 4.000000e+01
    endloop
  endfacet
  facet normal 1.000000e+00 0.000000e+00 -0.000000e+00
    outer loop
      vertex   -5.292057e+01 7.792654e+01 1.999998e+00
      vertex   -5.292057e+01 7.792654e+01 4.200000e+01
      vertex   -5.292057e+01 7.742654e+01 1.999998e+00
    endloop
  endfacet
  facet normal 1.000000e+00 0.000000e+00 -0.000000e+00
    outer loop
      vertex   -5.292057e+01 7.742654e+01 1.999998e+00
      vertex   -5.292057e+01 7.792654e+01 4.200000e+01
      vertex   -5.292057e+01 7.742654e+01 4.200000e+01
    endloop
  endfacet
  facet normal -1.000000e+00 0.000000e+00 0.000000e+00
    outer loop
      vertex   -4.292057e+01 7.742654e+01 1.999998e+00
      vertex   -4.292057e+01 7.742654e+01 4.200000e+01
      vertex   -4.292057e+01 7.792654e+01 1.999998e+00
    endloop
  endfacet
  facet normal -1.000000e+00 0.000000e+00 0.000000e+00
    outer loop
      vertex   -4.292057e+01 7.792654e+01 1.999998e+00
      vertex   -4.292057e+01 7.742654e+01 4.200000e+01
      vertex   -4.292057e+01 7.792654e+01 4.200000e+01
    endloop
  endfacet
  facet normal 0.000000e+00 0.000000e+00 -1.000000e+00
    outer loop
      vertex   -4.869481e+01 7.792654e+01 4.000000e+01
      vertex   -4.994481e+01 7.917654e+01 4.000000e+01
      vertex   -4.769481e+01 7.792654e+01 4.000000e+01
    endloop
  endfacet
  facet normal 0.000000e+00 0.000000e+00 -1.000000e+00
    outer loop
      vertex   -4.769481e+01 7.792654e+01 4.000000e+01
      vertex   -4.994481e+01 7.917654e+01 4.000000e+01
      vertex   -4.644481e+01 7.917654e+01 4.000000e+01
    endloop
  endfacet
  facet normal -1.000000e+00 0.000000e+00 0.000000e+00
    outer loop
      vertex   -4.769481e+01 7.742654e+01 1.999998e+00
      vertex   -4.769481e+01 7.617654e+01 2.000000e+00
      vertex   -4.769481e+01 7.742654e+01 4.000000e+01
    endloop
  endfacet
  facet normal -1.000000e+00 -0.000000e+00 0.000000e+00
    outer loop
      vertex   -4.769481e+01 7.742654e+01 4.000000e+01
      vertex   -4.769481e+01 7.617654e+01 2.000000e+00
      vertex   -4.769481e+01 7.617654e+01 4.000000e+01
    endloop
  endfacet
  facet normal 1.000000e+00 0.000000e+00 -0.000000e+00
    outer loop
      vertex   -4.869481e+01 7.742654e+01 1.999998e+00
      vertex   -4.869481e+01 7.742654e+01 4.000000e+01
      vertex   -4.869481e+01 7.617654e+01 2.000000e+00
    endloop
  endfacet
  facet normal 1.000000e+00 0.000000e+00 -0.000000e+00
    outer loop
      vertex   -4.869481e+01 7.617654e+01 2.000000e+00
      vertex   -4.869481e+01 7.742654e+01 4.000000e+01
      vertex   -4.869481e+01 7.617654e+01 4.000000e+01
    endloop
  endfacet
  facet normal 0.000000e+00 -1.000000e+00 0.000000e+00
    outer loop
      vertex   -4.769481e+01 7.617654e+01 2.000000e+00
      vertex   -4.111889e+01 7.617654e+01 2.000000e+00
      vertex   -4.769481e+01 7.617654e+01 4.000000e+01
    endloop
  endfacet
  facet normal 0.000000e+00 -1.000000e+00 0.000000e+00
    outer loop
      vertex   -4.769481e+01 7.617654e+01 4.000000e+01
      vertex   -4.111889e+01 7.617654e+01 2.000000e+00
      vertex   -4.111889e+01 7.617654e+01 4.200000e+01
    endloop
  endfacet
  facet normal 0.000000e+00 -1.000000e+00 0.000000e+00
    outer loop
      vertex   -5.511889e+01 7.617654e+01 4.200000e+01
      vertex   -4.769481e+01 7.617654e+01 4.000000e+01
      vertex   -4.111889e+01 7.617654e+01 4.200000e+01
    endloop
  endfacet
  facet normal 0.000000e+00 -1.000000e+00 0.000000e+00
    outer loop
      vertex   -5.511889e+01 7.617654e+01 4.200000e+01
      vertex   -4.869481e+01 7.617654e+01 4.000000e+01
      vertex   -4.769481e+01 7.617654e+01 4.000000e+01
    endloop
  endfacet
  facet normal 0.000000e+00 -1.000000e+00 0.000000e+00
    outer loop
      vertex   -5.511889e+01 7.617654e+01 4.200000e+01
      vertex   -5.511889e+01 7.617654e+01 2.000000e+00
      vertex   -4.869481e+01 7.617654e+01 4.000000e+01
    endloop
  endfacet
  facet normal 0.000000e+00 -1.000000e+00 -0.000000e+00
    outer loop
      vertex   -4.869481e+01 7.617654e+01 4.000000e+01
      vertex   -5.511889e+01 7.617654e+01 2.000000e+00
      vertex   -4.869481e+01 7.617654e+01 2.000000e+00
    endloop
  endfacet
  facet normal 1.000000e+00 0.000000e+00 -0.000000e+00
    outer loop
      vertex   -5.511889e+01 7.617654e+01 2.000000e+00
      vertex   -5.511889e+01 7.617654e+01 4.200000e+01
      vertex   -5.511889e+01 6.617654e+01 2.000000e+00
    endloop
  endfacet
  facet normal 1.000000e+00 0.000000e+00 -0.000000e+00
    outer loop
      vertex   -5.511889e+01 6.617654e+01 2.000000e+00
      vertex   -5.511889e+01 7.617654e+01 4.200000e+01
      vertex   -5.511889e+01 6.617654e+01 4.200000e+01
    endloop
  endfacet
  facet normal -1.000000e+00 -0.000000e+00 -0.000000e+00
    outer loop
      vertex   -4.111889e+01 7.617654e+01 4.200000e+01
      vertex   -4.111889e+01 7.617654e+01 2.000000e+00
      vertex   -4.111889e+01 6.617654e+01 4.200000e+01
    endloop
  endfacet
  facet normal -1.000000e+00 0.000000e+00 -0.000000e+00
    outer loop
      vertex   -4.111889e+01 6.617654e+01 4.200000e+01
      vertex   -4.111889e+01 7.617654e+01 2.000000e+00
      vertex   -4.111889e+01 6.617654e+01 2.000000e+00
    endloop
  endfacet
  facet normal 1.000000e+00 -0.000000e+00 0.000000e+00
    outer loop
      vertex   -2.838764e+01 1.151796e+02 4.000000e+00
      vertex   -2.838764e+01 1.151796e+02 2.000000e+00
      vertex   -2.838764e+01 1.171796e+02 4.000000e+00
    endloop
  endfacet
  facet normal 1.000000e+00 -0.000000e+00 0.000000e+00
    outer loop
      vertex   -2.838764e+01 1.171796e+02 4.000000e+00
      vertex   -2.838764e+01 1.151796e+02 2.000000e+00
      vertex   -2.838764e+01 1.171796e+02 2.000000e+00
    endloop
  endfacet
  facet normal 0.000000e+00 1.000000e+00 -0.000000e+00
    outer loop
      vertex   -2.838764e+01 1.171796e+02 2.000000e+00
      vertex   -6.161889e+01 1.171796e+02 2.000000e+00
      vertex   -2.838764e+01 1.171796e+02 4.000000e+00
    endloop
  endfacet
  facet normal 0.000000e+00 1.000000e+00 -0.000000e+00
    outer loop
      vertex   -2.838764e+01 1.171796e+02 4.000000e+00
      vertex   -6.161889e+01 1.171796e+02 2.000000e+00
      vertex   -6.161889e+01 1.171796e+02 4.000000e+00
    endloop
  endfacet
  facet normal -0.000000e+00 -1.000000e+00 0.000000e+00
    outer loop
      vertex   -2.838764e+01 1.151796e+02 2.000000e+00
      vertex   -2.838764e+01 1.151796e+02 4.000000e+00
      vertex   -4.361889e+01 1.151796e+02 2.000000e+00
    endloop
  endfacet
  facet normal 0.000000e+00 -1.000000e+00 0.000000e+00
    outer loop
      vertex   -4.361889e+01 1.151796e+02 2.000000e+00
      vertex   -2.838764e+01 1.151796e+02 4.000000e+00
      vertex   -4.361889e+01 1.151796e+02 4.000000e+00
    endloop
  endfacet
  facet normal -1.000000e+00 -2.166125e-16 8.881783e-17
    outer loop
      vertex   -1.361889e+01 1.201796e+02 2.000000e+00
      vertex   -1.361889e+01 7.917653e+01 2.000000e+00
      vertex   -1.361889e+01 1.201796e+02 4.200000e+01
    endloop
  endfacet
  facet normal -1.000000e+00 -1.299675e-16 0.000000e+00
    outer loop
      vertex   -1.361889e+01 1.201796e+02 4.200000e+01
      vertex   -1.361889e+01 7.917653e+01 2.000000e+00
      vertex   -1.361889e+01 7.917653e+01 4.200000e+01
    endloop
  endfacet
  facet normal 0.000000e+00 -1.000000e+00 -3.968929e-08
    outer loop
      vertex   -1.361889e+01 1.201796e+02 2.000000e+00
      vertex   -1.361889e+01 1.201796e+02 4.200000e+01
      vertex   -6.161889e+01 1.201796e+02 2.000000e+00
    endloop
  endfacet
  facet normal 9.437401e-08 -1.000000e+00 -1.529381e-07
    outer loop
      vertex   -6.161889e+01 1.201796e+02 2.000000e+00
      vertex   -1.361889e+01 1.201796e+02 4.200000e+01
      vertex   -6.161889e+01 1.201796e+02 4.200000e+01
    endloop
  endfacet
  facet normal -0.000000e+00 1.000000e+00 0.000000e+00
    outer loop
      vertex   -6.161889e+01 1.241796e+02 4.200000e+01
      vertex   -9.618890e+00 1.241796e+02 4.200000e+01
      vertex   -6.161889e+01 1.241796e+02 7.105427e-14
    endloop
  endfacet
  facet normal -0.000000e+00 1.000000e+00 0.000000e+00
    outer loop
      vertex   -6.161889e+01 1.241796e+02 7.105427e-14
      vertex   -9.618890e+00 1.241796e+02 4.200000e+01
      vertex   -9.618890e+00 1.241796e+02 7.105427e-14
    endloop
  endfacet
  facet normal 0.000000e+00 -1.000000e+00 0.000000e+00
    outer loop
      vertex   -9.990846e+00 3.500150e+01 4.200000e+01
      vertex   -9.990846e+00 3.500150e+01 2.000000e+00
      vertex   -9.618890e+00 3.500150e+01 4.200000e+01
    endloop
  endfacet
  facet normal 0.000000e+00 -1.000000e+00 -0.000000e+00
    outer loop
      vertex   -9.618890e+00 3.500150e+01 4.200000e+01
      vertex   -9.990846e+00 3.500150e+01 2.000000e+00
      vertex   -9.618890e+00 3.500150e+01 2.000000e+00
    endloop
  endfacet
  facet normal -1.000000e+00 -0.000000e+00 -0.000000e+00
    outer loop
      vertex   -1.361889e+01 7.717964e+01 4.200000e+01
      vertex   -1.361889e+01 7.717964e+01 2.000000e+00
      vertex   -1.361889e+01 3.817640e+01 4.200000e+01
    endloop
  endfacet
  facet normal -1.000000e+00 -0.000000e+00 -0.000000e+00
    outer loop
      vertex   -1.361889e+01 3.817640e+01 4.200000e+01
      vertex   -1.361889e+01 7.717964e+01 2.000000e+00
      vertex   -1.361889e+01 3.817640e+01 2.000000e+00
    endloop
  endfacet
  facet normal 0.000000e+00 -1.000000e+00 -0.000000e+00
    outer loop
      vertex   -1.361889e+01 7.717964e+01 4.200000e+01
      vertex   -1.428645e+01 7.717964e+01 1.146447e+01
      vertex   -1.361889e+01 7.717964e+01 2.000000e+00
    endloop
  endfacet
  facet normal 0.000000e+00 -1.000000e+00 -0.000000e+00
    outer loop
      vertex   -1.361889e+01 7.717964e+01 4.200000e+01
      vertex   -2.489305e+01 7.717964e+01 2.207107e+01
      vertex   -1.428645e+01 7.717964e+01 1.146447e+01
    endloop
  endfacet
  facet normal -0.000000e+00 -1.000000e+00 -0.000000e+00
    outer loop
      vertex   -1.361889e+01 7.717964e+01 4.200000e+01
      vertex   -3.911889e+01 7.717964e+01 4.200000e+01
      vertex   -2.489305e+01 7.717964e+01 2.207107e+01
    endloop
  endfacet
  facet normal -0.000000e+00 -1.000000e+00 -0.000000e+00
    outer loop
      vertex   -2.489305e+01 7.717964e+01 2.207107e+01
      vertex   -3.911889e+01 7.717964e+01 4.200000e+01
      vertex   -3.196412e+01 7.717964e+01 1.500000e+01
    endloop
  endfacet
  facet normal -0.000000e+00 -1.000000e+00 -0.000000e+00
    outer loop
      vertex   -3.196412e+01 7.717964e+01 1.500000e+01
      vertex   -3.911889e+01 7.717964e+01 4.200000e+01
      vertex   -3.911889e+01 7.717964e+01 2.000000e+00
    endloop
  endfacet
  facet normal 0.000000e+00 -1.000000e+00 -0.000000e+00
    outer loop
      vertex   -2.135752e+01 7.717964e+01 4.393398e+00
      vertex   -3.911889e+01 7.717964e+01 2.000000e+00
      vertex   -1.361889e+01 7.717964e+01 2.000000e+00
    endloop
  endfacet
  facet normal 0.000000e+00 -1.000000e+00 -0.000000e+00
    outer loop
      vertex   -1.428645e+01 7.717964e+01 1.146447e+01
      vertex   -2.135752e+01 7.717964e+01 4.393398e+00
      vertex   -1.361889e+01 7.717964e+01 2.000000e+00
    endloop
  endfacet
  facet normal 0.000000e+00 -1.000000e+00 -0.000000e+00
    outer loop
      vertex   -3.196412e+01 7.717964e+01 1.500000e+01
      vertex   -3.911889e+01 7.717964e+01 2.000000e+00
      vertex   -2.135752e+01 7.717964e+01 4.393398e+00
    endloop
  endfacet
  facet normal -1.000000e+00 0.000000e+00 1.776357e-16
    outer loop
      vertex   -4.669481e+01 5.117654e+01 2.000000e+00
      vertex   -4.669481e+01 4.417654e+01 2.000000e+00
      vertex   -4.669481e+01 5.117654e+01 4.200000e+01
    endloop
  endfacet
  facet normal -1.000000e+00 0.000000e+00 1.776357e-16
    outer loop
      vertex   -4.669481e+01 5.117654e+01 4.200000e+01
      vertex   -4.669481e+01 4.417654e+01 2.000000e+00
      vertex   -4.669481e+01 4.417654e+01 4.200000e+01
    endloop
  endfacet
  facet normal 1.000000e+00 0.000000e+00 1.776357e-16
    outer loop
      vertex   -4.969481e+01 5.117654e+01 4.200000e+01
      vertex   -4.969481e+01 4.417654e+01 4.200000e+01
      vertex   -4.969481e+01 5.117654e+01 2.000000e+00
    endloop
  endfacet
  facet normal 1.000000e+00 0.000000e+00 1.776357e-16
    outer loop
      vertex   -4.969481e+01 5.117654e+01 2.000000e+00
      vertex   -4.969481e+01 4.417654e+01 4.200000e+01
      vertex   -4.969481e+01 4.417654e+01 2.000000e+00
    endloop
  endfacet
  facet normal -0.000000e+00 -1.000000e+00 0.000000e+00
    outer loop
      vertex   -4.969481e+01 4.417654e+01 2.000000e+00
      vertex   -4.969481e+01 4.417654e+01 4.200000e+01
      vertex   -5.711889e+01 4.417654e+01 2.000000e+00
    endloop
  endfacet
  facet normal 0.000000e+00 -1.000000e+00 0.000000e+00
    outer loop
      vertex   -5.711889e+01 4.417654e+01 2.000000e+00
      vertex   -4.969481e+01 4.417654e+01 4.200000e+01
      vertex   -5.711889e+01 4.417654e+01 4.200000e+01
    endloop
  endfacet
  facet normal 1.000000e+00 2.153256e-15 -7.649904e-30
    outer loop
      vertex   -9.618890e+00 3.417654e+01 2.000000e+00
      vertex   -9.618890e+00 3.417654e+01 7.105427e-14
      vertex   -9.618890e+00 3.500150e+01 2.000000e+00
    endloop
  endfacet
  facet normal 1.000000e+00 -0.000000e+00 8.881784e-16
    outer loop
      vertex   -9.618890e+00 3.500150e+01 2.000000e+00
      vertex   -9.618890e+00 3.417654e+01 7.105427e-14
      vertex   -9.618890e+00 7.917809e+01 7.105427e-14
    endloop
  endfacet
  facet normal 1.000000e+00 -0.000000e+00 0.000000e+00
    outer loop
      vertex   -9.618890e+00 7.959057e+01 4.200000e+01
      vertex   -9.618890e+00 7.917809e+01 7.105427e-14
      vertex   -9.618890e+00 1.241796e+02 7.105427e-14
    endloop
  endfacet
  facet normal 1.000000e+00 0.000000e+00 0.000000e+00
    outer loop
      vertex   -9.618890e+00 1.241796e+02 4.200000e+01
      vertex   -9.618890e+00 7.959057e+01 4.200000e+01
      vertex   -9.618890e+00 1.241796e+02 7.105427e-14
    endloop
  endfacet
  facet normal 1.000000e+00 -4.019250e-17 3.947300e-19
    outer loop
      vertex   -9.618890e+00 3.500150e+01 2.000000e+00
      vertex   -9.618890e+00 7.917809e+01 7.105427e-14
      vertex   -9.618890e+00 7.959057e+01 4.200000e+01
    endloop
  endfacet
  facet normal 1.000000e+00 -3.983839e-17 0.000000e+00
    outer loop
      vertex   -9.618890e+00 3.500150e+01 4.200000e+01
      vertex   -9.618890e+00 3.500150e+01 2.000000e+00
      vertex   -9.618890e+00 7.959057e+01 4.200000e+01
    endloop
  endfacet
  facet normal 0.000000e+00 -1.000000e+00 -0.000000e+00
    outer loop
      vertex   -4.669481e+01 4.417654e+01 4.200000e+01
      vertex   -4.669481e+01 4.417654e+01 2.000000e+00
      vertex   -3.911889e+01 4.417654e+01 4.200000e+01
    endloop
  endfacet
  facet normal 0.000000e+00 -1.000000e+00 -0.000000e+00
    outer loop
      vertex   -3.911889e+01 4.417654e+01 4.200000e+01
      vertex   -4.669481e+01 4.417654e+01 2.000000e+00
      vertex   -3.911889e+01 4.417654e+01 2.000000e+00
    endloop
  endfacet
  facet normal -7.071068e-01 0.000000e+00 -7.071068e-01
    outer loop
      vertex   -2.489305e+01 7.717964e+01 2.207107e+01
      vertex   -2.489305e+01 7.917653e+01 2.207107e+01
      vertex   -1.428645e+01 7.717964e+01 1.146447e+01
    endloop
  endfacet
  facet normal -7.071068e-01 -4.744318e-16 -7.071068e-01
    outer loop
      vertex   -1.428645e+01 7.717964e+01 1.146447e+01
      vertex   -2.489305e+01 7.917653e+01 2.207107e+01
      vertex   -1.428645e+01 7.917653e+01 1.146447e+01
    endloop
  endfacet
  facet normal 7.071068e-01 0.000000e+00 -7.071068e-01
    outer loop
      vertex   -3.196412e+01 7.717964e+01 1.500000e+01
      vertex   -3.196412e+01 7.917653e+01 1.500000e+01
      vertex   -2.489305e+01 7.717964e+01 2.207107e+01
    endloop
  endfacet
  facet normal 7.071068e-01 0.000000e+00 -7.071068e-01
    outer loop
      vertex   -2.489305e+01 7.717964e+01 2.207107e+01
      vertex   -3.196412e+01 7.917653e+01 1.500000e+01
      vertex   -2.489305e+01 7.917653e+01 2.207107e+01
    endloop
  endfacet
  facet normal 1.000000e+00 0.000000e+00 -0.000000e+00
    outer loop
      vertex   -3.911889e+01 4.417654e+01 2.000000e+00
      vertex   -3.911889e+01 7.717964e+01 2.000000e+00
      vertex   -3.911889e+01 4.417654e+01 4.200000e+01
    endloop
  endfacet
  facet normal 1.000000e+00 -0.000000e+00 0.000000e+00
    outer loop
      vertex   -3.911889e+01 4.417654e+01 4.200000e+01
      vertex   -3.911889e+01 7.717964e+01 2.000000e+00
      vertex   -3.911889e+01 7.717964e+01 4.200000e+01
    endloop
  endfacet
  facet normal -7.071068e-01 6.290136e-16 7.071068e-01
    outer loop
      vertex   -1.428645e+01 7.717964e+01 1.146447e+01
      vertex   -1.428645e+01 7.917653e+01 1.146447e+01
      vertex   -2.135752e+01 7.717964e+01 4.393398e+00
    endloop
  endfacet
  facet normal -7.071068e-01 7.116463e-16 7.071068e-01
    outer loop
      vertex   -2.135752e+01 7.717964e+01 4.393398e+00
      vertex   -1.428645e+01 7.917653e+01 1.146447e+01
      vertex   -2.135752e+01 7.917654e+01 4.393398e+00
    endloop
  endfacet
  facet normal 7.071068e-01 0.000000e+00 7.071068e-01
    outer loop
      vertex   -3.196412e+01 7.717964e+01 1.500000e+01
      vertex   -2.135752e+01 7.717964e+01 4.393398e+00
      vertex   -3.196412e+01 7.917653e+01 1.500000e+01
    endloop
  endfacet
  facet normal 7.071068e-01 6.290124e-16 7.071068e-01
    outer loop
      vertex   -3.196412e+01 7.917653e+01 1.500000e+01
      vertex   -2.135752e+01 7.717964e+01 4.393398e+00
      vertex   -2.135752e+01 7.917654e+01 4.393398e+00
    endloop
  endfacet
  facet normal -1.000000e+00 -2.030122e-16 -1.776357e-16
    outer loop
      vertex   -5.711889e+01 4.417654e+01 2.000000e+00
      vertex   -5.711889e+01 4.417654e+01 4.200000e+01
      vertex   -5.711889e+01 7.917654e+01 2.000000e+00
    endloop
  endfacet
  facet normal -1.000000e+00 0.000000e+00 0.000000e+00
    outer loop
      vertex   -5.711889e+01 7.917654e+01 2.000000e+00
      vertex   -5.711889e+01 4.417654e+01 4.200000e+01
      vertex   -5.711889e+01 7.917654e+01 4.200000e+01
    endloop
  endfacet
  facet normal -1.000000e+00 0.000000e+00 -0.000000e+00
    outer loop
      vertex   -4.769481e+01 6.417654e+01 4.000000e+01
      vertex   -4.769481e+01 6.617654e+01 4.000000e+01
      vertex   -4.769481e+01 6.417654e+01 2.000000e+00
    endloop
  endfacet
  facet normal -1.000000e+00 0.000000e+00 0.000000e+00
    outer loop
      vertex   -4.769481e+01 6.417654e+01 2.000000e+00
      vertex   -4.769481e+01 6.617654e+01 4.000000e+01
      vertex   -4.769481e+01 6.617654e+01 2.000000e+00
    endloop
  endfacet
  facet normal 0.000000e+00 0.000000e+00 -1.000000e+00
    outer loop
      vertex   -4.869481e+01 6.417654e+01 4.000000e+01
      vertex   -4.869481e+01 6.617654e+01 4.000000e+01
      vertex   -4.769481e+01 6.417654e+01 4.000000e+01
    endloop
  endfacet
  facet normal 0.000000e+00 0.000000e+00 -1.000000e+00
    outer loop
      vertex   -4.769481e+01 6.417654e+01 4.000000e+01
      vertex   -4.869481e+01 6.617654e+01 4.000000e+01
      vertex   -4.769481e+01 6.617654e+01 4.000000e+01
    endloop
  endfacet
  facet normal -0.000000e+00 -0.000000e+00 -1.000000e+00
    outer loop
      vertex   -4.769481e+01 7.742654e+01 4.000000e+01
      vertex   -4.769481e+01 7.617654e+01 4.000000e+01
      vertex   -4.869481e+01 7.742654e+01 4.000000e+01
    endloop
  endfacet
  facet normal -0.000000e+00 -0.000000e+00 -1.000000e+00
    outer loop
      vertex   -4.869481e+01 7.742654e+01 4.000000e+01
      vertex   -4.769481e+01 7.617654e+01 4.000000e+01
      vertex   -4.869481e+01 7.617654e+01 4.000000e+01
    endloop
  endfacet
  facet normal 1.000000e+00 0.000000e+00 -0.000000e+00
    outer loop
      vertex   -4.869481e+01 6.417654e+01 2.000000e+00
      vertex   -4.869481e+01 6.617654e+01 2.000000e+00
      vertex   -4.869481e+01 6.417654e+01 4.000000e+01
    endloop
  endfacet
  facet normal 1.000000e+00 -0.000000e+00 0.000000e+00
    outer loop
      vertex   -4.869481e+01 6.417654e+01 4.000000e+01
      vertex   -4.869481e+01 6.617654e+01 2.000000e+00
      vertex   -4.869481e+01 6.617654e+01 4.000000e+01
    endloop
  endfacet
  facet normal -0.000000e+00 1.000000e+00 0.000000e+00
    outer loop
      vertex   -4.769481e+01 6.617654e+01 2.000000e+00
      vertex   -4.769481e+01 6.617654e+01 4.000000e+01
      vertex   -4.111889e+01 6.617654e+01 2.000000e+00
    endloop
  endfacet
  facet normal 0.000000e+00 1.000000e+00 -0.000000e+00
    outer loop
      vertex   -4.111889e+01 6.617654e+01 2.000000e+00
      vertex   -4.769481e+01 6.617654e+01 4.000000e+01
      vertex   -4.111889e+01 6.617654e+01 4.200000e+01
    endloop
  endfacet
  facet normal 0.000000e+00 1.000000e+00 0.000000e+00
    outer loop
      vertex   -4.111889e+01 6.617654e+01 4.200000e+01
      vertex   -4.769481e+01 6.617654e+01 4.000000e+01
      vertex   -5.511889e+01 6.617654e+01 4.200000e+01
    endloop
  endfacet
  facet normal 0.000000e+00 1.000000e+00 0.000000e+00
    outer loop
      vertex   -5.511889e+01 6.617654e+01 4.200000e+01
      vertex   -4.769481e+01 6.617654e+01 4.000000e+01
      vertex   -4.869481e+01 6.617654e+01 4.000000e+01
    endloop
  endfacet
  facet normal -0.000000e+00 1.000000e+00 0.000000e+00
    outer loop
      vertex   -5.511889e+01 6.617654e+01 2.000000e+00
      vertex   -4.869481e+01 6.617654e+01 4.000000e+01
      vertex   -4.869481e+01 6.617654e+01 2.000000e+00
    endloop
  endfacet
  facet normal -0.000000e+00 1.000000e+00 0.000000e+00
    outer loop
      vertex   -5.511889e+01 6.617654e+01 2.000000e+00
      vertex   -5.511889e+01 6.617654e+01 4.200000e+01
      vertex   -4.869481e+01 6.617654e+01 4.000000e+01
    endloop
  endfacet
  facet normal -1.000000e+00 -0.000000e+00 -0.000000e+00
    outer loop
      vertex   -4.761889e+01 1.111992e+02 4.200000e+01
      vertex   -4.761889e+01 1.111992e+02 2.000000e+00
      vertex   -4.761889e+01 9.217964e+01 4.200000e+01
    endloop
  endfacet
  facet normal -1.000000e+00 0.000000e+00 -0.000000e+00
    outer loop
      vertex   -4.761889e+01 9.217964e+01 4.200000e+01
      vertex   -4.761889e+01 1.111992e+02 2.000000e+00
      vertex   -4.761889e+01 9.217964e+01 2.000000e+00
    endloop
  endfacet
  facet normal 0.000000e+00 -0.000000e+00 -1.000000e+00
    outer loop
      vertex   -6.161889e+01 1.241796e+02 7.105427e-14
      vertex   -9.618890e+00 1.241796e+02 7.105427e-14
      vertex   -6.161889e+01 7.917809e+01 7.105427e-14
    endloop
  endfacet
  facet normal 0.000000e+00 0.000000e+00 -1.000000e+00
    outer loop
      vertex   -6.161889e+01 7.917809e+01 7.105427e-14
      vertex   -9.618890e+00 1.241796e+02 7.105427e-14
      vertex   -9.618890e+00 7.917809e+01 7.105427e-14
    endloop
  endfacet
  facet normal 0.000000e+00 0.000000e+00 -1.000000e+00
    outer loop
      vertex   -9.618890e+00 3.417654e+01 7.105427e-14
      vertex   -6.161889e+01 7.917809e+01 7.105427e-14
      vertex   -9.618890e+00 7.917809e+01 7.105427e-14
    endloop
  endfacet
  facet normal 0.000000e+00 0.000000e+00 -1.000000e+00
    outer loop
      vertex   -9.618890e+00 3.417654e+01 7.105427e-14
      vertex   -6.161889e+01 3.417654e+01 7.105427e-14
      vertex   -6.161889e+01 7.917809e+01 7.105427e-14
    endloop
  endfacet
  facet normal -0.000000e+00 -1.000000e+00 0.000000e+00
    outer loop
      vertex   -4.361889e+01 9.217964e+01 2.000000e+00
      vertex   -4.361889e+01 9.217964e+01 4.200000e+01
      vertex   -4.761889e+01 9.217964e+01 2.000000e+00
    endloop
  endfacet
  facet normal 0.000000e+00 -1.000000e+00 0.000000e+00
    outer loop
      vertex   -4.761889e+01 9.217964e+01 2.000000e+00
      vertex   -4.361889e+01 9.217964e+01 4.200000e+01
      vertex   -4.761889e+01 9.217964e+01 4.200000e+01
    endloop
  endfacet
  facet normal 1.000000e+00 0.000000e+00 -0.000000e+00
    outer loop
      vertex   -4.361889e+01 1.151796e+02 2.000000e+00
      vertex   -4.361889e+01 1.151796e+02 4.000000e+00
      vertex   -4.361889e+01 9.217964e+01 2.000000e+00
    endloop
  endfacet
  facet normal 1.000000e+00 0.000000e+00 -0.000000e+00
    outer loop
      vertex   -4.361889e+01 9.217964e+01 2.000000e+00
      vertex   -4.361889e+01 1.151796e+02 4.000000e+00
      vertex   -4.361889e+01 9.217964e+01 4.200000e+01
    endloop
  endfacet
  facet normal 1.000000e+00 -0.000000e+00 0.000000e+00
    outer loop
      vertex   -4.361889e+01 9.217964e+01 4.200000e+01
      vertex   -4.361889e+01 1.151796e+02 4.000000e+00
      vertex   -4.361889e+01 1.151796e+02 4.200000e+01
    endloop
  endfacet
  facet normal -0.000000e+00 -1.000000e+00 0.000000e+00
    outer loop
      vertex   -4.761889e+01 1.111992e+02 2.000000e+00
      vertex   -4.761889e+01 1.111992e+02 4.200000e+01
      vertex   -6.161889e+01 1.111992e+02 2.000000e+00
    endloop
  endfacet
  facet normal 0.000000e+00 -1.000000e+00 0.000000e+00
    outer loop
      vertex   -6.161889e+01 1.111992e+02 2.000000e+00
      vertex   -4.761889e+01 1.111992e+02 4.200000e+01
      vertex   -6.161889e+01 1.111992e+02 4.200000e+01
    endloop
  endfacet
  facet normal 0.000000e+00 -0.000000e+00 1.000000e+00
    outer loop
      vertex   -4.761889e+01 9.217964e+01 4.200000e+01
      vertex   -4.361889e+01 9.217964e+01 4.200000e+01
      vertex   -4.761889e+01 1.111992e+02 4.200000e+01
    endloop
  endfacet
  facet normal -0.000000e+00 0.000000e+00 1.000000e+00
    outer loop
      vertex   -4.761889e+01 1.111992e+02 4.200000e+01
      vertex   -4.361889e+01 9.217964e+01 4.200000e+01
      vertex   -4.361889e+01 1.151796e+02 4.200000e+01
    endloop
  endfacet
  facet normal 2.839420e-07 -2.853353e-07 1.000000e+00
    outer loop
      vertex   -4.424865e+01 1.151796e+02 4.200000e+01
      vertex   -4.761889e+01 1.111992e+02 4.200000e+01
      vertex   -4.361889e+01 1.151796e+02 4.200000e+01
    endloop
  endfacet
  facet normal -5.305668e-08 0.000000e+00 1.000000e+00
    outer loop
      vertex   -4.424865e+01 1.151796e+02 4.200000e+01
      vertex   -4.424865e+01 1.151992e+02 4.200000e+01
      vertex   -4.761889e+01 1.111992e+02 4.200000e+01
    endloop
  endfacet
  facet normal 0.000000e+00 -4.470350e-08 1.000000e+00
    outer loop
      vertex   -4.761889e+01 1.111992e+02 4.200000e+01
      vertex   -4.424865e+01 1.151992e+02 4.200000e+01
      vertex   -6.161889e+01 1.151992e+02 4.200000e+01
    endloop
  endfacet
  facet normal 1.277243e-08 0.000000e+00 1.000000e+00
    outer loop
      vertex   -6.161889e+01 1.111992e+02 4.200000e+01
      vertex   -4.761889e+01 1.111992e+02 4.200000e+01
      vertex   -6.161889e+01 1.151992e+02 4.200000e+01
    endloop
  endfacet
  facet normal -1.000000e+00 -1.685806e-06 -0.000000e+00
    outer loop
      vertex   -6.161889e+01 1.171796e+02 4.000000e+00
      vertex   -6.161889e+01 1.171796e+02 2.000000e+00
      vertex   -6.161889e+01 1.151992e+02 4.000000e+00
    endloop
  endfacet
  facet normal -1.000000e+00 -5.582646e-07 1.116529e-06
    outer loop
      vertex   -6.161889e+01 1.151992e+02 4.000000e+00
      vertex   -6.161889e+01 1.171796e+02 2.000000e+00
      vertex   -6.161889e+01 1.111992e+02 2.000000e+00
    endloop
  endfacet
  facet normal -1.000000e+00 0.000000e+00 -0.000000e+00
    outer loop
      vertex   -6.161889e+01 1.111992e+02 4.200000e+01
      vertex   -6.161889e+01 1.151992e+02 4.000000e+00
      vertex   -6.161889e+01 1.111992e+02 2.000000e+00
    endloop
  endfacet
  facet normal -1.000000e+00 0.000000e+00 0.000000e+00
    outer loop
      vertex   -6.161889e+01 1.111992e+02 4.200000e+01
      vertex   -6.161889e+01 1.151992e+02 4.200000e+01
      vertex   -6.161889e+01 1.151992e+02 4.000000e+00
    endloop
  endfacet
  facet normal -1.000000e+00 -5.582646e-07 -3.146019e-06
    outer loop
      vertex   -6.161889e+01 1.111992e+02 2.000000e+00
      vertex   -6.161889e+01 1.171796e+02 2.000000e+00
      vertex   -6.161889e+01 1.241796e+02 7.105427e-14
    endloop
  endfacet
  facet normal -1.000000e+00 0.000000e+00 4.772485e-07
    outer loop
      vertex   -6.161889e+01 7.917809e+01 7.105427e-14
      vertex   -6.161889e+01 1.111992e+02 2.000000e+00
      vertex   -6.161889e+01 1.241796e+02 7.105427e-14
    endloop
  endfacet
  facet normal -1.000000e+00 2.614245e-08 5.869373e-08
    outer loop
      vertex   -6.161889e+01 7.917809e+01 7.105427e-14
      vertex   -6.161889e+01 7.468779e+01 2.000000e+00
      vertex   -6.161889e+01 1.111992e+02 2.000000e+00
    endloop
  endfacet
  facet normal -1.000000e+00 5.298008e-08 1.189483e-07
    outer loop
      vertex   -6.161889e+01 7.917809e+01 7.105427e-14
      vertex   -6.161889e+01 3.417654e+01 7.105427e-14
      vertex   -6.161889e+01 7.468779e+01 2.000000e+00
    endloop
  endfacet
  facet normal -1.000000e+00 6.529979e-08 -1.305952e-07
    outer loop
      vertex   -6.161889e+01 7.468779e+01 2.000000e+00
      vertex   -6.161889e+01 3.417654e+01 7.105427e-14
      vertex   -6.161889e+01 3.817640e+01 2.000000e+00
    endloop
  endfacet
  facet normal -1.000000e+00 -1.691825e-15 -1.691768e-16
    outer loop
      vertex   -6.161889e+01 3.817640e+01 2.000000e+00
      vertex   -6.161889e+01 3.417654e+01 7.105427e-14
      vertex   -6.161889e+01 3.417654e+01 4.200000e+01
    endloop
  endfacet
  facet normal -1.000000e+00 1.776417e-15 1.776357e-16
    outer loop
      vertex   -6.161889e+01 3.817640e+01 4.200000e+01
      vertex   -6.161889e+01 3.817640e+01 2.000000e+00
      vertex   -6.161889e+01 3.417654e+01 4.200000e+01
    endloop
  endfacet
  facet normal -1.000000e+00 1.776354e-15 -1.776354e-16
    outer loop
      vertex   -6.161889e+01 1.201796e+02 4.200000e+01
      vertex   -6.161889e+01 1.241796e+02 4.200000e+01
      vertex   -6.161889e+01 1.201796e+02 2.000000e+00
    endloop
  endfacet
  facet normal -1.000000e+00 5.676633e-07 -5.676633e-08
    outer loop
      vertex   -6.161889e+01 1.201796e+02 2.000000e+00
      vertex   -6.161889e+01 1.241796e+02 4.200000e+01
      vertex   -6.161889e+01 1.241796e+02 7.105427e-14
    endloop
  endfacet
  facet normal -1.000000e+00 0.000000e+00 -1.192093e-06
    outer loop
      vertex   -6.161889e+01 1.171796e+02 2.000000e+00
      vertex   -6.161889e+01 1.201796e+02 2.000000e+00
      vertex   -6.161889e+01 1.241796e+02 7.105427e-14
    endloop
  endfacet
  facet normal -0.000000e+00 1.000000e+00 0.000000e+00
    outer loop
      vertex   -6.161889e+01 1.151992e+02 4.000000e+00
      vertex   -6.161889e+01 1.151992e+02 4.200000e+01
      vertex   -4.424865e+01 1.151992e+02 4.000000e+00
    endloop
  endfacet
  facet normal 0.000000e+00 1.000000e+00 -0.000000e+00
    outer loop
      vertex   -4.424865e+01 1.151992e+02 4.000000e+00
      vertex   -6.161889e+01 1.151992e+02 4.200000e+01
      vertex   -4.424865e+01 1.151992e+02 4.200000e+01
    endloop
  endfacet
  facet normal 1.000000e+00 0.000000e+00 -0.000000e+00
    outer loop
      vertex   -4.424865e+01 1.151992e+02 4.000000e+00
      vertex   -4.424865e+01 1.151992e+02 4.200000e+01
      vertex   -4.424865e+01 1.151796e+02 4.000000e+00
    endloop
  endfacet
  facet normal 1.000000e+00 0.000000e+00 -0.000000e+00
    outer loop
      vertex   -4.424865e+01 1.151796e+02 4.000000e+00
      vertex   -4.424865e+01 1.151992e+02 4.200000e+01
      vertex   -4.424865e+01 1.151796e+02 4.200000e+01
    endloop
  endfacet
endsolid
