solid ascii
  facet normal -1.434038e-15 -7.757474e-15 1.000000e+00
    outer loop
      vertex   -1.123125e+01 4.459593e+01 2.000000e+00
      vertex   -3.673125e+01 4.959607e+01 2.000000e+00
      vertex   -5.923125e+01 4.459593e+01 2.000000e+00
    endloop
  endfacet
  facet normal 4.422353e-16 1.811262e-15 1.000000e+00
    outer loop
      vertex   -1.123125e+01 4.459593e+01 2.000000e+00
      vertex   -1.123125e+01 8.259917e+01 2.000000e+00
      vertex   -3.673125e+01 4.959607e+01 2.000000e+00
    endloop
  endfacet
  facet normal 7.012314e-09 -5.418095e-09 1.000000e+00
    outer loop
      vertex   -3.673125e+01 4.959607e+01 2.000000e+00
      vertex   -1.123125e+01 8.259917e+01 2.000000e+00
      vertex   -3.673125e+01 8.259917e+01 2.000000e+00
    endloop
  endfacet
  facet normal 0.000000e+00 -1.421047e-14 1.000000e+00
    outer loop
      vertex   -3.673125e+01 4.959607e+01 2.000000e+00
      vertex   -4.430717e+01 4.959607e+01 2.000000e+00
      vertex   -5.923125e+01 4.459593e+01 2.000000e+00
    endloop
  endfacet
  facet normal 0.000000e+00 -1.421047e-14 1.000000e+00
    outer loop
      vertex   -5.923125e+01 4.459593e+01 2.000000e+00
      vertex   -4.430717e+01 4.959607e+01 2.000000e+00
      vertex   -4.730717e+01 4.959607e+01 2.000000e+00
    endloop
  endfacet
  facet normal -2.990870e-16 -1.349722e-14 1.000000e+00
    outer loop
      vertex   -5.473125e+01 4.959607e+01 2.000000e+00
      vertex   -5.923125e+01 4.459593e+01 2.000000e+00
      vertex   -4.730717e+01 4.959607e+01 2.000000e+00
    endloop
  endfacet
  facet normal -1.318752e-14 -1.897940e-15 1.000000e+00
    outer loop
      vertex   -5.473125e+01 4.959607e+01 2.000000e+00
      vertex   -5.923125e+01 8.109755e+01 2.000000e+00
      vertex   -5.923125e+01 4.459593e+01 2.000000e+00
    endloop
  endfacet
  facet normal 9.868649e-17 2.003456e-32 1.000000e+00
    outer loop
      vertex   -5.473125e+01 4.959607e+01 2.000000e+00
      vertex   -5.473125e+01 8.459607e+01 2.000000e+00
      vertex   -5.923125e+01 8.109755e+01 2.000000e+00
    endloop
  endfacet
  facet normal 3.808559e-09 -4.898794e-09 1.000000e+00
    outer loop
      vertex   -5.923125e+01 8.109755e+01 2.000000e+00
      vertex   -5.473125e+01 8.459607e+01 2.000000e+00
      vertex   -5.923125e+01 1.175992e+02 2.000000e+00
    endloop
  endfacet
  facet normal 6.249635e-09 -4.565952e-09 1.000000e+00
    outer loop
      vertex   -5.923125e+01 1.175992e+02 2.000000e+00
      vertex   -5.473125e+01 8.459607e+01 2.000000e+00
      vertex   -4.523125e+01 9.759917e+01 2.000000e+00
    endloop
  endfacet
  facet normal 1.277242e-08 -2.220446e-17 1.000000e+00
    outer loop
      vertex   -4.523125e+01 1.175992e+02 2.000000e+00
      vertex   -5.923125e+01 1.175992e+02 2.000000e+00
      vertex   -4.523125e+01 9.759917e+01 2.000000e+00
    endloop
  endfacet
  facet normal 0.000000e+00 -0.000000e+00 1.000000e+00
    outer loop
      vertex   -4.730717e+01 4.959607e+01 2.000000e+00
      vertex   -4.430717e+01 4.959607e+01 2.000000e+00
      vertex   -4.730717e+01 5.559607e+01 2.000000e+00
    endloop
  endfacet
  facet normal -0.000000e+00 0.000000e+00 1.000000e+00
    outer loop
      vertex   -4.730717e+01 5.559607e+01 2.000000e+00
      vertex   -4.430717e+01 4.959607e+01 2.000000e+00
      vertex   -4.430717e+01 5.559607e+01 2.000000e+00
    endloop
  endfacet
  facet normal 0.000000e+00 3.172066e-17 1.000000e+00
    outer loop
      vertex   -4.630717e+01 6.959607e+01 2.000000e+00
      vertex   -4.430717e+01 5.559607e+01 2.000000e+00
      vertex   -4.530717e+01 6.959607e+01 2.000000e+00
    endloop
  endfacet
  facet normal -0.000000e+00 0.000000e+00 1.000000e+00
    outer loop
      vertex   -4.630717e+01 7.159607e+01 2.000000e+00
      vertex   -4.530717e+01 6.959607e+01 2.000000e+00
      vertex   -4.530717e+01 7.159607e+01 2.000000e+00
    endloop
  endfacet
  facet normal -0.000000e+00 0.000000e+00 1.000000e+00
    outer loop
      vertex   -4.630717e+01 8.259607e+01 2.000000e+00
      vertex   -4.530717e+01 7.159607e+01 2.000000e+00
      vertex   -4.530717e+01 8.259607e+01 2.000000e+00
    endloop
  endfacet
  facet normal -0.000000e+00 2.220450e-16 1.000000e+00
    outer loop
      vertex   -4.530717e+01 8.459606e+01 2.000000e+00
      vertex   -4.630717e+01 8.259607e+01 2.000000e+00
      vertex   -4.530717e+01 8.259607e+01 2.000000e+00
    endloop
  endfacet
  facet normal 4.440892e-16 0.000000e+00 1.000000e+00
    outer loop
      vertex   -4.530717e+01 8.459606e+01 2.000000e+00
      vertex   -4.630717e+01 8.459607e+01 2.000000e+00
      vertex   -4.630717e+01 8.259607e+01 2.000000e+00
    endloop
  endfacet
  facet normal 4.440896e-16 9.986481e-17 1.000000e+00
    outer loop
      vertex   -4.530717e+01 8.459606e+01 2.000000e+00
      vertex   -4.523125e+01 9.759917e+01 2.000000e+00
      vertex   -4.630717e+01 8.459607e+01 2.000000e+00
    endloop
  endfacet
  facet normal 0.000000e+00 1.024577e-16 1.000000e+00
    outer loop
      vertex   -4.530717e+01 8.459606e+01 2.000000e+00
      vertex   -4.123125e+01 9.759917e+01 2.000000e+00
      vertex   -4.523125e+01 9.759917e+01 2.000000e+00
    endloop
  endfacet
  facet normal 1.553498e-16 5.376211e-17 1.000000e+00
    outer loop
      vertex   -4.530717e+01 8.459606e+01 2.000000e+00
      vertex   -3.673125e+01 8.459607e+01 2.000000e+00
      vertex   -4.123125e+01 9.759917e+01 2.000000e+00
    endloop
  endfacet
  facet normal -7.012312e-09 -2.426760e-09 1.000000e+00
    outer loop
      vertex   -4.123125e+01 9.759917e+01 2.000000e+00
      vertex   -3.673125e+01 8.459607e+01 2.000000e+00
      vertex   -1.123125e+01 8.459606e+01 2.000000e+00
    endloop
  endfacet
  facet normal -5.960464e-09 -8.555082e-25 1.000000e+00
    outer loop
      vertex   -1.123125e+01 1.175992e+02 2.000000e+00
      vertex   -4.123125e+01 9.759917e+01 2.000000e+00
      vertex   -1.123125e+01 8.459606e+01 2.000000e+00
    endloop
  endfacet
  facet normal -5.960464e-09 -2.220446e-17 1.000000e+00
    outer loop
      vertex   -1.123125e+01 1.175992e+02 2.000000e+00
      vertex   -4.123125e+01 1.175992e+02 2.000000e+00
      vertex   -4.123125e+01 9.759917e+01 2.000000e+00
    endloop
  endfacet
  facet normal 3.982206e-16 -0.000000e+00 1.000000e+00
    outer loop
      vertex   -3.873125e+01 5.559607e+01 2.000000e+00
      vertex   -3.873125e+01 6.959607e+01 2.000000e+00
      vertex   -4.430717e+01 5.559607e+01 2.000000e+00
    endloop
  endfacet
  facet normal 2.701305e-16 5.101570e-17 1.000000e+00
    outer loop
      vertex   -4.430717e+01 5.559607e+01 2.000000e+00
      vertex   -3.873125e+01 6.959607e+01 2.000000e+00
      vertex   -4.530717e+01 6.959607e+01 2.000000e+00
    endloop
  endfacet
  facet normal 0.000000e+00 -0.000000e+00 1.000000e+00
    outer loop
      vertex   -4.630717e+01 6.959607e+01 2.000000e+00
      vertex   -4.530717e+01 6.959607e+01 2.000000e+00
      vertex   -4.630717e+01 7.159607e+01 2.000000e+00
    endloop
  endfacet
  facet normal 2.701305e-16 0.000000e+00 1.000000e+00
    outer loop
      vertex   -4.530717e+01 7.159607e+01 2.000000e+00
      vertex   -3.873125e+01 7.159607e+01 2.000000e+00
      vertex   -4.530717e+01 8.259607e+01 2.000000e+00
    endloop
  endfacet
  facet normal 2.701305e-16 -0.000000e+00 1.000000e+00
    outer loop
      vertex   -4.530717e+01 8.259607e+01 2.000000e+00
      vertex   -3.873125e+01 7.159607e+01 2.000000e+00
      vertex   -3.873125e+01 8.259607e+01 2.000000e+00
    endloop
  endfacet
  facet normal -2.108666e-16 1.540580e-16 1.000000e+00
    outer loop
      vertex   -5.473125e+01 8.459607e+01 2.000000e+00
      vertex   -4.630717e+01 8.459607e+01 2.000000e+00
      vertex   -4.523125e+01 9.759917e+01 2.000000e+00
    endloop
  endfacet
  facet normal 0.000000e+00 0.000000e+00 1.000000e+00
    outer loop
      vertex   -4.530717e+01 7.159607e+01 2.000000e+00
      vertex   -4.630717e+01 8.259607e+01 2.000000e+00
      vertex   -4.630717e+01 7.159607e+01 2.000000e+00
    endloop
  endfacet
  facet normal -2.765154e-16 0.000000e+00 1.000000e+00
    outer loop
      vertex   -4.630717e+01 7.159607e+01 2.000000e+00
      vertex   -4.630717e+01 8.259607e+01 2.000000e+00
      vertex   -5.273125e+01 8.259607e+01 2.000000e+00
    endloop
  endfacet
  facet normal -2.765154e-16 0.000000e+00 1.000000e+00
    outer loop
      vertex   -5.273125e+01 7.159607e+01 2.000000e+00
      vertex   -4.630717e+01 7.159607e+01 2.000000e+00
      vertex   -5.273125e+01 8.259607e+01 2.000000e+00
    endloop
  endfacet
  facet normal 0.000000e+00 3.172066e-17 1.000000e+00
    outer loop
      vertex   -4.430717e+01 5.559607e+01 2.000000e+00
      vertex   -4.630717e+01 6.959607e+01 2.000000e+00
      vertex   -4.730717e+01 5.559607e+01 2.000000e+00
    endloop
  endfacet
  facet normal -2.765154e-16 5.147176e-17 1.000000e+00
    outer loop
      vertex   -4.730717e+01 5.559607e+01 2.000000e+00
      vertex   -4.630717e+01 6.959607e+01 2.000000e+00
      vertex   -5.273125e+01 6.959607e+01 2.000000e+00
    endloop
  endfacet
  facet normal -0.000000e+00 1.586033e-16 1.000000e+00
    outer loop
      vertex   -5.273125e+01 5.559607e+01 2.000000e+00
      vertex   -4.730717e+01 5.559607e+01 2.000000e+00
      vertex   -5.273125e+01 6.959607e+01 2.000000e+00
    endloop
  endfacet
  facet normal 1.862529e-13 0.000000e+00 -1.000000e+00
    outer loop
      vertex   -7.603205e+00 4.059607e+01 2.000000e+00
      vertex   -7.231249e+00 4.059607e+01 2.000000e+00
      vertex   -7.603205e+00 4.042103e+01 2.000000e+00
    endloop
  endfacet
  facet normal 0.000000e+00 3.957901e-13 -1.000000e+00
    outer loop
      vertex   -7.603205e+00 4.042103e+01 2.000000e+00
      vertex   -7.231249e+00 4.059607e+01 2.000000e+00
      vertex   -7.231249e+00 4.042103e+01 2.000000e+00
    endloop
  endfacet
  facet normal -1.000000e+00 0.000000e+00 0.000000e+00
    outer loop
      vertex   -7.603205e+00 4.042103e+01 2.000000e+00
      vertex   -7.603205e+00 4.042103e+01 4.200000e+01
      vertex   -7.603205e+00 4.059607e+01 2.000000e+00
    endloop
  endfacet
  facet normal -1.000000e+00 0.000000e+00 0.000000e+00
    outer loop
      vertex   -7.603205e+00 4.059607e+01 2.000000e+00
      vertex   -7.603205e+00 4.042103e+01 4.200000e+01
      vertex   -7.603205e+00 4.059607e+01 4.200000e+01
    endloop
  endfacet
  facet normal 0.000000e+00 -1.000000e+00 0.000000e+00
    outer loop
      vertex   -7.603205e+00 4.042103e+01 4.200000e+01
      vertex   -7.603205e+00 4.042103e+01 2.000000e+00
      vertex   -7.231249e+00 4.042103e+01 4.200000e+01
    endloop
  endfacet
  facet normal 0.000000e+00 -1.000000e+00 -0.000000e+00
    outer loop
      vertex   -7.231249e+00 4.042103e+01 4.200000e+01
      vertex   -7.603205e+00 4.042103e+01 2.000000e+00
      vertex   -7.231249e+00 4.042103e+01 2.000000e+00
    endloop
  endfacet
  facet normal -1.000000e+00 0.000000e+00 0.000000e+00
    outer loop
      vertex   -1.123125e+01 4.459593e+01 2.000000e+00
      vertex   -1.123125e+01 4.459593e+01 4.200000e+01
      vertex   -1.123125e+01 8.259917e+01 2.000000e+00
    endloop
  endfacet
  facet normal -1.000000e+00 0.000000e+00 0.000000e+00
    outer loop
      vertex   -1.123125e+01 8.259917e+01 2.000000e+00
      vertex   -1.123125e+01 4.459593e+01 4.200000e+01
      vertex   -1.123125e+01 8.259917e+01 4.200000e+01
    endloop
  endfacet
  facet normal 0.000000e+00 -1.000000e+00 -0.000000e+00
    outer loop
      vertex   -1.123125e+01 8.259917e+01 4.200000e+01
      vertex   -1.189881e+01 8.259917e+01 1.146447e+01
      vertex   -1.123125e+01 8.259917e+01 2.000000e+00
    endloop
  endfacet
  facet normal 0.000000e+00 -1.000000e+00 -0.000000e+00
    outer loop
      vertex   -1.123125e+01 8.259917e+01 4.200000e+01
      vertex   -2.250541e+01 8.259917e+01 2.207107e+01
      vertex   -1.189881e+01 8.259917e+01 1.146447e+01
    endloop
  endfacet
  facet normal -0.000000e+00 -1.000000e+00 -0.000000e+00
    outer loop
      vertex   -1.123125e+01 8.259917e+01 4.200000e+01
      vertex   -3.673125e+01 8.259917e+01 4.200000e+01
      vertex   -2.250541e+01 8.259917e+01 2.207107e+01
    endloop
  endfacet
  facet normal -0.000000e+00 -1.000000e+00 -0.000000e+00
    outer loop
      vertex   -2.250541e+01 8.259917e+01 2.207107e+01
      vertex   -3.673125e+01 8.259917e+01 4.200000e+01
      vertex   -2.957648e+01 8.259917e+01 1.500000e+01
    endloop
  endfacet
  facet normal -0.000000e+00 -1.000000e+00 -0.000000e+00
    outer loop
      vertex   -2.957648e+01 8.259917e+01 1.500000e+01
      vertex   -3.673125e+01 8.259917e+01 4.200000e+01
      vertex   -3.673125e+01 8.259917e+01 2.000000e+00
    endloop
  endfacet
  facet normal 0.000000e+00 -1.000000e+00 -0.000000e+00
    outer loop
      vertex   -1.896988e+01 8.259917e+01 4.393398e+00
      vertex   -3.673125e+01 8.259917e+01 2.000000e+00
      vertex   -1.123125e+01 8.259917e+01 2.000000e+00
    endloop
  endfacet
  facet normal 0.000000e+00 -1.000000e+00 -0.000000e+00
    outer loop
      vertex   -1.189881e+01 8.259917e+01 1.146447e+01
      vertex   -1.896988e+01 8.259917e+01 4.393398e+00
      vertex   -1.123125e+01 8.259917e+01 2.000000e+00
    endloop
  endfacet
  facet normal 0.000000e+00 -1.000000e+00 -0.000000e+00
    outer loop
      vertex   -2.957648e+01 8.259917e+01 1.500000e+01
      vertex   -3.673125e+01 8.259917e+01 2.000000e+00
      vertex   -1.896988e+01 8.259917e+01 4.393398e+00
    endloop
  endfacet
  facet normal -0.000000e+00 -1.000000e+00 0.000000e+00
    outer loop
      vertex   -4.523125e+01 1.175992e+02 2.000000e+00
      vertex   -4.523125e+01 1.175992e+02 4.000000e+00
      vertex   -5.923125e+01 1.175992e+02 2.000000e+00
    endloop
  endfacet
  facet normal 0.000000e+00 -1.000000e+00 0.000000e+00
    outer loop
      vertex   -5.923125e+01 1.175992e+02 2.000000e+00
      vertex   -4.523125e+01 1.175992e+02 4.000000e+00
      vertex   -5.923125e+01 1.175992e+02 4.000000e+00
    endloop
  endfacet
  facet normal 0.000000e+00 -1.000000e+00 0.000000e+00
    outer loop
      vertex   -4.123125e+01 1.175992e+02 2.000000e+00
      vertex   -1.123125e+01 1.175992e+02 2.000000e+00
      vertex   -4.123125e+01 1.175992e+02 4.000000e+00
    endloop
  endfacet
  facet normal 0.000000e+00 -1.000000e+00 0.000000e+00
    outer loop
      vertex   -4.123125e+01 1.175992e+02 4.000000e+00
      vertex   -1.123125e+01 1.175992e+02 2.000000e+00
      vertex   -1.123125e+01 1.175992e+02 4.000000e+00
    endloop
  endfacet
  facet normal -1.000000e+00 0.000000e+00 1.776357e-16
    outer loop
      vertex   -4.430717e+01 5.559607e+01 2.000000e+00
      vertex   -4.430717e+01 4.959607e+01 2.000000e+00
      vertex   -4.430717e+01 5.559607e+01 4.200000e+01
    endloop
  endfacet
  facet normal -1.000000e+00 0.000000e+00 1.776357e-16
    outer loop
      vertex   -4.430717e+01 5.559607e+01 4.200000e+01
      vertex   -4.430717e+01 4.959607e+01 2.000000e+00
      vertex   -4.430717e+01 4.959607e+01 4.200000e+01
    endloop
  endfacet
  facet normal 1.000000e+00 0.000000e+00 1.776357e-16
    outer loop
      vertex   -4.730717e+01 5.559607e+01 4.200000e+01
      vertex   -4.730717e+01 4.959607e+01 4.200000e+01
      vertex   -4.730717e+01 5.559607e+01 2.000000e+00
    endloop
  endfacet
  facet normal 1.000000e+00 0.000000e+00 1.776357e-16
    outer loop
      vertex   -4.730717e+01 5.559607e+01 2.000000e+00
      vertex   -4.730717e+01 4.959607e+01 4.200000e+01
      vertex   -4.730717e+01 4.959607e+01 2.000000e+00
    endloop
  endfacet
  facet normal -0.000000e+00 -1.000000e+00 0.000000e+00
    outer loop
      vertex   -4.730717e+01 4.959607e+01 2.000000e+00
      vertex   -4.730717e+01 4.959607e+01 4.200000e+01
      vertex   -5.473125e+01 4.959607e+01 2.000000e+00
    endloop
  endfacet
  facet normal 0.000000e+00 -1.000000e+00 0.000000e+00
    outer loop
      vertex   -5.473125e+01 4.959607e+01 2.000000e+00
      vertex   -4.730717e+01 4.959607e+01 4.200000e+01
      vertex   -5.473125e+01 4.959607e+01 4.200000e+01
    endloop
  endfacet
  facet normal 0.000000e+00 1.000000e+00 0.000000e+00
    outer loop
      vertex   -4.730717e+01 5.559607e+01 4.200000e+01
      vertex   -4.730717e+01 5.559607e+01 2.000000e+00
      vertex   -5.273125e+01 5.559607e+01 4.200000e+01
    endloop
  endfacet
  facet normal 0.000000e+00 1.000000e+00 0.000000e+00
    outer loop
      vertex   -5.273125e+01 5.559607e+01 4.200000e+01
      vertex   -4.730717e+01 5.559607e+01 2.000000e+00
      vertex   -5.273125e+01 5.559607e+01 2.000000e+00
    endloop
  endfacet
  facet normal -0.000000e+00 1.000000e+00 0.000000e+00
    outer loop
      vertex   -5.923125e+01 1.265992e+02 4.200000e+01
      vertex   -7.231249e+00 1.265992e+02 4.200000e+01
      vertex   -5.923125e+01 1.265992e+02 7.105427e-14
    endloop
  endfacet
  facet normal -0.000000e+00 1.000000e+00 0.000000e+00
    outer loop
      vertex   -5.923125e+01 1.265992e+02 7.105427e-14
      vertex   -7.231249e+00 1.265992e+02 4.200000e+01
      vertex   -7.231249e+00 1.265992e+02 7.105427e-14
    endloop
  endfacet
  facet normal 1.000000e+00 0.000000e+00 -0.000000e+00
    outer loop
      vertex   -7.231249e+00 4.059607e+01 7.105427e-14
      vertex   -7.231249e+00 8.359762e+01 7.105427e-14
      vertex   -7.231249e+00 4.059607e+01 2.000000e+00
    endloop
  endfacet
  facet normal 1.000000e+00 -0.000000e+00 -0.000000e+00
    outer loop
      vertex   -7.231249e+00 4.059607e+01 2.000000e+00
      vertex   -7.231249e+00 8.359762e+01 7.105427e-14
      vertex   -7.231249e+00 8.351010e+01 4.200000e+01
    endloop
  endfacet
  facet normal 1.000000e+00 -2.061262e-17 2.211426e-17
    outer loop
      vertex   -7.231249e+00 4.042103e+01 4.200000e+01
      vertex   -7.231249e+00 4.059607e+01 2.000000e+00
      vertex   -7.231249e+00 8.351010e+01 4.200000e+01
    endloop
  endfacet
  facet normal 1.000000e+00 -5.074232e-15 0.000000e+00
    outer loop
      vertex   -7.231249e+00 4.042103e+01 4.200000e+01
      vertex   -7.231249e+00 4.042103e+01 2.000000e+00
      vertex   -7.231249e+00 4.059607e+01 2.000000e+00
    endloop
  endfacet
  facet normal 1.000000e+00 0.000000e+00 -0.000000e+00
    outer loop
      vertex   -7.231249e+00 1.265992e+02 7.105427e-14
      vertex   -7.231249e+00 1.265992e+02 4.200000e+01
      vertex   -7.231249e+00 8.359762e+01 7.105427e-14
    endloop
  endfacet
  facet normal 1.000000e+00 0.000000e+00 -0.000000e+00
    outer loop
      vertex   -7.231249e+00 8.359762e+01 7.105427e-14
      vertex   -7.231249e+00 1.265992e+02 4.200000e+01
      vertex   -7.231249e+00 8.351010e+01 4.200000e+01
    endloop
  endfacet
  facet normal 0.000000e+00 -1.000000e+00 -0.000000e+00
    outer loop
      vertex   -4.430717e+01 4.959607e+01 4.200000e+01
      vertex   -4.430717e+01 4.959607e+01 2.000000e+00
      vertex   -3.673125e+01 4.959607e+01 4.200000e+01
    endloop
  endfacet
  facet normal 0.000000e+00 -1.000000e+00 -0.000000e+00
    outer loop
      vertex   -3.673125e+01 4.959607e+01 4.200000e+01
      vertex   -4.430717e+01 4.959607e+01 2.000000e+00
      vertex   -3.673125e+01 4.959607e+01 2.000000e+00
    endloop
  endfacet
  facet normal 0.000000e+00 1.000000e+00 0.000000e+00
    outer loop
      vertex   -3.873125e+01 5.559607e+01 4.200000e+01
      vertex   -3.873125e+01 5.559607e+01 2.000000e+00
      vertex   -4.430717e+01 5.559607e+01 4.200000e+01
    endloop
  endfacet
  facet normal 0.000000e+00 1.000000e+00 0.000000e+00
    outer loop
      vertex   -4.430717e+01 5.559607e+01 4.200000e+01
      vertex   -3.873125e+01 5.559607e+01 2.000000e+00
      vertex   -4.430717e+01 5.559607e+01 2.000000e+00
    endloop
  endfacet
  facet normal -7.071068e-01 0.000000e+00 -7.071068e-01
    outer loop
      vertex   -2.250541e+01 8.259917e+01 2.207107e+01
      vertex   -2.250541e+01 8.459606e+01 2.207107e+01
      vertex   -1.189881e+01 8.259917e+01 1.146447e+01
    endloop
  endfacet
  facet normal -7.071068e-01 -4.744318e-16 -7.071068e-01
    outer loop
      vertex   -1.189881e+01 8.259917e+01 1.146447e+01
      vertex   -2.250541e+01 8.459606e+01 2.207107e+01
      vertex   -1.189881e+01 8.459606e+01 1.146447e+01
    endloop
  endfacet
  facet normal 7.071068e-01 0.000000e+00 -7.071068e-01
    outer loop
      vertex   -2.957648e+01 8.259917e+01 1.500000e+01
      vertex   -2.957648e+01 8.459606e+01 1.500000e+01
      vertex   -2.250541e+01 8.259917e+01 2.207107e+01
    endloop
  endfacet
  facet normal 7.071068e-01 0.000000e+00 -7.071068e-01
    outer loop
      vertex   -2.250541e+01 8.259917e+01 2.207107e+01
      vertex   -2.957648e+01 8.459606e+01 1.500000e+01
      vertex   -2.250541e+01 8.459606e+01 2.207107e+01
    endloop
  endfacet
  facet normal 0.000000e+00 0.000000e+00 1.000000e+00
    outer loop
      vertex   -1.123125e+01 1.175992e+02 4.000000e+00
      vertex   -1.123125e+01 1.195992e+02 4.000000e+00
      vertex   -4.123125e+01 1.175992e+02 4.000000e+00
    endloop
  endfacet
  facet normal 0.000000e+00 -0.000000e+00 1.000000e+00
    outer loop
      vertex   -4.123125e+01 1.175992e+02 4.000000e+00
      vertex   -1.123125e+01 1.195992e+02 4.000000e+00
      vertex   -5.923125e+01 1.195992e+02 4.000000e+00
    endloop
  endfacet
  facet normal 0.000000e+00 0.000000e+00 1.000000e+00
    outer loop
      vertex   -4.523125e+01 1.175992e+02 4.000000e+00
      vertex   -5.923125e+01 1.195992e+02 4.000000e+00
      vertex   -5.923125e+01 1.175992e+02 4.000000e+00
    endloop
  endfacet
  facet normal 0.000000e+00 -0.000000e+00 1.000000e+00
    outer loop
      vertex   -4.523125e+01 1.175992e+02 4.000000e+00
      vertex   -4.123125e+01 1.175992e+02 4.000000e+00
      vertex   -5.923125e+01 1.195992e+02 4.000000e+00
    endloop
  endfacet
  facet normal 0.000000e+00 1.000000e+00 -0.000000e+00
    outer loop
      vertex   -1.123125e+01 1.195992e+02 2.000000e+00
      vertex   -5.923125e+01 1.195992e+02 2.000000e+00
      vertex   -1.123125e+01 1.195992e+02 4.000000e+00
    endloop
  endfacet
  facet normal 0.000000e+00 1.000000e+00 -0.000000e+00
    outer loop
      vertex   -1.123125e+01 1.195992e+02 4.000000e+00
      vertex   -5.923125e+01 1.195992e+02 2.000000e+00
      vertex   -5.923125e+01 1.195992e+02 4.000000e+00
    endloop
  endfacet
  facet normal 0.000000e+00 -0.000000e+00 1.000000e+00
    outer loop
      vertex   -5.923125e+01 1.195992e+02 2.000000e+00
      vertex   -1.123125e+01 1.195992e+02 2.000000e+00
      vertex   -5.923125e+01 1.225992e+02 2.000000e+00
    endloop
  endfacet
  facet normal -0.000000e+00 -0.000000e+00 1.000000e+00
    outer loop
      vertex   -5.923125e+01 1.225992e+02 2.000000e+00
      vertex   -1.123125e+01 1.195992e+02 2.000000e+00
      vertex   -1.123125e+01 1.225992e+02 2.000000e+00
    endloop
  endfacet
  facet normal -1.000000e+00 -2.152957e-16 0.000000e+00
    outer loop
      vertex   -1.123125e+01 8.459606e+01 2.000000e+00
      vertex   -1.123125e+01 8.459606e+01 4.200000e+01
      vertex   -1.123125e+01 1.175992e+02 4.000000e+00
    endloop
  endfacet
  facet normal -1.000000e+00 -2.152957e-16 0.000000e+00
    outer loop
      vertex   -1.123125e+01 1.175992e+02 2.000000e+00
      vertex   -1.123125e+01 8.459606e+01 2.000000e+00
      vertex   -1.123125e+01 1.175992e+02 4.000000e+00
    endloop
  endfacet
  facet normal -1.000000e+00 5.921190e-17 8.881784e-17
    outer loop
      vertex   -1.123125e+01 1.225992e+02 2.000000e+00
      vertex   -1.123125e+01 1.195992e+02 4.000000e+00
      vertex   -1.123125e+01 1.225992e+02 4.200000e+01
    endloop
  endfacet
  facet normal -1.000000e+00 -5.921189e-16 -8.881784e-16
    outer loop
      vertex   -1.123125e+01 1.225992e+02 2.000000e+00
      vertex   -1.123125e+01 1.195992e+02 2.000000e+00
      vertex   -1.123125e+01 1.195992e+02 4.000000e+00
    endloop
  endfacet
  facet normal -1.000000e+00 -8.881784e-16 1.636118e-16
    outer loop
      vertex   -1.123125e+01 1.195992e+02 4.000000e+00
      vertex   -1.123125e+01 1.175992e+02 4.000000e+00
      vertex   -1.123125e+01 1.225992e+02 4.200000e+01
    endloop
  endfacet
  facet normal -1.000000e+00 -1.402272e-16 6.519718e-17
    outer loop
      vertex   -1.123125e+01 1.225992e+02 4.200000e+01
      vertex   -1.123125e+01 1.175992e+02 4.000000e+00
      vertex   -1.123125e+01 8.459606e+01 4.200000e+01
    endloop
  endfacet
  facet normal 1.000000e+00 0.000000e+00 -0.000000e+00
    outer loop
      vertex   -3.673125e+01 4.959607e+01 2.000000e+00
      vertex   -3.673125e+01 8.259917e+01 2.000000e+00
      vertex   -3.673125e+01 4.959607e+01 4.200000e+01
    endloop
  endfacet
  facet normal 1.000000e+00 -0.000000e+00 0.000000e+00
    outer loop
      vertex   -3.673125e+01 4.959607e+01 4.200000e+01
      vertex   -3.673125e+01 8.259917e+01 2.000000e+00
      vertex   -3.673125e+01 8.259917e+01 4.200000e+01
    endloop
  endfacet
  facet normal 9.365658e-08 1.000000e+00 -9.365658e-08
    outer loop
      vertex   -2.957648e+01 8.459606e+01 1.500000e+01
      vertex   -4.530717e+01 8.459607e+01 4.000000e+01
      vertex   -2.250541e+01 8.459606e+01 2.207107e+01
    endloop
  endfacet
  facet normal 8.296064e-08 1.000000e+00 -1.003868e-07
    outer loop
      vertex   -2.957648e+01 8.459606e+01 1.500000e+01
      vertex   -4.530717e+01 8.459606e+01 2.000000e+00
      vertex   -4.530717e+01 8.459607e+01 4.000000e+01
    endloop
  endfacet
  facet normal -4.448149e-07 1.000000e+00 5.382496e-07
    outer loop
      vertex   -2.957648e+01 8.459606e+01 1.500000e+01
      vertex   -3.673125e+01 8.459607e+01 2.000000e+00
      vertex   -4.530717e+01 8.459606e+01 2.000000e+00
    endloop
  endfacet
  facet normal -4.270915e-08 1.000000e+00 3.169440e-07
    outer loop
      vertex   -2.957648e+01 8.459606e+01 1.500000e+01
      vertex   -1.896988e+01 8.459607e+01 4.393398e+00
      vertex   -3.673125e+01 8.459607e+01 2.000000e+00
    endloop
  endfacet
  facet normal 3.272412e-07 1.000000e+00 -2.428452e-06
    outer loop
      vertex   -3.673125e+01 8.459607e+01 2.000000e+00
      vertex   -1.896988e+01 8.459607e+01 4.393398e+00
      vertex   -1.123125e+01 8.459606e+01 2.000000e+00
    endloop
  endfacet
  facet normal 9.510277e-07 1.000000e+00 -4.115481e-07
    outer loop
      vertex   -1.123125e+01 8.459606e+01 2.000000e+00
      vertex   -1.896988e+01 8.459607e+01 4.393398e+00
      vertex   -1.189881e+01 8.459606e+01 1.146447e+01
    endloop
  endfacet
  facet normal 1.451764e-07 1.000000e+00 1.451764e-07
    outer loop
      vertex   -1.123125e+01 8.459606e+01 4.200000e+01
      vertex   -1.189881e+01 8.459606e+01 1.146447e+01
      vertex   -2.250541e+01 8.459606e+01 2.207107e+01
    endloop
  endfacet
  facet normal 2.394950e-07 1.000000e+00 9.181861e-08
    outer loop
      vertex   -4.530717e+01 8.459607e+01 4.000000e+01
      vertex   -1.123125e+01 8.459606e+01 4.200000e+01
      vertex   -2.250541e+01 8.459606e+01 2.207107e+01
    endloop
  endfacet
  facet normal 1.918310e-07 1.000000e+00 9.039155e-07
    outer loop
      vertex   -4.530717e+01 8.459607e+01 4.000000e+01
      vertex   -5.473125e+01 8.459607e+01 4.200000e+01
      vertex   -1.123125e+01 8.459606e+01 4.200000e+01
    endloop
  endfacet
  facet normal 0.000000e+00 1.000000e+00 0.000000e+00
    outer loop
      vertex   -4.530717e+01 8.459607e+01 4.000000e+01
      vertex   -4.630717e+01 8.459607e+01 4.000000e+01
      vertex   -5.473125e+01 8.459607e+01 4.200000e+01
    endloop
  endfacet
  facet normal 0.000000e+00 1.000000e+00 0.000000e+00
    outer loop
      vertex   -5.473125e+01 8.459607e+01 4.200000e+01
      vertex   -4.630717e+01 8.459607e+01 4.000000e+01
      vertex   -5.473125e+01 8.459607e+01 2.000000e+00
    endloop
  endfacet
  facet normal -0.000000e+00 1.000000e+00 0.000000e+00
    outer loop
      vertex   -5.473125e+01 8.459607e+01 2.000000e+00
      vertex   -4.630717e+01 8.459607e+01 4.000000e+01
      vertex   -4.630717e+01 8.459607e+01 2.000000e+00
    endloop
  endfacet
  facet normal 6.785811e-06 1.000000e+00 0.000000e+00
    outer loop
      vertex   -1.123125e+01 8.459606e+01 2.000000e+00
      vertex   -1.189881e+01 8.459606e+01 1.146447e+01
      vertex   -1.123125e+01 8.459606e+01 4.200000e+01
    endloop
  endfacet
  facet normal -7.071068e-01 6.290136e-16 7.071068e-01
    outer loop
      vertex   -1.189881e+01 8.259917e+01 1.146447e+01
      vertex   -1.189881e+01 8.459606e+01 1.146447e+01
      vertex   -1.896988e+01 8.259917e+01 4.393398e+00
    endloop
  endfacet
  facet normal -7.071068e-01 -7.116463e-16 7.071068e-01
    outer loop
      vertex   -1.896988e+01 8.259917e+01 4.393398e+00
      vertex   -1.189881e+01 8.459606e+01 1.146447e+01
      vertex   -1.896988e+01 8.459607e+01 4.393398e+00
    endloop
  endfacet
  facet normal 7.071068e-01 0.000000e+00 7.071068e-01
    outer loop
      vertex   -2.957648e+01 8.259917e+01 1.500000e+01
      vertex   -1.896988e+01 8.259917e+01 4.393398e+00
      vertex   -2.957648e+01 8.459606e+01 1.500000e+01
    endloop
  endfacet
  facet normal 7.071068e-01 1.887037e-15 7.071068e-01
    outer loop
      vertex   -2.957648e+01 8.459606e+01 1.500000e+01
      vertex   -1.896988e+01 8.259917e+01 4.393398e+00
      vertex   -1.896988e+01 8.459607e+01 4.393398e+00
    endloop
  endfacet
  facet normal -1.000000e+00 -0.000000e+00 -0.000000e+00
    outer loop
      vertex   -3.873125e+01 8.259607e+01 4.200000e+01
      vertex   -3.873125e+01 8.259607e+01 2.000000e+00
      vertex   -3.873125e+01 7.159607e+01 4.200000e+01
    endloop
  endfacet
  facet normal -1.000000e+00 -0.000000e+00 -0.000000e+00
    outer loop
      vertex   -3.873125e+01 7.159607e+01 4.200000e+01
      vertex   -3.873125e+01 8.259607e+01 2.000000e+00
      vertex   -3.873125e+01 7.159607e+01 2.000000e+00
    endloop
  endfacet
  facet normal -1.000000e+00 -2.030122e-16 -1.776357e-16
    outer loop
      vertex   -5.473125e+01 4.959607e+01 2.000000e+00
      vertex   -5.473125e+01 4.959607e+01 4.200000e+01
      vertex   -5.473125e+01 8.459607e+01 2.000000e+00
    endloop
  endfacet
  facet normal -1.000000e+00 0.000000e+00 0.000000e+00
    outer loop
      vertex   -5.473125e+01 8.459607e+01 2.000000e+00
      vertex   -5.473125e+01 4.959607e+01 4.200000e+01
      vertex   -5.473125e+01 8.459607e+01 4.200000e+01
    endloop
  endfacet
  facet normal 1.000000e+00 0.000000e+00 -0.000000e+00
    outer loop
      vertex   -5.273125e+01 8.259607e+01 2.000000e+00
      vertex   -5.273125e+01 8.259607e+01 4.200000e+01
      vertex   -5.273125e+01 7.159607e+01 2.000000e+00
    endloop
  endfacet
  facet normal 1.000000e+00 0.000000e+00 -0.000000e+00
    outer loop
      vertex   -5.273125e+01 7.159607e+01 2.000000e+00
      vertex   -5.273125e+01 8.259607e+01 4.200000e+01
      vertex   -5.273125e+01 7.159607e+01 4.200000e+01
    endloop
  endfacet
  facet normal -1.000000e+00 0.000000e+00 -0.000000e+00
    outer loop
      vertex   -4.530717e+01 6.959607e+01 4.000000e+01
      vertex   -4.530717e+01 7.159607e+01 4.000000e+01
      vertex   -4.530717e+01 6.959607e+01 2.000000e+00
    endloop
  endfacet
  facet normal -1.000000e+00 0.000000e+00 0.000000e+00
    outer loop
      vertex   -4.530717e+01 6.959607e+01 2.000000e+00
      vertex   -4.530717e+01 7.159607e+01 4.000000e+01
      vertex   -4.530717e+01 7.159607e+01 2.000000e+00
    endloop
  endfacet
  facet normal -1.000000e+00 -0.000000e+00 0.000000e+00
    outer loop
      vertex   -4.530717e+01 8.459607e+01 4.000000e+01
      vertex   -4.530717e+01 8.459606e+01 2.000000e+00
      vertex   -4.530717e+01 8.259607e+01 4.000000e+01
    endloop
  endfacet
  facet normal -1.000000e+00 -0.000000e+00 -0.000000e+00
    outer loop
      vertex   -4.530717e+01 8.259607e+01 4.000000e+01
      vertex   -4.530717e+01 8.459606e+01 2.000000e+00
      vertex   -4.530717e+01 8.259607e+01 2.000000e+00
    endloop
  endfacet
  facet normal 0.000000e+00 0.000000e+00 -1.000000e+00
    outer loop
      vertex   -4.630717e+01 6.959607e+01 4.000000e+01
      vertex   -4.630717e+01 7.159607e+01 4.000000e+01
      vertex   -4.530717e+01 6.959607e+01 4.000000e+01
    endloop
  endfacet
  facet normal 0.000000e+00 0.000000e+00 -1.000000e+00
    outer loop
      vertex   -4.530717e+01 6.959607e+01 4.000000e+01
      vertex   -4.630717e+01 7.159607e+01 4.000000e+01
      vertex   -4.530717e+01 7.159607e+01 4.000000e+01
    endloop
  endfacet
  facet normal -0.000000e+00 -0.000000e+00 -1.000000e+00
    outer loop
      vertex   -4.530717e+01 8.459607e+01 4.000000e+01
      vertex   -4.530717e+01 8.259607e+01 4.000000e+01
      vertex   -4.630717e+01 8.459607e+01 4.000000e+01
    endloop
  endfacet
  facet normal -0.000000e+00 -0.000000e+00 -1.000000e+00
    outer loop
      vertex   -4.630717e+01 8.459607e+01 4.000000e+01
      vertex   -4.530717e+01 8.259607e+01 4.000000e+01
      vertex   -4.630717e+01 8.259607e+01 4.000000e+01
    endloop
  endfacet
  facet normal 1.000000e+00 0.000000e+00 -0.000000e+00
    outer loop
      vertex   -4.630717e+01 6.959607e+01 2.000000e+00
      vertex   -4.630717e+01 7.159607e+01 2.000000e+00
      vertex   -4.630717e+01 6.959607e+01 4.000000e+01
    endloop
  endfacet
  facet normal 1.000000e+00 -0.000000e+00 0.000000e+00
    outer loop
      vertex   -4.630717e+01 6.959607e+01 4.000000e+01
      vertex   -4.630717e+01 7.159607e+01 2.000000e+00
      vertex   -4.630717e+01 7.159607e+01 4.000000e+01
    endloop
  endfacet
  facet normal 1.000000e+00 0.000000e+00 0.000000e+00
    outer loop
      vertex   -4.630717e+01 8.459607e+01 4.000000e+01
      vertex   -4.630717e+01 8.259607e+01 4.000000e+01
      vertex   -4.630717e+01 8.459607e+01 2.000000e+00
    endloop
  endfacet
  facet normal 1.000000e+00 0.000000e+00 0.000000e+00
    outer loop
      vertex   -4.630717e+01 8.459607e+01 2.000000e+00
      vertex   -4.630717e+01 8.259607e+01 4.000000e+01
      vertex   -4.630717e+01 8.259607e+01 2.000000e+00
    endloop
  endfacet
  facet normal -0.000000e+00 1.000000e+00 0.000000e+00
    outer loop
      vertex   -4.530717e+01 7.159607e+01 2.000000e+00
      vertex   -4.530717e+01 7.159607e+01 4.000000e+01
      vertex   -3.873125e+01 7.159607e+01 2.000000e+00
    endloop
  endfacet
  facet normal 0.000000e+00 1.000000e+00 -0.000000e+00
    outer loop
      vertex   -3.873125e+01 7.159607e+01 2.000000e+00
      vertex   -4.530717e+01 7.159607e+01 4.000000e+01
      vertex   -3.873125e+01 7.159607e+01 4.200000e+01
    endloop
  endfacet
  facet normal 0.000000e+00 1.000000e+00 0.000000e+00
    outer loop
      vertex   -3.873125e+01 7.159607e+01 4.200000e+01
      vertex   -4.530717e+01 7.159607e+01 4.000000e+01
      vertex   -5.273125e+01 7.159607e+01 4.200000e+01
    endloop
  endfacet
  facet normal 0.000000e+00 1.000000e+00 0.000000e+00
    outer loop
      vertex   -5.273125e+01 7.159607e+01 4.200000e+01
      vertex   -4.530717e+01 7.159607e+01 4.000000e+01
      vertex   -4.630717e+01 7.159607e+01 4.000000e+01
    endloop
  endfacet
  facet normal -0.000000e+00 1.000000e+00 0.000000e+00
    outer loop
      vertex   -5.273125e+01 7.159607e+01 2.000000e+00
      vertex   -4.630717e+01 7.159607e+01 4.000000e+01
      vertex   -4.630717e+01 7.159607e+01 2.000000e+00
    endloop
  endfacet
  facet normal -0.000000e+00 1.000000e+00 0.000000e+00
    outer loop
      vertex   -5.273125e+01 7.159607e+01 2.000000e+00
      vertex   -5.273125e+01 7.159607e+01 4.200000e+01
      vertex   -4.630717e+01 7.159607e+01 4.000000e+01
    endloop
  endfacet
  facet normal 1.000000e+00 0.000000e+00 -0.000000e+00
    outer loop
      vertex   -5.273125e+01 6.959607e+01 2.000000e+00
      vertex   -5.273125e+01 6.959607e+01 4.200000e+01
      vertex   -5.273125e+01 5.559607e+01 2.000000e+00
    endloop
  endfacet
  facet normal 1.000000e+00 0.000000e+00 -0.000000e+00
    outer loop
      vertex   -5.273125e+01 5.559607e+01 2.000000e+00
      vertex   -5.273125e+01 6.959607e+01 4.200000e+01
      vertex   -5.273125e+01 5.559607e+01 4.200000e+01
    endloop
  endfacet
  facet normal -1.000000e+00 -0.000000e+00 -0.000000e+00
    outer loop
      vertex   -3.873125e+01 6.959607e+01 4.200000e+01
      vertex   -3.873125e+01 6.959607e+01 2.000000e+00
      vertex   -3.873125e+01 5.559607e+01 4.200000e+01
    endloop
  endfacet
  facet normal -1.000000e+00 -0.000000e+00 -0.000000e+00
    outer loop
      vertex   -3.873125e+01 5.559607e+01 4.200000e+01
      vertex   -3.873125e+01 6.959607e+01 2.000000e+00
      vertex   -3.873125e+01 5.559607e+01 2.000000e+00
    endloop
  endfacet
  facet normal 0.000000e+00 -1.000000e+00 0.000000e+00
    outer loop
      vertex   -4.530717e+01 6.959607e+01 2.000000e+00
      vertex   -3.873125e+01 6.959607e+01 2.000000e+00
      vertex   -4.530717e+01 6.959607e+01 4.000000e+01
    endloop
  endfacet
  facet normal 0.000000e+00 -1.000000e+00 0.000000e+00
    outer loop
      vertex   -4.530717e+01 6.959607e+01 4.000000e+01
      vertex   -3.873125e+01 6.959607e+01 2.000000e+00
      vertex   -3.873125e+01 6.959607e+01 4.200000e+01
    endloop
  endfacet
  facet normal 0.000000e+00 -1.000000e+00 0.000000e+00
    outer loop
      vertex   -5.273125e+01 6.959607e+01 4.200000e+01
      vertex   -4.530717e+01 6.959607e+01 4.000000e+01
      vertex   -3.873125e+01 6.959607e+01 4.200000e+01
    endloop
  endfacet
  facet normal 0.000000e+00 -1.000000e+00 0.000000e+00
    outer loop
      vertex   -5.273125e+01 6.959607e+01 4.200000e+01
      vertex   -4.630717e+01 6.959607e+01 4.000000e+01
      vertex   -4.530717e+01 6.959607e+01 4.000000e+01
    endloop
  endfacet
  facet normal 0.000000e+00 -1.000000e+00 0.000000e+00
    outer loop
      vertex   -5.273125e+01 6.959607e+01 4.200000e+01
      vertex   -5.273125e+01 6.959607e+01 2.000000e+00
      vertex   -4.630717e+01 6.959607e+01 4.000000e+01
    endloop
  endfacet
  facet normal 0.000000e+00 -1.000000e+00 -0.000000e+00
    outer loop
      vertex   -4.630717e+01 6.959607e+01 4.000000e+01
      vertex   -5.273125e+01 6.959607e+01 2.000000e+00
      vertex   -4.630717e+01 6.959607e+01 2.000000e+00
    endloop
  endfacet
  facet normal 0.000000e+00 -1.000000e+00 0.000000e+00
    outer loop
      vertex   -4.530717e+01 8.259607e+01 2.000000e+00
      vertex   -3.873125e+01 8.259607e+01 2.000000e+00
      vertex   -4.530717e+01 8.259607e+01 4.000000e+01
    endloop
  endfacet
  facet normal 0.000000e+00 -1.000000e+00 0.000000e+00
    outer loop
      vertex   -4.530717e+01 8.259607e+01 4.000000e+01
      vertex   -3.873125e+01 8.259607e+01 2.000000e+00
      vertex   -3.873125e+01 8.259607e+01 4.200000e+01
    endloop
  endfacet
  facet normal 0.000000e+00 -1.000000e+00 0.000000e+00
    outer loop
      vertex   -5.273125e+01 8.259607e+01 4.200000e+01
      vertex   -4.530717e+01 8.259607e+01 4.000000e+01
      vertex   -3.873125e+01 8.259607e+01 4.200000e+01
    endloop
  endfacet
  facet normal 0.000000e+00 -1.000000e+00 0.000000e+00
    outer loop
      vertex   -5.273125e+01 8.259607e+01 4.200000e+01
      vertex   -4.630717e+01 8.259607e+01 4.000000e+01
      vertex   -4.530717e+01 8.259607e+01 4.000000e+01
    endloop
  endfacet
  facet normal 0.000000e+00 -1.000000e+00 0.000000e+00
    outer loop
      vertex   -5.273125e+01 8.259607e+01 4.200000e+01
      vertex   -5.273125e+01 8.259607e+01 2.000000e+00
      vertex   -4.630717e+01 8.259607e+01 4.000000e+01
    endloop
  endfacet
  facet normal 0.000000e+00 -1.000000e+00 -0.000000e+00
    outer loop
      vertex   -4.630717e+01 8.259607e+01 4.000000e+01
      vertex   -5.273125e+01 8.259607e+01 2.000000e+00
      vertex   -4.630717e+01 8.259607e+01 2.000000e+00
    endloop
  endfacet
  facet normal 0.000000e+00 -1.000000e+00 -3.968929e-08
    outer loop
      vertex   -1.123125e+01 1.225992e+02 2.000000e+00
      vertex   -1.123125e+01 1.225992e+02 4.200000e+01
      vertex   -5.923125e+01 1.225992e+02 2.000000e+00
    endloop
  endfacet
  facet normal 9.437401e-08 -1.000000e+00 -1.529381e-07
    outer loop
      vertex   -5.923125e+01 1.225992e+02 2.000000e+00
      vertex   -1.123125e+01 1.225992e+02 4.200000e+01
      vertex   -5.923125e+01 1.225992e+02 4.200000e+01
    endloop
  endfacet
  facet normal -0.000000e+00 1.000000e+00 0.000000e+00
    outer loop
      vertex   -4.523125e+01 1.175992e+02 4.000000e+00
      vertex   -4.523125e+01 1.175992e+02 4.200000e+01
      vertex   -4.123125e+01 1.175992e+02 4.000000e+00
    endloop
  endfacet
  facet normal 0.000000e+00 1.000000e+00 -0.000000e+00
    outer loop
      vertex   -4.123125e+01 1.175992e+02 4.000000e+00
      vertex   -4.523125e+01 1.175992e+02 4.200000e+01
      vertex   -4.123125e+01 1.175992e+02 4.200000e+01
    endloop
  endfacet
  facet normal -1.000000e+00 -0.000000e+00 0.000000e+00
    outer loop
      vertex   -4.523125e+01 1.175992e+02 2.000000e+00
      vertex   -4.523125e+01 9.759917e+01 2.000000e+00
      vertex   -4.523125e+01 1.175992e+02 4.000000e+00
    endloop
  endfacet
  facet normal -1.000000e+00 -0.000000e+00 0.000000e+00
    outer loop
      vertex   -4.523125e+01 1.175992e+02 4.000000e+00
      vertex   -4.523125e+01 9.759917e+01 2.000000e+00
      vertex   -4.523125e+01 9.759917e+01 4.200000e+01
    endloop
  endfacet
  facet normal -1.000000e+00 -0.000000e+00 -0.000000e+00
    outer loop
      vertex   -4.523125e+01 1.175992e+02 4.200000e+01
      vertex   -4.523125e+01 1.175992e+02 4.000000e+00
      vertex   -4.523125e+01 9.759917e+01 4.200000e+01
    endloop
  endfacet
  facet normal 0.000000e+00 0.000000e+00 1.000000e+00
    outer loop
      vertex   -4.123125e+01 1.175992e+02 4.200000e+01
      vertex   -4.523125e+01 1.175992e+02 4.200000e+01
      vertex   -4.123125e+01 9.759917e+01 4.200000e+01
    endloop
  endfacet
  facet normal 0.000000e+00 0.000000e+00 1.000000e+00
    outer loop
      vertex   -4.123125e+01 9.759917e+01 4.200000e+01
      vertex   -4.523125e+01 1.175992e+02 4.200000e+01
      vertex   -4.523125e+01 9.759917e+01 4.200000e+01
    endloop
  endfacet
  facet normal 0.000000e+00 -0.000000e+00 -1.000000e+00
    outer loop
      vertex   -5.923125e+01 1.265992e+02 7.105427e-14
      vertex   -7.231249e+00 1.265992e+02 7.105427e-14
      vertex   -5.923125e+01 8.359762e+01 7.105427e-14
    endloop
  endfacet
  facet normal 0.000000e+00 0.000000e+00 -1.000000e+00
    outer loop
      vertex   -5.923125e+01 8.359762e+01 7.105427e-14
      vertex   -7.231249e+00 1.265992e+02 7.105427e-14
      vertex   -7.231249e+00 8.359762e+01 7.105427e-14
    endloop
  endfacet
  facet normal 0.000000e+00 0.000000e+00 -1.000000e+00
    outer loop
      vertex   -7.231249e+00 4.059607e+01 7.105427e-14
      vertex   -5.923125e+01 8.359762e+01 7.105427e-14
      vertex   -7.231249e+00 8.359762e+01 7.105427e-14
    endloop
  endfacet
  facet normal 0.000000e+00 0.000000e+00 -1.000000e+00
    outer loop
      vertex   -7.231249e+00 4.059607e+01 7.105427e-14
      vertex   -5.923125e+01 4.059607e+01 7.105427e-14
      vertex   -5.923125e+01 8.359762e+01 7.105427e-14
    endloop
  endfacet
  facet normal -0.000000e+00 -1.000000e+00 0.000000e+00
    outer loop
      vertex   -4.123125e+01 9.759917e+01 2.000000e+00
      vertex   -4.123125e+01 9.759917e+01 4.200000e+01
      vertex   -4.523125e+01 9.759917e+01 2.000000e+00
    endloop
  endfacet
  facet normal 0.000000e+00 -1.000000e+00 0.000000e+00
    outer loop
      vertex   -4.523125e+01 9.759917e+01 2.000000e+00
      vertex   -4.123125e+01 9.759917e+01 4.200000e+01
      vertex   -4.523125e+01 9.759917e+01 4.200000e+01
    endloop
  endfacet
  facet normal 1.000000e+00 0.000000e+00 -0.000000e+00
    outer loop
      vertex   -4.123125e+01 1.175992e+02 2.000000e+00
      vertex   -4.123125e+01 1.175992e+02 4.000000e+00
      vertex   -4.123125e+01 9.759917e+01 2.000000e+00
    endloop
  endfacet
  facet normal 1.000000e+00 0.000000e+00 -0.000000e+00
    outer loop
      vertex   -4.123125e+01 9.759917e+01 2.000000e+00
      vertex   -4.123125e+01 1.175992e+02 4.000000e+00
      vertex   -4.123125e+01 9.759917e+01 4.200000e+01
    endloop
  endfacet
  facet normal 1.000000e+00 -0.000000e+00 0.000000e+00
    outer loop
      vertex   -4.123125e+01 9.759917e+01 4.200000e+01
      vertex   -4.123125e+01 1.175992e+02 4.000000e+00
      vertex   -4.123125e+01 1.175992e+02 4.200000e+01
    endloop
  endfacet
  facet normal 2.960595e-16 1.000000e+00 0.000000e+00
    outer loop
      vertex   -1.123125e+01 4.459593e+01 4.200000e+01
      vertex   -1.123125e+01 4.459593e+01 2.000000e+00
      vertex   -5.923125e+01 4.459593e+01 4.200000e+01
    endloop
  endfacet
  facet normal 2.960595e-16 1.000000e+00 0.000000e+00
    outer loop
      vertex   -5.923125e+01 4.459593e+01 4.200000e+01
      vertex   -1.123125e+01 4.459593e+01 2.000000e+00
      vertex   -5.923125e+01 4.459593e+01 2.000000e+00
    endloop
  endfacet
  facet normal -1.376273e-16 -1.000000e+00 0.000000e+00
    outer loop
      vertex   -7.603205e+00 4.059607e+01 4.200000e+01
      vertex   -5.923125e+01 4.059607e+01 4.200000e+01
      vertex   -7.603205e+00 4.059607e+01 2.000000e+00
    endloop
  endfacet
  facet normal 1.389983e-08 -1.000000e+00 1.794053e-08
    outer loop
      vertex   -7.603205e+00 4.059607e+01 2.000000e+00
      vertex   -5.923125e+01 4.059607e+01 4.200000e+01
      vertex   -5.923125e+01 4.059607e+01 7.105427e-14
    endloop
  endfacet
  facet normal 0.000000e+00 -1.000000e+00 3.767512e-07
    outer loop
      vertex   -7.231249e+00 4.059607e+01 7.105427e-14
      vertex   -7.603205e+00 4.059607e+01 2.000000e+00
      vertex   -5.923125e+01 4.059607e+01 7.105427e-14
    endloop
  endfacet
  facet normal -2.025783e-06 -1.000000e+00 3.552714e-15
    outer loop
      vertex   -7.231249e+00 4.059607e+01 7.105427e-14
      vertex   -7.231249e+00 4.059607e+01 2.000000e+00
      vertex   -7.603205e+00 4.059607e+01 2.000000e+00
    endloop
  endfacet
  facet normal -8.940697e-08 0.000000e+00 1.000000e+00
    outer loop
      vertex   -3.873125e+01 7.159607e+01 4.200000e+01
      vertex   -3.673125e+01 8.259917e+01 4.200000e+01
      vertex   -3.873125e+01 8.259607e+01 4.200000e+01
    endloop
  endfacet
  facet normal -8.940697e-08 0.000000e+00 1.000000e+00
    outer loop
      vertex   -3.873125e+01 7.159607e+01 4.200000e+01
      vertex   -3.873125e+01 6.959607e+01 4.200000e+01
      vertex   -3.673125e+01 8.259917e+01 4.200000e+01
    endloop
  endfacet
  facet normal -0.000000e+00 0.000000e+00 1.000000e+00
    outer loop
      vertex   -3.873125e+01 7.159607e+01 4.200000e+01
      vertex   -5.273125e+01 6.959607e+01 4.200000e+01
      vertex   -3.873125e+01 6.959607e+01 4.200000e+01
    endloop
  endfacet
  facet normal 0.000000e+00 0.000000e+00 1.000000e+00
    outer loop
      vertex   -3.873125e+01 7.159607e+01 4.200000e+01
      vertex   -5.273125e+01 7.159607e+01 4.200000e+01
      vertex   -5.273125e+01 6.959607e+01 4.200000e+01
    endloop
  endfacet
  facet normal 0.000000e+00 -0.000000e+00 1.000000e+00
    outer loop
      vertex   -5.273125e+01 6.959607e+01 4.200000e+01
      vertex   -5.273125e+01 7.159607e+01 4.200000e+01
      vertex   -5.473125e+01 8.459607e+01 4.200000e+01
    endloop
  endfacet
  facet normal 0.000000e+00 -0.000000e+00 1.000000e+00
    outer loop
      vertex   -5.473125e+01 4.959607e+01 4.200000e+01
      vertex   -5.273125e+01 6.959607e+01 4.200000e+01
      vertex   -5.473125e+01 8.459607e+01 4.200000e+01
    endloop
  endfacet
  facet normal 0.000000e+00 0.000000e+00 1.000000e+00
    outer loop
      vertex   -5.473125e+01 4.959607e+01 4.200000e+01
      vertex   -5.273125e+01 5.559607e+01 4.200000e+01
      vertex   -5.273125e+01 6.959607e+01 4.200000e+01
    endloop
  endfacet
  facet normal 0.000000e+00 -0.000000e+00 1.000000e+00
    outer loop
      vertex   -5.473125e+01 4.959607e+01 4.200000e+01
      vertex   -4.730717e+01 4.959607e+01 4.200000e+01
      vertex   -5.273125e+01 5.559607e+01 4.200000e+01
    endloop
  endfacet
  facet normal -0.000000e+00 0.000000e+00 1.000000e+00
    outer loop
      vertex   -5.273125e+01 5.559607e+01 4.200000e+01
      vertex   -4.730717e+01 4.959607e+01 4.200000e+01
      vertex   -4.730717e+01 5.559607e+01 4.200000e+01
    endloop
  endfacet
  facet normal 0.000000e+00 -0.000000e+00 1.000000e+00
    outer loop
      vertex   -5.273125e+01 7.159607e+01 4.200000e+01
      vertex   -5.273125e+01 8.259607e+01 4.200000e+01
      vertex   -5.473125e+01 8.459607e+01 4.200000e+01
    endloop
  endfacet
  facet normal -0.000000e+00 0.000000e+00 1.000000e+00
    outer loop
      vertex   -5.473125e+01 8.459607e+01 4.200000e+01
      vertex   -5.273125e+01 8.259607e+01 4.200000e+01
      vertex   -3.873125e+01 8.259607e+01 4.200000e+01
    endloop
  endfacet
  facet normal -8.831143e-08 -7.064914e-07 1.000000e+00
    outer loop
      vertex   -3.673125e+01 8.259917e+01 4.200000e+01
      vertex   -5.473125e+01 8.459607e+01 4.200000e+01
      vertex   -3.873125e+01 8.259607e+01 4.200000e+01
    endloop
  endfacet
  facet normal -4.110655e-09 5.249247e-08 1.000000e+00
    outer loop
      vertex   -3.673125e+01 8.259917e+01 4.200000e+01
      vertex   -1.123125e+01 8.459606e+01 4.200000e+01
      vertex   -5.473125e+01 8.459607e+01 4.200000e+01
    endloop
  endfacet
  facet normal 1.289442e-08 -1.646599e-07 1.000000e+00
    outer loop
      vertex   -3.673125e+01 8.259917e+01 4.200000e+01
      vertex   -1.123125e+01 8.351010e+01 4.200000e+01
      vertex   -1.123125e+01 8.459606e+01 4.200000e+01
    endloop
  endfacet
  facet normal 7.012314e-09 -4.186174e-15 1.000000e+00
    outer loop
      vertex   -3.673125e+01 8.259917e+01 4.200000e+01
      vertex   -1.123125e+01 8.259917e+01 4.200000e+01
      vertex   -1.123125e+01 8.351010e+01 4.200000e+01
    endloop
  endfacet
  facet normal -1.776357e-14 1.060440e-20 1.000000e+00
    outer loop
      vertex   -1.123125e+01 8.351010e+01 4.200000e+01
      vertex   -1.123125e+01 8.259917e+01 4.200000e+01
      vertex   -7.231249e+00 8.351010e+01 4.200000e+01
    endloop
  endfacet
  facet normal 4.470350e-08 6.268647e-24 1.000000e+00
    outer loop
      vertex   -1.123125e+01 8.459606e+01 4.200000e+01
      vertex   -7.231249e+00 8.351010e+01 4.200000e+01
      vertex   -1.123125e+01 1.225992e+02 4.200000e+01
    endloop
  endfacet
  facet normal -1.776357e-14 -1.646599e-07 1.000000e+00
    outer loop
      vertex   -1.123125e+01 8.459606e+01 4.200000e+01
      vertex   -1.123125e+01 8.351010e+01 4.200000e+01
      vertex   -7.231249e+00 8.351010e+01 4.200000e+01
    endloop
  endfacet
  facet normal -0.000000e+00 0.000000e+00 1.000000e+00
    outer loop
      vertex   -5.923125e+01 4.459593e+01 4.200000e+01
      vertex   -5.923125e+01 4.059607e+01 4.200000e+01
      vertex   -1.123125e+01 4.459593e+01 4.200000e+01
    endloop
  endfacet
  facet normal 0.000000e+00 0.000000e+00 1.000000e+00
    outer loop
      vertex   -1.123125e+01 4.459593e+01 4.200000e+01
      vertex   -5.923125e+01 4.059607e+01 4.200000e+01
      vertex   -7.603205e+00 4.059607e+01 4.200000e+01
    endloop
  endfacet
  facet normal 0.000000e+00 0.000000e+00 1.000000e+00
    outer loop
      vertex   -7.231249e+00 4.042103e+01 4.200000e+01
      vertex   -7.603205e+00 4.059607e+01 4.200000e+01
      vertex   -7.603205e+00 4.042103e+01 4.200000e+01
    endloop
  endfacet
  facet normal 0.000000e+00 0.000000e+00 1.000000e+00
    outer loop
      vertex   -7.231249e+00 4.042103e+01 4.200000e+01
      vertex   -1.123125e+01 4.459593e+01 4.200000e+01
      vertex   -7.603205e+00 4.059607e+01 4.200000e+01
    endloop
  endfacet
  facet normal -1.721113e-15 -1.649009e-15 1.000000e+00
    outer loop
      vertex   -7.231249e+00 4.042103e+01 4.200000e+01
      vertex   -7.231249e+00 8.351010e+01 4.200000e+01
      vertex   -1.123125e+01 4.459593e+01 4.200000e+01
    endloop
  endfacet
  facet normal -1.776357e-14 0.000000e+00 1.000000e+00
    outer loop
      vertex   -1.123125e+01 4.459593e+01 4.200000e+01
      vertex   -7.231249e+00 8.351010e+01 4.200000e+01
      vertex   -1.123125e+01 8.259917e+01 4.200000e+01
    endloop
  endfacet
  facet normal 4.149871e-09 -4.149868e-09 1.000000e+00
    outer loop
      vertex   -7.231249e+00 8.351010e+01 4.200000e+01
      vertex   -7.231249e+00 1.265992e+02 4.200000e+01
      vertex   -1.123125e+01 1.225992e+02 4.200000e+01
    endloop
  endfacet
  facet normal 0.000000e+00 -0.000000e+00 1.000000e+00
    outer loop
      vertex   -1.123125e+01 1.225992e+02 4.200000e+01
      vertex   -7.231249e+00 1.265992e+02 4.200000e+01
      vertex   -5.923125e+01 1.265992e+02 4.200000e+01
    endloop
  endfacet
  facet normal 0.000000e+00 -0.000000e+00 1.000000e+00
    outer loop
      vertex   -5.923125e+01 1.225992e+02 4.200000e+01
      vertex   -1.123125e+01 1.225992e+02 4.200000e+01
      vertex   -5.923125e+01 1.265992e+02 4.200000e+01
    endloop
  endfacet
  facet normal -5.418095e-08 -5.418095e-09 1.000000e+00
    outer loop
      vertex   -3.673125e+01 8.259917e+01 4.200000e+01
      vertex   -3.873125e+01 6.959607e+01 4.200000e+01
      vertex   -3.673125e+01 4.959607e+01 4.200000e+01
    endloop
  endfacet
  facet normal 0.000000e+00 0.000000e+00 1.000000e+00
    outer loop
      vertex   -3.673125e+01 4.959607e+01 4.200000e+01
      vertex   -3.873125e+01 6.959607e+01 4.200000e+01
      vertex   -3.873125e+01 5.559607e+01 4.200000e+01
    endloop
  endfacet
  facet normal 0.000000e+00 -0.000000e+00 1.000000e+00
    outer loop
      vertex   -4.430717e+01 4.959607e+01 4.200000e+01
      vertex   -3.873125e+01 5.559607e+01 4.200000e+01
      vertex   -4.430717e+01 5.559607e+01 4.200000e+01
    endloop
  endfacet
  facet normal 0.000000e+00 -0.000000e+00 1.000000e+00
    outer loop
      vertex   -4.430717e+01 4.959607e+01 4.200000e+01
      vertex   -3.673125e+01 4.959607e+01 4.200000e+01
      vertex   -3.873125e+01 5.559607e+01 4.200000e+01
    endloop
  endfacet
  facet normal -1.000000e+00 5.544418e-08 -1.108846e-07
    outer loop
      vertex   -5.923125e+01 8.359762e+01 7.105427e-14
      vertex   -5.923125e+01 4.059607e+01 7.105427e-14
      vertex   -5.923125e+01 4.459593e+01 2.000000e+00
    endloop
  endfacet
  facet normal -1.000000e+00 6.531726e-08 8.164878e-08
    outer loop
      vertex   -5.923125e+01 8.109755e+01 2.000000e+00
      vertex   -5.923125e+01 8.359762e+01 7.105427e-14
      vertex   -5.923125e+01 4.459593e+01 2.000000e+00
    endloop
  endfacet
  facet normal -1.000000e+00 -6.531726e-08 -8.164878e-08
    outer loop
      vertex   -5.923125e+01 8.109755e+01 2.000000e+00
      vertex   -5.923125e+01 1.175992e+02 2.000000e+00
      vertex   -5.923125e+01 8.359762e+01 7.105427e-14
    endloop
  endfacet
  facet normal -1.000000e+00 0.000000e+00 -1.192093e-06
    outer loop
      vertex   -5.923125e+01 8.359762e+01 7.105427e-14
      vertex   -5.923125e+01 1.175992e+02 2.000000e+00
      vertex   -5.923125e+01 1.265992e+02 7.105427e-14
    endloop
  endfacet
  facet normal -1.000000e+00 0.000000e+00 -1.192093e-06
    outer loop
      vertex   -5.923125e+01 1.265992e+02 7.105427e-14
      vertex   -5.923125e+01 1.175992e+02 2.000000e+00
      vertex   -5.923125e+01 1.195992e+02 2.000000e+00
    endloop
  endfacet
  facet normal -1.000000e+00 0.000000e+00 -1.192093e-06
    outer loop
      vertex   -5.923125e+01 1.225992e+02 2.000000e+00
      vertex   -5.923125e+01 1.265992e+02 7.105427e-14
      vertex   -5.923125e+01 1.195992e+02 2.000000e+00
    endloop
  endfacet
  facet normal -1.000000e+00 5.676633e-07 -5.676633e-08
    outer loop
      vertex   -5.923125e+01 1.225992e+02 2.000000e+00
      vertex   -5.923125e+01 1.265992e+02 4.200000e+01
      vertex   -5.923125e+01 1.265992e+02 7.105427e-14
    endloop
  endfacet
  facet normal -1.000000e+00 1.776354e-15 -1.776354e-16
    outer loop
      vertex   -5.923125e+01 1.225992e+02 2.000000e+00
      vertex   -5.923125e+01 1.225992e+02 4.200000e+01
      vertex   -5.923125e+01 1.265992e+02 4.200000e+01
    endloop
  endfacet
  facet normal -1.000000e+00 1.776417e-15 1.776357e-16
    outer loop
      vertex   -5.923125e+01 4.459593e+01 4.200000e+01
      vertex   -5.923125e+01 4.459593e+01 2.000000e+00
      vertex   -5.923125e+01 4.059607e+01 4.200000e+01
    endloop
  endfacet
  facet normal -1.000000e+00 -1.691825e-15 -1.691768e-16
    outer loop
      vertex   -5.923125e+01 4.059607e+01 4.200000e+01
      vertex   -5.923125e+01 4.459593e+01 2.000000e+00
      vertex   -5.923125e+01 4.059607e+01 7.105427e-14
    endloop
  endfacet
  facet normal -1.000000e+00 0.000000e+00 0.000000e+00
    outer loop
      vertex   -5.923125e+01 1.175992e+02 2.000000e+00
      vertex   -5.923125e+01 1.175992e+02 4.000000e+00
      vertex   -5.923125e+01 1.195992e+02 2.000000e+00
    endloop
  endfacet
  facet normal -1.000000e+00 0.000000e+00 0.000000e+00
    outer loop
      vertex   -5.923125e+01 1.195992e+02 2.000000e+00
      vertex   -5.923125e+01 1.175992e+02 4.000000e+00
      vertex   -5.923125e+01 1.195992e+02 4.000000e+00
    endloop
  endfacet
endsolid
