solid ascii
  facet normal -0.000000e+00 1.000000e+00 0.000000e+00
    outer loop
      vertex   -2.361249e+02 2.291793e+02 7.000000e+00
      vertex   -1.831249e+02 2.291793e+02 7.000000e+00
      vertex   -2.361249e+02 2.291793e+02 7.077672e-14
    endloop
  endfacet
  facet normal -0.000000e+00 1.000000e+00 0.000000e+00
    outer loop
      vertex   -2.361249e+02 2.291793e+02 7.077672e-14
      vertex   -1.831249e+02 2.291793e+02 7.000000e+00
      vertex   -1.831249e+02 2.291793e+02 7.077672e-14
    endloop
  endfacet
  facet normal 0.000000e+00 -1.000000e+00 0.000000e+00
    outer loop
      vertex   -2.341249e+02 2.271793e+02 7.000000e+00
      vertex   -2.341249e+02 2.271793e+02 2.000000e+00
      vertex   -1.851249e+02 2.271793e+02 7.000000e+00
    endloop
  endfacet
  facet normal 0.000000e+00 -1.000000e+00 -0.000000e+00
    outer loop
      vertex   -1.851249e+02 2.271793e+02 7.000000e+00
      vertex   -2.341249e+02 2.271793e+02 2.000000e+00
      vertex   -1.851249e+02 2.271793e+02 2.000000e+00
    endloop
  endfacet
  facet normal -7.592045e-30 -3.710482e-15 -1.000000e+00
    outer loop
      vertex   -1.881249e+02 1.591762e+02 2.775558e-16
      vertex   -1.831249e+02 1.401762e+02 7.077672e-14
      vertex   -2.021249e+02 1.591762e+02 2.775558e-16
    endloop
  endfacet
  facet normal 1.409983e-14 7.554030e-22 -1.000000e+00
    outer loop
      vertex   -1.881249e+02 1.591762e+02 2.775558e-16
      vertex   -1.831249e+02 1.846778e+02 7.077672e-14
      vertex   -1.831249e+02 1.401762e+02 7.077672e-14
    endloop
  endfacet
  facet normal 1.409983e-14 0.000000e+00 -1.000000e+00
    outer loop
      vertex   -1.881249e+02 1.591762e+02 2.775558e-16
      vertex   -1.881249e+02 1.731762e+02 2.775558e-16
      vertex   -1.831249e+02 1.846778e+02 7.077672e-14
    endloop
  endfacet
  facet normal 0.000000e+00 6.129535e-15 -1.000000e+00
    outer loop
      vertex   -1.831249e+02 1.846778e+02 7.077672e-14
      vertex   -1.881249e+02 1.731762e+02 2.775558e-16
      vertex   -2.021249e+02 1.731762e+02 2.775558e-16
    endloop
  endfacet
  facet normal -2.073505e-15 -0.000000e+00 -1.000000e+00
    outer loop
      vertex   -2.361249e+02 1.846778e+02 7.077672e-14
      vertex   -2.021249e+02 1.731762e+02 2.775558e-16
      vertex   -2.021249e+02 1.591762e+02 2.775558e-16
    endloop
  endfacet
  facet normal 0.000000e+00 -3.710482e-15 -1.000000e+00
    outer loop
      vertex   -2.361249e+02 1.401762e+02 7.077672e-14
      vertex   -2.021249e+02 1.591762e+02 2.775558e-16
      vertex   -1.831249e+02 1.401762e+02 7.077672e-14
    endloop
  endfacet
  facet normal -2.073505e-15 0.000000e+00 -1.000000e+00
    outer loop
      vertex   -2.361249e+02 1.401762e+02 7.077672e-14
      vertex   -2.361249e+02 1.846778e+02 7.077672e-14
      vertex   -2.021249e+02 1.591762e+02 2.775558e-16
    endloop
  endfacet
  facet normal 0.000000e+00 6.129535e-15 -1.000000e+00
    outer loop
      vertex   -1.831249e+02 1.846778e+02 7.077672e-14
      vertex   -2.021249e+02 1.731762e+02 2.775558e-16
      vertex   -2.361249e+02 1.846778e+02 7.077672e-14
    endloop
  endfacet
  facet normal -0.000000e+00 0.000000e+00 -1.000000e+00
    outer loop
      vertex   -1.831249e+02 2.291793e+02 7.077672e-14
      vertex   -2.361249e+02 1.846778e+02 7.077672e-14
      vertex   -2.361249e+02 2.291793e+02 7.077672e-14
    endloop
  endfacet
  facet normal -0.000000e+00 -0.000000e+00 -1.000000e+00
    outer loop
      vertex   -1.831249e+02 2.291793e+02 7.077672e-14
      vertex   -1.831249e+02 1.846778e+02 7.077672e-14
      vertex   -2.361249e+02 1.846778e+02 7.077672e-14
    endloop
  endfacet
  facet normal 1.000000e+00 0.000000e+00 1.363567e-07
    outer loop
      vertex   -1.831249e+02 2.291793e+02 7.000000e+00
      vertex   -1.831249e+02 1.846778e+02 7.000000e+00
      vertex   -1.831249e+02 2.291793e+02 7.077672e-14
    endloop
  endfacet
  facet normal 1.000000e+00 0.000000e+00 1.363567e-07
    outer loop
      vertex   -1.831249e+02 2.291793e+02 7.077672e-14
      vertex   -1.831249e+02 1.846778e+02 7.000000e+00
      vertex   -1.831249e+02 1.846778e+02 7.077672e-14
    endloop
  endfacet
  facet normal 1.000000e+00 0.000000e+00 1.363567e-07
    outer loop
      vertex   -1.831249e+02 1.846778e+02 7.077672e-14
      vertex   -1.831249e+02 1.846778e+02 7.000000e+00
      vertex   -1.831249e+02 1.401762e+02 7.000000e+00
    endloop
  endfacet
  facet normal 1.000000e+00 5.357534e-08 4.769547e-07
    outer loop
      vertex   -1.831249e+02 1.401762e+02 7.077672e-14
      vertex   -1.831249e+02 1.846778e+02 7.077672e-14
      vertex   -1.831249e+02 1.401762e+02 7.000000e+00
    endloop
  endfacet
  facet normal -1.000000e+00 -0.000000e+00 -0.000000e+00
    outer loop
      vertex   -1.851249e+02 2.271793e+02 7.000000e+00
      vertex   -1.851249e+02 2.271793e+02 2.000000e+00
      vertex   -1.851249e+02 1.846778e+02 7.000000e+00
    endloop
  endfacet
  facet normal -1.000000e+00 0.000000e+00 -0.000000e+00
    outer loop
      vertex   -1.851249e+02 1.846778e+02 7.000000e+00
      vertex   -1.851249e+02 2.271793e+02 2.000000e+00
      vertex   -1.851249e+02 1.846778e+02 2.000000e+00
    endloop
  endfacet
  facet normal -1.000000e+00 -0.000000e+00 -0.000000e+00
    outer loop
      vertex   -1.851249e+02 1.421762e+02 7.000000e+00
      vertex   -1.851249e+02 1.846778e+02 2.000000e+00
      vertex   -1.851249e+02 1.421762e+02 2.000000e+00
    endloop
  endfacet
  facet normal -1.000000e+00 0.000000e+00 0.000000e+00
    outer loop
      vertex   -1.851249e+02 1.421762e+02 7.000000e+00
      vertex   -1.851249e+02 1.846778e+02 7.000000e+00
      vertex   -1.851249e+02 1.846778e+02 2.000000e+00
    endloop
  endfacet
  facet normal 2.030122e-15 1.000000e+00 0.000000e+00
    outer loop
      vertex   -1.881249e+02 1.591762e+02 2.000000e+00
      vertex   -1.881249e+02 1.591762e+02 2.775558e-16
      vertex   -2.021249e+02 1.591762e+02 2.000000e+00
    endloop
  endfacet
  facet normal 2.030122e-15 1.000000e+00 0.000000e+00
    outer loop
      vertex   -2.021249e+02 1.591762e+02 2.000000e+00
      vertex   -1.881249e+02 1.591762e+02 2.775558e-16
      vertex   -2.021249e+02 1.591762e+02 2.775558e-16
    endloop
  endfacet
  facet normal 1.000000e+00 -0.000000e+00 0.000000e+00
    outer loop
      vertex   -2.021249e+02 1.591762e+02 2.000000e+00
      vertex   -2.021249e+02 1.591762e+02 2.775558e-16
      vertex   -2.021249e+02 1.731762e+02 2.000000e+00
    endloop
  endfacet
  facet normal 1.000000e+00 -0.000000e+00 0.000000e+00
    outer loop
      vertex   -2.021249e+02 1.731762e+02 2.000000e+00
      vertex   -2.021249e+02 1.591762e+02 2.775558e-16
      vertex   -2.021249e+02 1.731762e+02 2.775558e-16
    endloop
  endfacet
  facet normal -1.000000e+00 0.000000e+00 0.000000e+00
    outer loop
      vertex   -1.881249e+02 1.591762e+02 2.775558e-16
      vertex   -1.881249e+02 1.591762e+02 2.000000e+00
      vertex   -1.881249e+02 1.731762e+02 2.775558e-16
    endloop
  endfacet
  facet normal -1.000000e+00 0.000000e+00 0.000000e+00
    outer loop
      vertex   -1.881249e+02 1.731762e+02 2.775558e-16
      vertex   -1.881249e+02 1.591762e+02 2.000000e+00
      vertex   -1.881249e+02 1.731762e+02 2.000000e+00
    endloop
  endfacet
  facet normal -0.000000e+00 -1.000000e+00 0.000000e+00
    outer loop
      vertex   -1.881249e+02 1.731762e+02 2.775558e-16
      vertex   -1.881249e+02 1.731762e+02 2.000000e+00
      vertex   -2.021249e+02 1.731762e+02 2.775558e-16
    endloop
  endfacet
  facet normal 0.000000e+00 -1.000000e+00 0.000000e+00
    outer loop
      vertex   -2.021249e+02 1.731762e+02 2.775558e-16
      vertex   -1.881249e+02 1.731762e+02 2.000000e+00
      vertex   -2.021249e+02 1.731762e+02 2.000000e+00
    endloop
  endfacet
  facet normal -9.063046e-18 -1.044878e-17 1.000000e+00
    outer loop
      vertex   -1.851249e+02 2.271793e+02 2.000000e+00
      vertex   -2.341249e+02 2.271793e+02 2.000000e+00
      vertex   -1.851249e+02 1.846778e+02 2.000000e+00
    endloop
  endfacet
  facet normal 4.531523e-18 5.224388e-18 1.000000e+00
    outer loop
      vertex   -1.851249e+02 1.846778e+02 2.000000e+00
      vertex   -2.341249e+02 2.271793e+02 2.000000e+00
      vertex   -2.341249e+02 1.846778e+02 2.000000e+00
    endloop
  endfacet
  facet normal -6.245005e-17 0.000000e+00 1.000000e+00
    outer loop
      vertex   -2.021249e+02 1.731762e+02 2.000000e+00
      vertex   -2.341249e+02 1.846778e+02 2.000000e+00
      vertex   -2.021249e+02 1.591762e+02 2.000000e+00
    endloop
  endfacet
  facet normal 4.531523e-18 1.863584e-16 1.000000e+00
    outer loop
      vertex   -2.021249e+02 1.731762e+02 2.000000e+00
      vertex   -1.851249e+02 1.846778e+02 2.000000e+00
      vertex   -2.341249e+02 1.846778e+02 2.000000e+00
    endloop
  endfacet
  facet normal -0.000000e+00 1.930562e-16 1.000000e+00
    outer loop
      vertex   -2.021249e+02 1.731762e+02 2.000000e+00
      vertex   -1.881249e+02 1.731762e+02 2.000000e+00
      vertex   -1.851249e+02 1.846778e+02 2.000000e+00
    endloop
  endfacet
  facet normal 7.401491e-16 0.000000e+00 1.000000e+00
    outer loop
      vertex   -1.851249e+02 1.846778e+02 2.000000e+00
      vertex   -1.881249e+02 1.731762e+02 2.000000e+00
      vertex   -1.881249e+02 1.591762e+02 2.000000e+00
    endloop
  endfacet
  facet normal -1.060653e-31 -5.224579e-17 1.000000e+00
    outer loop
      vertex   -1.851249e+02 1.421762e+02 2.000000e+00
      vertex   -1.881249e+02 1.591762e+02 2.000000e+00
      vertex   -2.021249e+02 1.591762e+02 2.000000e+00
    endloop
  endfacet
  facet normal -5.828661e-17 5.224388e-18 1.000000e+00
    outer loop
      vertex   -2.341249e+02 1.421762e+02 2.000000e+00
      vertex   -2.021249e+02 1.591762e+02 2.000000e+00
      vertex   -2.341249e+02 1.846778e+02 2.000000e+00
    endloop
  endfacet
  facet normal -1.812609e-17 -7.037188e-17 1.000000e+00
    outer loop
      vertex   -2.341249e+02 1.421762e+02 2.000000e+00
      vertex   -1.851249e+02 1.421762e+02 2.000000e+00
      vertex   -2.021249e+02 1.591762e+02 2.000000e+00
    endloop
  endfacet
  facet normal 4.736889e-16 3.134633e-17 1.000000e+00
    outer loop
      vertex   -1.851249e+02 1.421762e+02 2.000000e+00
      vertex   -1.851249e+02 1.846778e+02 2.000000e+00
      vertex   -1.881249e+02 1.591762e+02 2.000000e+00
    endloop
  endfacet
  facet normal 0.000000e+00 1.000000e+00 0.000000e+00
    outer loop
      vertex   -1.851249e+02 1.421762e+02 7.000000e+00
      vertex   -1.851249e+02 1.421762e+02 2.000000e+00
      vertex   -2.341249e+02 1.421762e+02 7.000000e+00
    endloop
  endfacet
  facet normal 0.000000e+00 1.000000e+00 0.000000e+00
    outer loop
      vertex   -2.341249e+02 1.421762e+02 7.000000e+00
      vertex   -1.851249e+02 1.421762e+02 2.000000e+00
      vertex   -2.341249e+02 1.421762e+02 2.000000e+00
    endloop
  endfacet
  facet normal 1.000000e+00 0.000000e+00 -0.000000e+00
    outer loop
      vertex   -2.341249e+02 2.271793e+02 2.000000e+00
      vertex   -2.341249e+02 2.271793e+02 7.000000e+00
      vertex   -2.341249e+02 1.846778e+02 2.000000e+00
    endloop
  endfacet
  facet normal 1.000000e+00 6.687217e-16 -5.684342e-15
    outer loop
      vertex   -2.341249e+02 1.846778e+02 2.000000e+00
      vertex   -2.341249e+02 2.271793e+02 7.000000e+00
      vertex   -2.341249e+02 1.846778e+02 7.000000e+00
    endloop
  endfacet
  facet normal 1.000000e+00 -6.687217e-16 0.000000e+00
    outer loop
      vertex   -2.341249e+02 1.421762e+02 2.000000e+00
      vertex   -2.341249e+02 1.846778e+02 7.000000e+00
      vertex   -2.341249e+02 1.421762e+02 7.000000e+00
    endloop
  endfacet
  facet normal 1.000000e+00 -2.969721e-32 -5.684342e-15
    outer loop
      vertex   -2.341249e+02 1.421762e+02 2.000000e+00
      vertex   -2.341249e+02 1.846778e+02 2.000000e+00
      vertex   -2.341249e+02 1.846778e+02 7.000000e+00
    endloop
  endfacet
  facet normal 8.881784e-16 0.000000e+00 1.000000e+00
    outer loop
      vertex   -2.361249e+02 1.846778e+02 7.000000e+00
      vertex   -2.341249e+02 2.271793e+02 7.000000e+00
      vertex   -2.361249e+02 2.291793e+02 7.000000e+00
    endloop
  endfacet
  facet normal -7.873178e-24 4.179511e-17 1.000000e+00
    outer loop
      vertex   -2.361249e+02 1.846778e+02 7.000000e+00
      vertex   -2.341249e+02 1.846778e+02 7.000000e+00
      vertex   -2.341249e+02 2.271793e+02 7.000000e+00
    endloop
  endfacet
  facet normal 7.873178e-24 -4.179511e-17 1.000000e+00
    outer loop
      vertex   -2.361249e+02 1.846778e+02 7.000000e+00
      vertex   -2.341249e+02 1.421762e+02 7.000000e+00
      vertex   -2.341249e+02 1.846778e+02 7.000000e+00
    endloop
  endfacet
  facet normal 8.881784e-16 0.000000e+00 1.000000e+00
    outer loop
      vertex   -2.361249e+02 1.846778e+02 7.000000e+00
      vertex   -2.361249e+02 1.401762e+02 7.000000e+00
      vertex   -2.341249e+02 1.421762e+02 7.000000e+00
    endloop
  endfacet
  facet normal 0.000000e+00 8.881781e-16 1.000000e+00
    outer loop
      vertex   -2.341249e+02 1.421762e+02 7.000000e+00
      vertex   -2.361249e+02 1.401762e+02 7.000000e+00
      vertex   -1.851249e+02 1.421762e+02 7.000000e+00
    endloop
  endfacet
  facet normal -1.262726e-23 8.881784e-16 1.000000e+00
    outer loop
      vertex   -1.851249e+02 1.421762e+02 7.000000e+00
      vertex   -2.361249e+02 1.401762e+02 7.000000e+00
      vertex   -1.831249e+02 1.401762e+02 7.000000e+00
    endloop
  endfacet
  facet normal -8.881776e-16 0.000000e+00 1.000000e+00
    outer loop
      vertex   -1.831249e+02 1.846778e+02 7.000000e+00
      vertex   -1.851249e+02 1.421762e+02 7.000000e+00
      vertex   -1.831249e+02 1.401762e+02 7.000000e+00
    endloop
  endfacet
  facet normal 0.000000e+00 -4.179511e-17 1.000000e+00
    outer loop
      vertex   -1.831249e+02 1.846778e+02 7.000000e+00
      vertex   -1.851249e+02 1.846778e+02 7.000000e+00
      vertex   -1.851249e+02 1.421762e+02 7.000000e+00
    endloop
  endfacet
  facet normal 0.000000e+00 4.179511e-17 1.000000e+00
    outer loop
      vertex   -1.831249e+02 1.846778e+02 7.000000e+00
      vertex   -1.851249e+02 2.271793e+02 7.000000e+00
      vertex   -1.851249e+02 1.846778e+02 7.000000e+00
    endloop
  endfacet
  facet normal -8.881776e-16 0.000000e+00 1.000000e+00
    outer loop
      vertex   -1.831249e+02 1.846778e+02 7.000000e+00
      vertex   -1.831249e+02 2.291793e+02 7.000000e+00
      vertex   -1.851249e+02 2.271793e+02 7.000000e+00
    endloop
  endfacet
  facet normal 0.000000e+00 -8.881784e-16 1.000000e+00
    outer loop
      vertex   -1.851249e+02 2.271793e+02 7.000000e+00
      vertex   -1.831249e+02 2.291793e+02 7.000000e+00
      vertex   -2.361249e+02 2.291793e+02 7.000000e+00
    endloop
  endfacet
  facet normal 0.000000e+00 -8.881784e-16 1.000000e+00
    outer loop
      vertex   -2.341249e+02 2.271793e+02 7.000000e+00
      vertex   -1.851249e+02 2.271793e+02 7.000000e+00
      vertex   -2.361249e+02 2.291793e+02 7.000000e+00
    endloop
  endfacet
  facet normal 0.000000e+00 -1.000000e+00 1.076432e-07
    outer loop
      vertex   -1.831249e+02 1.401762e+02 7.077672e-14
      vertex   -1.831249e+02 1.401762e+02 7.000000e+00
      vertex   -2.361249e+02 1.401762e+02 7.077672e-14
    endloop
  endfacet
  facet normal 1.421703e-08 -1.000000e+00 0.000000e+00
    outer loop
      vertex   -2.361249e+02 1.401762e+02 7.077672e-14
      vertex   -1.831249e+02 1.401762e+02 7.000000e+00
      vertex   -2.361249e+02 1.401762e+02 7.000000e+00
    endloop
  endfacet
  facet normal -1.000000e+00 -0.000000e+00 -0.000000e+00
    outer loop
      vertex   -2.361249e+02 2.291793e+02 7.000000e+00
      vertex   -2.361249e+02 2.291793e+02 7.077672e-14
      vertex   -2.361249e+02 1.846778e+02 7.000000e+00
    endloop
  endfacet
  facet normal -1.000000e+00 -0.000000e+00 -0.000000e+00
    outer loop
      vertex   -2.361249e+02 1.846778e+02 7.000000e+00
      vertex   -2.361249e+02 2.291793e+02 7.077672e-14
      vertex   -2.361249e+02 1.846778e+02 7.077672e-14
    endloop
  endfacet
  facet normal -1.000000e+00 -0.000000e+00 -0.000000e+00
    outer loop
      vertex   -2.361249e+02 1.401762e+02 7.000000e+00
      vertex   -2.361249e+02 1.846778e+02 7.077672e-14
      vertex   -2.361249e+02 1.401762e+02 7.077672e-14
    endloop
  endfacet
  facet normal -1.000000e+00 0.000000e+00 0.000000e+00
    outer loop
      vertex   -2.361249e+02 1.401762e+02 7.000000e+00
      vertex   -2.361249e+02 1.846778e+02 7.000000e+00
      vertex   -2.361249e+02 1.846778e+02 7.077672e-14
    endloop
  endfacet
endsolid
