G75*
%MOIN*%
%OFA0B0*%
%FSLAX24Y24*%
%IPPOS*%
%LPD*%
%AMOC8*
5,1,8,0,0,1.08239X$1,22.5*
%
%ADD10C,0.0000*%
%ADD11C,0.0160*%
%ADD12R,0.0512X0.0512*%
%ADD13R,0.0631X0.0552*%
%ADD14R,0.0749X0.0670*%
%ADD15C,0.0390*%
%ADD16R,0.0512X0.0591*%
%ADD17R,0.1418X0.0591*%
%ADD18R,0.0237X0.0631*%
%ADD19R,0.0631X0.0237*%
%ADD20R,0.0670X0.0749*%
%ADD21R,0.0750X0.0670*%
%ADD22R,0.0670X0.0552*%
%ADD23R,0.1221X0.1024*%
%ADD24R,0.1024X0.0827*%
%ADD25R,0.1339X0.0827*%
%ADD26R,0.1260X0.0237*%
%ADD27C,0.0394*%
%ADD28R,0.0670X0.0827*%
%ADD29R,0.0630X0.0830*%
%ADD30R,0.1540X0.0830*%
%ADD31C,0.0640*%
%ADD32C,0.0560*%
D10*
X003100Y003862D02*
X003100Y003962D01*
X003100Y017962D01*
X004923Y015329D02*
X004925Y015355D01*
X004931Y015381D01*
X004941Y015406D01*
X004954Y015429D01*
X004970Y015449D01*
X004990Y015467D01*
X005012Y015482D01*
X005035Y015494D01*
X005061Y015502D01*
X005087Y015506D01*
X005113Y015506D01*
X005139Y015502D01*
X005165Y015494D01*
X005189Y015482D01*
X005210Y015467D01*
X005230Y015449D01*
X005246Y015429D01*
X005259Y015406D01*
X005269Y015381D01*
X005275Y015355D01*
X005277Y015329D01*
X005275Y015303D01*
X005269Y015277D01*
X005259Y015252D01*
X005246Y015229D01*
X005230Y015209D01*
X005210Y015191D01*
X005188Y015176D01*
X005165Y015164D01*
X005139Y015156D01*
X005113Y015152D01*
X005087Y015152D01*
X005061Y015156D01*
X005035Y015164D01*
X005011Y015176D01*
X004990Y015191D01*
X004970Y015209D01*
X004954Y015229D01*
X004941Y015252D01*
X004931Y015277D01*
X004925Y015303D01*
X004923Y015329D01*
X004923Y013596D02*
X004925Y013622D01*
X004931Y013648D01*
X004941Y013673D01*
X004954Y013696D01*
X004970Y013716D01*
X004990Y013734D01*
X005012Y013749D01*
X005035Y013761D01*
X005061Y013769D01*
X005087Y013773D01*
X005113Y013773D01*
X005139Y013769D01*
X005165Y013761D01*
X005189Y013749D01*
X005210Y013734D01*
X005230Y013716D01*
X005246Y013696D01*
X005259Y013673D01*
X005269Y013648D01*
X005275Y013622D01*
X005277Y013596D01*
X005275Y013570D01*
X005269Y013544D01*
X005259Y013519D01*
X005246Y013496D01*
X005230Y013476D01*
X005210Y013458D01*
X005188Y013443D01*
X005165Y013431D01*
X005139Y013423D01*
X005113Y013419D01*
X005087Y013419D01*
X005061Y013423D01*
X005035Y013431D01*
X005011Y013443D01*
X004990Y013458D01*
X004970Y013476D01*
X004954Y013496D01*
X004941Y013519D01*
X004931Y013544D01*
X004925Y013570D01*
X004923Y013596D01*
X007525Y010962D02*
X007527Y010988D01*
X007533Y011014D01*
X007542Y011038D01*
X007555Y011061D01*
X007572Y011081D01*
X007591Y011099D01*
X007613Y011114D01*
X007636Y011125D01*
X007661Y011133D01*
X007687Y011137D01*
X007713Y011137D01*
X007739Y011133D01*
X007764Y011125D01*
X007788Y011114D01*
X007809Y011099D01*
X007828Y011081D01*
X007845Y011061D01*
X007858Y011038D01*
X007867Y011014D01*
X007873Y010988D01*
X007875Y010962D01*
X007873Y010936D01*
X007867Y010910D01*
X007858Y010886D01*
X007845Y010863D01*
X007828Y010843D01*
X007809Y010825D01*
X007787Y010810D01*
X007764Y010799D01*
X007739Y010791D01*
X007713Y010787D01*
X007687Y010787D01*
X007661Y010791D01*
X007636Y010799D01*
X007612Y010810D01*
X007591Y010825D01*
X007572Y010843D01*
X007555Y010863D01*
X007542Y010886D01*
X007533Y010910D01*
X007527Y010936D01*
X007525Y010962D01*
X008325Y010962D02*
X008327Y010988D01*
X008333Y011014D01*
X008342Y011038D01*
X008355Y011061D01*
X008372Y011081D01*
X008391Y011099D01*
X008413Y011114D01*
X008436Y011125D01*
X008461Y011133D01*
X008487Y011137D01*
X008513Y011137D01*
X008539Y011133D01*
X008564Y011125D01*
X008588Y011114D01*
X008609Y011099D01*
X008628Y011081D01*
X008645Y011061D01*
X008658Y011038D01*
X008667Y011014D01*
X008673Y010988D01*
X008675Y010962D01*
X008673Y010936D01*
X008667Y010910D01*
X008658Y010886D01*
X008645Y010863D01*
X008628Y010843D01*
X008609Y010825D01*
X008587Y010810D01*
X008564Y010799D01*
X008539Y010791D01*
X008513Y010787D01*
X008487Y010787D01*
X008461Y010791D01*
X008436Y010799D01*
X008412Y010810D01*
X008391Y010825D01*
X008372Y010843D01*
X008355Y010863D01*
X008342Y010886D01*
X008333Y010910D01*
X008327Y010936D01*
X008325Y010962D01*
X007925Y008962D02*
X007927Y008988D01*
X007933Y009014D01*
X007942Y009038D01*
X007955Y009061D01*
X007972Y009081D01*
X007991Y009099D01*
X008013Y009114D01*
X008036Y009125D01*
X008061Y009133D01*
X008087Y009137D01*
X008113Y009137D01*
X008139Y009133D01*
X008164Y009125D01*
X008188Y009114D01*
X008209Y009099D01*
X008228Y009081D01*
X008245Y009061D01*
X008258Y009038D01*
X008267Y009014D01*
X008273Y008988D01*
X008275Y008962D01*
X008273Y008936D01*
X008267Y008910D01*
X008258Y008886D01*
X008245Y008863D01*
X008228Y008843D01*
X008209Y008825D01*
X008187Y008810D01*
X008164Y008799D01*
X008139Y008791D01*
X008113Y008787D01*
X008087Y008787D01*
X008061Y008791D01*
X008036Y008799D01*
X008012Y008810D01*
X007991Y008825D01*
X007972Y008843D01*
X007955Y008863D01*
X007942Y008886D01*
X007933Y008910D01*
X007927Y008936D01*
X007925Y008962D01*
D11*
X014100Y011962D02*
X018100Y011962D01*
X018100Y017962D01*
X028100Y017962D01*
X028100Y003962D01*
X003100Y003962D01*
X003100Y017962D01*
X014100Y017962D01*
X014100Y011962D01*
D12*
X008513Y013462D03*
X007687Y013462D03*
X007687Y015462D03*
X008513Y015462D03*
X021100Y006376D03*
X021100Y005549D03*
X023187Y010962D03*
X024013Y010962D03*
D13*
X022100Y006297D03*
X022100Y005628D03*
X020100Y005588D03*
X020100Y006337D03*
D14*
X017100Y007411D03*
X017100Y008514D03*
X005100Y009411D03*
X005100Y010514D03*
D15*
X007700Y010962D03*
X008500Y010962D03*
X008100Y008962D03*
D16*
X022690Y007242D03*
X023600Y007242D03*
X024510Y007242D03*
D17*
X023600Y009683D03*
D18*
X014175Y009246D03*
X013860Y009246D03*
X013545Y009246D03*
X013230Y009246D03*
X012915Y009246D03*
X012600Y009246D03*
X012285Y009246D03*
X011970Y009246D03*
X011655Y009246D03*
X011340Y009246D03*
X011025Y009246D03*
X011025Y004679D03*
X011340Y004679D03*
X011655Y004679D03*
X011970Y004679D03*
X012285Y004679D03*
X012600Y004679D03*
X012915Y004679D03*
X013230Y004679D03*
X013545Y004679D03*
X013860Y004679D03*
X014175Y004679D03*
D19*
X014883Y005388D03*
X014883Y005703D03*
X014883Y006018D03*
X014883Y006333D03*
X014883Y006648D03*
X014883Y006962D03*
X014883Y007277D03*
X014883Y007592D03*
X014883Y007907D03*
X014883Y008222D03*
X014883Y008537D03*
X010317Y008537D03*
X010317Y008222D03*
X010317Y007907D03*
X010317Y007592D03*
X010317Y007277D03*
X010317Y006962D03*
X010317Y006648D03*
X010317Y006333D03*
X010317Y006018D03*
X010317Y005703D03*
X010317Y005388D03*
D20*
X005651Y004962D03*
X004549Y004962D03*
X004549Y006962D03*
X005651Y006962D03*
X011549Y011962D03*
X012651Y011962D03*
D21*
X008600Y006522D03*
X008600Y005403D03*
D22*
X006100Y009588D03*
X006100Y010337D03*
X004100Y010337D03*
X004100Y009588D03*
D23*
X007100Y007012D03*
X007100Y004953D03*
D24*
X003919Y012711D03*
X003919Y016214D03*
D25*
X006242Y016214D03*
X006242Y012711D03*
D26*
X006281Y013833D03*
X006281Y014148D03*
X006281Y014462D03*
X006281Y014777D03*
X006281Y015092D03*
D27*
X005100Y015329D03*
X005100Y013596D03*
D28*
X010049Y013962D03*
X011151Y013962D03*
X011151Y015212D03*
X010049Y015212D03*
D29*
X019210Y008222D03*
X020110Y008222D03*
X021010Y008222D03*
D30*
X020100Y010702D03*
D31*
X026300Y011012D02*
X026900Y011012D01*
X026900Y009912D02*
X026300Y009912D01*
X026300Y006012D02*
X026900Y006012D01*
X026900Y004912D02*
X026300Y004912D01*
D32*
X026600Y013202D02*
X026600Y013722D01*
X025600Y013722D02*
X025600Y013202D01*
X024600Y013202D02*
X024600Y013722D01*
X023600Y013722D02*
X023600Y013202D01*
X022600Y013202D02*
X022600Y013722D01*
X021600Y013722D02*
X021600Y013202D01*
X020600Y013202D02*
X020600Y013722D01*
X020600Y016202D02*
X020600Y016722D01*
X021600Y016722D02*
X021600Y016202D01*
X022600Y016202D02*
X022600Y016722D01*
X023600Y016722D02*
X023600Y016202D01*
X024600Y016202D02*
X024600Y016722D01*
X025600Y016722D02*
X025600Y016202D01*
X026600Y016202D02*
X026600Y016722D01*
M02*
