G75*
%MOIN*%
%OFA0B0*%
%FSLAX24Y24*%
%IPPOS*%
%LPD*%
%AMOC8*
5,1,8,0,0,1.08239X$1,22.5*
%
%ADD10C,0.0000*%
%ADD11C,0.0160*%
%ADD12R,0.0472X0.0472*%
%ADD13R,0.0591X0.0512*%
%ADD14R,0.0709X0.0630*%
%ADD15R,0.0472X0.0551*%
%ADD16R,0.1378X0.0551*%
%ADD17R,0.0197X0.0591*%
%ADD18R,0.0591X0.0197*%
%ADD19R,0.0630X0.0709*%
%ADD20R,0.0710X0.0630*%
%ADD21R,0.0630X0.0512*%
%ADD22R,0.1181X0.0984*%
%ADD23R,0.0984X0.0787*%
%ADD24R,0.1299X0.0787*%
%ADD25R,0.1220X0.0197*%
%ADD26R,0.0630X0.0787*%
%ADD27R,0.0590X0.0790*%
%ADD28R,0.1500X0.0790*%
%ADD29C,0.0600*%
%ADD30C,0.0520*%
%ADD31C,0.0500*%
%ADD32C,0.0180*%
%ADD33C,0.0240*%
%ADD34C,0.0120*%
D10*
X003100Y003862D02*
X003100Y003962D01*
X003100Y017962D01*
X004923Y015329D02*
X004925Y015355D01*
X004931Y015381D01*
X004941Y015406D01*
X004954Y015429D01*
X004970Y015449D01*
X004990Y015467D01*
X005012Y015482D01*
X005035Y015494D01*
X005061Y015502D01*
X005087Y015506D01*
X005113Y015506D01*
X005139Y015502D01*
X005165Y015494D01*
X005189Y015482D01*
X005210Y015467D01*
X005230Y015449D01*
X005246Y015429D01*
X005259Y015406D01*
X005269Y015381D01*
X005275Y015355D01*
X005277Y015329D01*
X005275Y015303D01*
X005269Y015277D01*
X005259Y015252D01*
X005246Y015229D01*
X005230Y015209D01*
X005210Y015191D01*
X005188Y015176D01*
X005165Y015164D01*
X005139Y015156D01*
X005113Y015152D01*
X005087Y015152D01*
X005061Y015156D01*
X005035Y015164D01*
X005011Y015176D01*
X004990Y015191D01*
X004970Y015209D01*
X004954Y015229D01*
X004941Y015252D01*
X004931Y015277D01*
X004925Y015303D01*
X004923Y015329D01*
X004923Y013596D02*
X004925Y013622D01*
X004931Y013648D01*
X004941Y013673D01*
X004954Y013696D01*
X004970Y013716D01*
X004990Y013734D01*
X005012Y013749D01*
X005035Y013761D01*
X005061Y013769D01*
X005087Y013773D01*
X005113Y013773D01*
X005139Y013769D01*
X005165Y013761D01*
X005189Y013749D01*
X005210Y013734D01*
X005230Y013716D01*
X005246Y013696D01*
X005259Y013673D01*
X005269Y013648D01*
X005275Y013622D01*
X005277Y013596D01*
X005275Y013570D01*
X005269Y013544D01*
X005259Y013519D01*
X005246Y013496D01*
X005230Y013476D01*
X005210Y013458D01*
X005188Y013443D01*
X005165Y013431D01*
X005139Y013423D01*
X005113Y013419D01*
X005087Y013419D01*
X005061Y013423D01*
X005035Y013431D01*
X005011Y013443D01*
X004990Y013458D01*
X004970Y013476D01*
X004954Y013496D01*
X004941Y013519D01*
X004931Y013544D01*
X004925Y013570D01*
X004923Y013596D01*
X007525Y010962D02*
X007527Y010988D01*
X007533Y011014D01*
X007542Y011038D01*
X007555Y011061D01*
X007572Y011081D01*
X007591Y011099D01*
X007613Y011114D01*
X007636Y011125D01*
X007661Y011133D01*
X007687Y011137D01*
X007713Y011137D01*
X007739Y011133D01*
X007764Y011125D01*
X007788Y011114D01*
X007809Y011099D01*
X007828Y011081D01*
X007845Y011061D01*
X007858Y011038D01*
X007867Y011014D01*
X007873Y010988D01*
X007875Y010962D01*
X007873Y010936D01*
X007867Y010910D01*
X007858Y010886D01*
X007845Y010863D01*
X007828Y010843D01*
X007809Y010825D01*
X007787Y010810D01*
X007764Y010799D01*
X007739Y010791D01*
X007713Y010787D01*
X007687Y010787D01*
X007661Y010791D01*
X007636Y010799D01*
X007612Y010810D01*
X007591Y010825D01*
X007572Y010843D01*
X007555Y010863D01*
X007542Y010886D01*
X007533Y010910D01*
X007527Y010936D01*
X007525Y010962D01*
X008325Y010962D02*
X008327Y010988D01*
X008333Y011014D01*
X008342Y011038D01*
X008355Y011061D01*
X008372Y011081D01*
X008391Y011099D01*
X008413Y011114D01*
X008436Y011125D01*
X008461Y011133D01*
X008487Y011137D01*
X008513Y011137D01*
X008539Y011133D01*
X008564Y011125D01*
X008588Y011114D01*
X008609Y011099D01*
X008628Y011081D01*
X008645Y011061D01*
X008658Y011038D01*
X008667Y011014D01*
X008673Y010988D01*
X008675Y010962D01*
X008673Y010936D01*
X008667Y010910D01*
X008658Y010886D01*
X008645Y010863D01*
X008628Y010843D01*
X008609Y010825D01*
X008587Y010810D01*
X008564Y010799D01*
X008539Y010791D01*
X008513Y010787D01*
X008487Y010787D01*
X008461Y010791D01*
X008436Y010799D01*
X008412Y010810D01*
X008391Y010825D01*
X008372Y010843D01*
X008355Y010863D01*
X008342Y010886D01*
X008333Y010910D01*
X008327Y010936D01*
X008325Y010962D01*
X007925Y008962D02*
X007927Y008988D01*
X007933Y009014D01*
X007942Y009038D01*
X007955Y009061D01*
X007972Y009081D01*
X007991Y009099D01*
X008013Y009114D01*
X008036Y009125D01*
X008061Y009133D01*
X008087Y009137D01*
X008113Y009137D01*
X008139Y009133D01*
X008164Y009125D01*
X008188Y009114D01*
X008209Y009099D01*
X008228Y009081D01*
X008245Y009061D01*
X008258Y009038D01*
X008267Y009014D01*
X008273Y008988D01*
X008275Y008962D01*
X008273Y008936D01*
X008267Y008910D01*
X008258Y008886D01*
X008245Y008863D01*
X008228Y008843D01*
X008209Y008825D01*
X008187Y008810D01*
X008164Y008799D01*
X008139Y008791D01*
X008113Y008787D01*
X008087Y008787D01*
X008061Y008791D01*
X008036Y008799D01*
X008012Y008810D01*
X007991Y008825D01*
X007972Y008843D01*
X007955Y008863D01*
X007942Y008886D01*
X007933Y008910D01*
X007927Y008936D01*
X007925Y008962D01*
D11*
X014100Y011962D02*
X018100Y011962D01*
X018100Y017962D01*
X028100Y017962D01*
X028100Y003962D01*
X003100Y003962D01*
X003100Y017962D01*
X014100Y017962D01*
X014100Y011962D01*
D12*
X008513Y013462D03*
X007687Y013462D03*
X007687Y015462D03*
X008513Y015462D03*
X021100Y006376D03*
X021100Y005549D03*
X023187Y010962D03*
X024013Y010962D03*
D13*
X022100Y006297D03*
X022100Y005628D03*
X020100Y005588D03*
X020100Y006337D03*
D14*
X017100Y007411D03*
X017100Y008514D03*
X005100Y009411D03*
X005100Y010514D03*
D15*
X022690Y007242D03*
X023600Y007242D03*
X024510Y007242D03*
D16*
X023600Y009683D03*
D17*
X014175Y009246D03*
X013860Y009246D03*
X013545Y009246D03*
X013230Y009246D03*
X012915Y009246D03*
X012600Y009246D03*
X012285Y009246D03*
X011970Y009246D03*
X011655Y009246D03*
X011340Y009246D03*
X011025Y009246D03*
X011025Y004679D03*
X011340Y004679D03*
X011655Y004679D03*
X011970Y004679D03*
X012285Y004679D03*
X012600Y004679D03*
X012915Y004679D03*
X013230Y004679D03*
X013545Y004679D03*
X013860Y004679D03*
X014175Y004679D03*
D18*
X014883Y005388D03*
X014883Y005703D03*
X014883Y006018D03*
X014883Y006333D03*
X014883Y006648D03*
X014883Y006962D03*
X014883Y007277D03*
X014883Y007592D03*
X014883Y007907D03*
X014883Y008222D03*
X014883Y008537D03*
X010317Y008537D03*
X010317Y008222D03*
X010317Y007907D03*
X010317Y007592D03*
X010317Y007277D03*
X010317Y006962D03*
X010317Y006648D03*
X010317Y006333D03*
X010317Y006018D03*
X010317Y005703D03*
X010317Y005388D03*
D19*
X005651Y004962D03*
X004549Y004962D03*
X004549Y006962D03*
X005651Y006962D03*
X011549Y011962D03*
X012651Y011962D03*
D20*
X008600Y006522D03*
X008600Y005403D03*
D21*
X006100Y009588D03*
X006100Y010337D03*
X004100Y010337D03*
X004100Y009588D03*
D22*
X007100Y007012D03*
X007100Y004953D03*
D23*
X003919Y012711D03*
X003919Y016214D03*
D24*
X006242Y016214D03*
X006242Y012711D03*
D25*
X006281Y013833D03*
X006281Y014148D03*
X006281Y014462D03*
X006281Y014777D03*
X006281Y015092D03*
D26*
X010049Y015212D03*
X011151Y015212D03*
X011151Y013962D03*
X010049Y013962D03*
D27*
X019210Y008222D03*
X020110Y008222D03*
X021010Y008222D03*
D28*
X020100Y010702D03*
D29*
X026300Y011012D02*
X026900Y011012D01*
X026900Y009912D02*
X026300Y009912D01*
X026300Y006012D02*
X026900Y006012D01*
X026900Y004912D02*
X026300Y004912D01*
D30*
X026600Y013202D02*
X026600Y013722D01*
X025600Y013722D02*
X025600Y013202D01*
X024600Y013202D02*
X024600Y013722D01*
X023600Y013722D02*
X023600Y013202D01*
X022600Y013202D02*
X022600Y013722D01*
X021600Y013722D02*
X021600Y013202D01*
X020600Y013202D02*
X020600Y013722D01*
X020600Y016202D02*
X020600Y016722D01*
X021600Y016722D02*
X021600Y016202D01*
X022600Y016202D02*
X022600Y016722D01*
X023600Y016722D02*
X023600Y016202D01*
X024600Y016202D02*
X024600Y016722D01*
X025600Y016722D02*
X025600Y016202D01*
X026600Y016202D02*
X026600Y016722D01*
D31*
X026600Y011012D02*
X026600Y010962D01*
X025100Y010962D01*
X025100Y010922D01*
X025100Y007242D01*
X024510Y007242D01*
X023600Y007242D02*
X023600Y004912D01*
X026600Y004912D01*
D32*
X021100Y006362D02*
X021100Y006376D01*
X021100Y006362D02*
X020620Y006362D01*
X020140Y006362D02*
X020100Y006337D01*
X020140Y006362D02*
X020140Y008162D01*
X020110Y008222D01*
X020020Y008282D01*
X019660Y008642D01*
X019660Y008882D01*
X019180Y008282D02*
X019210Y008222D01*
X019180Y008162D01*
X018340Y007322D01*
X018340Y006602D01*
X018340Y005162D01*
X018220Y005042D01*
X015340Y005042D01*
X015340Y005642D01*
X014980Y005642D01*
X014883Y005703D01*
X014860Y005762D01*
X014380Y005762D01*
X014380Y008042D01*
X014500Y008162D01*
X014860Y008162D01*
X014883Y008222D01*
X014980Y008282D01*
X015340Y008282D01*
X015820Y008762D01*
X017100Y007411D02*
X017140Y007322D01*
X017620Y006842D01*
X017620Y006002D01*
X019210Y008222D02*
X019180Y008282D01*
X024013Y010962D02*
X024100Y010922D01*
X024940Y010922D01*
X025100Y010922D01*
X025100Y010962D02*
X025060Y011162D01*
X024700Y011522D01*
X024700Y013442D01*
X024600Y013462D01*
X012940Y009962D02*
X012940Y009362D01*
X012915Y009246D01*
X012940Y009242D01*
X012940Y008282D01*
X010780Y007442D02*
X010660Y007562D01*
X010420Y007562D01*
X010317Y007592D01*
X010300Y007562D01*
X008980Y007562D01*
X008980Y008522D01*
X010780Y007442D02*
X010780Y004922D01*
X011020Y004682D01*
X011025Y004679D01*
X004549Y004962D02*
X004540Y005042D01*
X004540Y006962D01*
X004549Y006962D01*
X004660Y006962D01*
X004660Y008522D01*
X004660Y009482D01*
X004180Y009482D01*
X004100Y009588D01*
X004660Y009482D02*
X005020Y009482D01*
X005100Y009411D01*
X007687Y013462D02*
X007780Y013562D01*
X007780Y013922D01*
X008860Y013922D01*
X007780Y013922D02*
X007780Y015362D01*
X007687Y015462D01*
X007660Y013562D02*
X006340Y013562D01*
X006340Y013802D01*
X006281Y013833D01*
X007660Y013562D02*
X007687Y013462D01*
X011140Y013322D02*
X011140Y012362D01*
X011500Y012002D01*
X011549Y011962D01*
X011500Y011882D01*
X011500Y011402D01*
X012820Y010082D02*
X012940Y009962D01*
D33*
X012820Y010082D03*
X011500Y011402D03*
X011020Y011882D03*
X010660Y011402D03*
X010180Y012362D03*
X010420Y012602D03*
X009940Y012962D03*
X008980Y013442D03*
X008860Y013922D03*
X008980Y015482D03*
X011740Y014762D03*
X012100Y013562D03*
X011140Y013322D03*
X009220Y011882D03*
X008620Y010202D03*
X008620Y009722D03*
X007540Y009722D03*
X006820Y010442D03*
X004660Y008522D03*
X004180Y008522D03*
X005140Y007202D03*
X008380Y007322D03*
X008980Y008522D03*
X010180Y010082D03*
X012940Y008282D03*
X011740Y007802D03*
X011500Y008042D03*
X013300Y006242D03*
X013060Y006002D03*
X012340Y005762D03*
X011620Y005642D03*
X015820Y008762D03*
X017860Y007802D03*
X018340Y006602D03*
X017620Y006002D03*
X017860Y005522D03*
X020620Y006362D03*
X021580Y005642D03*
X021580Y008642D03*
X021100Y008882D03*
X019660Y008882D03*
X018100Y009962D03*
X005380Y015002D03*
D34*
X006220Y015002D01*
X006281Y015092D01*
X006281Y014777D02*
X006340Y014762D01*
X006940Y014762D01*
X007060Y014882D01*
X007060Y016082D01*
X009100Y016082D01*
X009940Y015242D01*
X010049Y015212D01*
X010660Y014642D02*
X011140Y015122D01*
X011151Y015212D01*
X011260Y015122D01*
X011740Y015122D01*
X013540Y013322D01*
X013540Y009362D01*
X013545Y009246D01*
X013860Y009246D02*
X013900Y009242D01*
X013900Y008882D01*
X014140Y008642D01*
X014140Y006482D01*
X012580Y006482D01*
X012580Y005642D01*
X012460Y005522D01*
X011860Y005522D01*
X011860Y005762D01*
X011260Y006362D01*
X011260Y007922D01*
X010420Y007922D01*
X010317Y007907D01*
X010317Y008222D02*
X010300Y008282D01*
X009460Y008282D01*
X009460Y012482D01*
X009340Y012602D01*
X007060Y012602D01*
X007060Y011402D01*
X006460Y010802D01*
X006820Y010442D01*
X006460Y010802D02*
X006100Y010442D01*
X006100Y010337D01*
X006100Y010442D01*
X005140Y010442D01*
X005100Y010514D01*
X004540Y010682D02*
X004540Y009962D01*
X005500Y009962D01*
X005620Y009842D01*
X005620Y009602D01*
X006100Y009602D01*
X006100Y009588D01*
X006580Y009962D02*
X006580Y008762D01*
X005140Y007322D01*
X005140Y007202D01*
X005651Y006962D02*
X005740Y006962D01*
X007060Y006962D01*
X007100Y007012D01*
X007180Y006962D01*
X008620Y006962D01*
X008620Y007202D01*
X010300Y007202D01*
X010317Y007277D01*
X010300Y006962D02*
X010317Y006962D01*
X010300Y006962D02*
X009100Y006962D01*
X009100Y006002D01*
X008620Y005522D01*
X008600Y005403D01*
X008500Y005402D01*
X008500Y005042D01*
X007180Y005042D01*
X007100Y004953D01*
X007060Y004922D01*
X005740Y004922D01*
X005651Y004962D01*
X004420Y004202D02*
X011260Y004202D01*
X011260Y004562D01*
X011340Y004679D01*
X011260Y004682D01*
X011260Y006362D01*
X011620Y005642D02*
X011620Y004682D01*
X011655Y004679D01*
X011970Y004679D02*
X011980Y004682D01*
X011980Y005042D01*
X012220Y005282D01*
X013060Y005282D01*
X013060Y006002D01*
X013300Y005882D02*
X013300Y006242D01*
X013300Y005882D02*
X014140Y005042D01*
X014140Y004682D01*
X014175Y004679D01*
X014140Y005402D02*
X014140Y006482D01*
X014883Y006333D02*
X014980Y006242D01*
X017380Y006242D01*
X017380Y005642D01*
X017740Y005282D01*
X018100Y005282D01*
X018100Y009962D01*
X017860Y011282D02*
X020140Y013562D01*
X020140Y013802D01*
X022060Y015722D01*
X023140Y015722D01*
X023140Y016802D01*
X023500Y017162D01*
X026500Y017162D01*
X026500Y016562D01*
X026600Y016462D01*
X024600Y016462D02*
X024580Y016442D01*
X021700Y013562D01*
X021600Y013462D01*
X021940Y012842D02*
X022540Y013442D01*
X022600Y013462D01*
X021940Y012842D02*
X021940Y009002D01*
X021580Y008642D01*
X021100Y008882D02*
X021100Y008282D01*
X021010Y008222D01*
X021100Y008162D01*
X021460Y007802D01*
X021460Y005642D01*
X021460Y005162D01*
X021100Y004802D01*
X014980Y004802D01*
X014980Y005402D01*
X014883Y005388D01*
X014860Y005402D01*
X014140Y005402D01*
X014883Y006648D02*
X014980Y006722D01*
X016540Y006722D01*
X016540Y007802D01*
X016780Y008042D01*
X017860Y008042D01*
X017860Y011282D01*
X020600Y013462D02*
X020620Y013442D01*
X021100Y012962D01*
X021100Y008882D01*
X022180Y009962D02*
X022180Y006362D01*
X022100Y006297D01*
X022060Y005642D02*
X021580Y005642D01*
X021460Y005642D01*
X021100Y005549D02*
X021100Y005522D01*
X020140Y005522D01*
X020100Y005588D01*
X021460Y004202D02*
X012340Y004202D01*
X012340Y004562D01*
X012285Y004679D01*
X012340Y005762D02*
X012340Y009242D01*
X012285Y009246D01*
X012220Y009362D01*
X012220Y009602D01*
X012100Y009722D01*
X012100Y013562D01*
X011260Y014042D02*
X011260Y014282D01*
X011500Y014522D01*
X013180Y012842D01*
X013180Y009362D01*
X013230Y009246D01*
X012600Y009246D02*
X012580Y009362D01*
X012580Y011882D01*
X012651Y011962D01*
X011260Y011402D02*
X011020Y011642D01*
X011020Y011882D01*
X011260Y011402D02*
X011260Y009362D01*
X011340Y009246D01*
X011025Y009246D02*
X011020Y009242D01*
X011020Y008522D01*
X011500Y008042D01*
X011740Y007802D02*
X011740Y009242D01*
X011655Y009246D01*
X011025Y009246D02*
X011020Y009362D01*
X011020Y011042D01*
X010660Y011402D01*
X010180Y012362D02*
X010180Y010082D01*
X009220Y010802D02*
X009220Y011882D01*
X010420Y012602D02*
X010420Y008522D01*
X010317Y008537D01*
X008620Y009722D02*
X007900Y009722D01*
X007660Y009962D01*
X006580Y009962D01*
X007540Y009722D02*
X007660Y009602D01*
X007660Y008042D01*
X008380Y007322D01*
X008620Y006962D02*
X008620Y006602D01*
X008600Y006522D01*
X004420Y004202D02*
X003340Y005282D01*
X003340Y010802D01*
X004420Y010802D01*
X004540Y010682D01*
X004100Y010337D02*
X004060Y010322D01*
X003580Y009842D01*
X003580Y009122D01*
X004180Y008522D01*
X008620Y010202D02*
X009220Y010802D01*
X009940Y012962D02*
X010660Y013682D01*
X010660Y014642D01*
X011500Y014522D02*
X011740Y014762D01*
X011260Y014042D02*
X011151Y013962D01*
X010049Y013962D02*
X009940Y014042D01*
X009100Y014042D01*
X008140Y015002D01*
X008140Y015722D01*
X008020Y015842D01*
X007300Y015842D01*
X007300Y014762D01*
X007060Y014522D01*
X006340Y014522D01*
X006281Y014462D01*
X008513Y013462D02*
X008620Y013442D01*
X008980Y013442D01*
X008980Y015482D02*
X008620Y015482D01*
X008513Y015462D01*
X014140Y008642D02*
X014260Y008522D01*
X014860Y008522D01*
X014883Y008537D01*
X014980Y007922D02*
X014883Y007907D01*
X014980Y007922D02*
X016300Y007922D01*
X016780Y008402D01*
X017020Y008402D01*
X017100Y008514D01*
X017860Y007802D02*
X017860Y005522D01*
X021460Y004202D02*
X022540Y005282D01*
X022540Y007082D01*
X022660Y007202D01*
X022690Y007242D01*
X022100Y005628D02*
X022060Y005642D01*
X022180Y009962D02*
X023140Y010922D01*
X023187Y010962D01*
M02*
