%
M48
M72
T01C0.0120
T02C0.0320
T03C0.0350
T04C0.0354
T05C0.0400
%
T01
X5140Y7202
X4660Y8522
X4180Y8522
X6820Y10442
X7540Y9722
X8620Y9722
X8620Y10202
X10180Y10082
X10660Y11402
X11020Y11882
X11500Y11402
X10180Y12362
X10420Y12602
X9940Y12962
X8980Y13442
X8860Y13922
X8980Y15482
X11740Y14762
X12100Y13562
X11140Y13322
X9220Y11882
X12820Y10082
X12940Y8282
X11740Y7802
X11500Y8042
X13300Y6242
X13060Y6002
X12340Y5762
X11620Y5642
X8380Y7322
X8980Y8522
X15820Y8762
X17860Y7802
X18340Y6602
X17620Y6002
X17860Y5522
X20620Y6362
X21580Y5642
X21580Y8642
X21100Y8882
X19660Y8882
X18100Y9962
X5380Y15002
T02
X20600Y16462
X21600Y16462
X22600Y16462
X23600Y16462
X24600Y16462
X25600Y16462
X26600Y16462
X26600Y13462
X25600Y13462
X24600Y13462
X23600Y13462
X22600Y13462
X21600Y13462
X20600Y13462
T03
X8500Y10962
X7700Y10962
X8100Y8962
T04
X5100Y13596
X5100Y15329
T05
X26600Y11012
X26600Y9912
X26600Y6012
X26600Y4912
M30
